<svg width="1253" height="1138" viewBox="0 0 1253 1138" fill="none" xmlns="http://www.w3.org/2000/svg">
<g filter="url(#filter0_f_284_4021)">
<path d="M907.28 765.164C951.94 753.847 1033.79 721.113 1063.84 695.508C1098.35 668.846 1030.82 634.23 1022.85 629.113C1014.88 623.996 621.831 406.459 553.099 372.436C484.366 338.413 259.379 393.507 204.265 420.934C159.34 443.291 189.536 461.898 195.165 466.91C200.795 471.921 527.282 673.695 645.092 736.097C734.309 783.354 819.617 787.378 907.28 765.164Z" fill="black" fill-opacity="0.2"/>
</g>
<path fill-rule="evenodd" clip-rule="evenodd" d="M598.79 541.457L644.197 522.835L644.205 522.853C644.484 522.733 644.766 522.617 645.05 522.505C672.079 511.808 708.66 540.452 726.755 586.481C744.85 632.511 737.607 678.496 710.577 689.193C710.253 689.321 709.928 689.443 709.601 689.56L665.707 707.59L644.317 654.486C638.391 645.878 633.122 636.026 628.872 625.216C624.951 615.242 622.22 605.27 620.622 595.659L598.79 541.457Z" fill="black"/>
<ellipse cx="52.6562" cy="89.4451" rx="52.6562" ry="89.4451" transform="matrix(-0.929451 0.367801 0.366019 0.93106 649.057 521.719)" fill="black"/>
<g filter="url(#filter1_i_284_4021)">
<ellipse cx="39.494" cy="67.0869" rx="39.494" ry="67.0869" transform="matrix(-0.929451 0.367801 0.366019 0.93106 643.485 547.355)" fill="url(#paint0_linear_284_4021)"/>
</g>
<g filter="url(#filter2_di_284_4021)">
<path fill-rule="evenodd" clip-rule="evenodd" d="M634.036 576.018C639.928 579.641 645.68 585.114 650.752 592.012L638.351 611.473C636.601 609.225 634.664 607.406 632.679 606.125L634.036 576.018ZM630.978 643.854C633.81 645.4 636.691 645.826 639.225 644.823C639.497 644.715 639.76 644.593 640.015 644.457L655.442 674.291C654.277 675.071 653.035 675.727 651.717 676.248C644.944 678.929 637.21 677.649 629.65 673.297L630.978 643.854ZM628.437 672.572L629.765 643.123C627.577 641.675 625.453 639.577 623.578 636.972L611.42 656.051C616.559 663.182 622.423 668.839 628.437 672.572ZM631.466 605.413L632.823 575.299C625.311 571.016 617.634 569.77 610.905 572.433C609.027 573.176 607.301 574.193 605.734 575.453L621.379 605.709C621.988 605.219 622.658 604.824 623.388 604.536C625.871 603.553 628.688 603.942 631.466 605.413ZM600.806 636.412C603.505 643.276 606.864 649.519 610.644 654.954L622.812 635.858C621.538 633.919 620.401 631.737 619.469 629.364C619.222 628.737 618.995 628.11 618.787 627.485L599.137 631.828C599.649 633.353 600.205 634.883 600.806 636.412ZM639.146 612.542L651.536 593.098C655.497 598.678 659.013 605.138 661.816 612.269C662.354 613.636 662.855 615.003 663.321 616.368L643.436 620.762C643.342 620.506 643.245 620.25 643.144 619.995C642.054 617.222 640.687 614.71 639.146 612.542ZM598.747 630.638C595.527 620.601 594.228 610.749 594.7 602.035L617.082 616.38C616.962 619.43 617.392 622.822 618.414 626.292L598.747 630.638ZM643.85 621.946C645.142 625.862 645.68 629.715 645.524 633.13L667.873 647.454C668.482 638.403 667.155 628.072 663.718 617.556L643.85 621.946ZM667.762 648.861L645.418 634.541C644.984 638.612 643.496 641.93 641.066 643.781L656.465 673.56C662.9 668.656 666.771 659.757 667.762 648.861ZM594.794 600.616L617.18 614.964C617.527 611.491 618.635 608.556 620.436 606.594L604.762 576.283C599.015 581.495 595.602 590.177 594.794 600.616Z" fill="#4C4C4C"/>
</g>
<path fill-rule="evenodd" clip-rule="evenodd" d="M598.844 540.519L644.251 521.896L644.259 521.916C644.546 521.793 644.835 521.673 645.127 521.558C672.156 510.862 708.737 539.505 726.831 585.535C744.926 631.565 737.683 677.55 710.653 688.247C710.32 688.379 709.984 688.505 709.648 688.625L665.761 706.652L644.331 653.449C638.431 644.862 633.184 635.042 628.949 624.27C625.044 614.335 622.318 604.401 620.718 594.825L598.844 540.519Z" fill="black"/>
<path d="M583.423 642.623C601.504 688.616 638.074 717.23 665.103 706.534C692.133 695.838 699.387 649.882 681.306 603.889C663.225 557.895 625.628 526.802 598.598 537.498C571.569 548.195 565.342 596.629 583.423 642.623Z" fill="black"/>
<g filter="url(#filter3_i_284_4021)">
<ellipse cx="37.0157" cy="64.6943" rx="37.0157" ry="64.6943" transform="matrix(-0.925829 0.378121 0.352729 0.935706 643.24 549.832)" fill="url(#paint1_linear_284_4021)"/>
</g>
<g filter="url(#filter4_di_284_4021)">
<path fill-rule="evenodd" clip-rule="evenodd" d="M606.454 634.788C615.739 659.315 634.445 674.645 648.408 669.231L639.658 646.509C632.939 648.817 624.118 641.61 619.543 630.062L606.454 634.788ZM605.207 631.261C597.626 608.221 601.345 585.979 614.004 579.894L622.751 602.607C616.963 605.671 615.155 615.801 618.323 626.526L605.207 631.261ZM643.522 617.429C639.419 607.907 632.426 601.616 626.391 601.689L617.53 578.682C630.944 575.77 647.767 590.185 656.661 612.686L643.522 617.429ZM644.847 620.928L657.959 616.194C665.583 638.273 662.815 659.858 651.725 667.476L642.861 644.458C647.134 640.104 648.041 630.664 644.847 620.928Z" fill="#474747"/>
</g>
<path fill-rule="evenodd" clip-rule="evenodd" d="M272.165 358.296L311.815 349.928L311.818 349.945C312.075 349.886 312.333 349.831 312.592 349.779C336.136 345.114 361.595 373.829 369.457 413.915C377.318 454.001 364.604 490.278 341.06 494.943C340.773 495 340.485 495.052 340.198 495.099L301.844 503.216L292.324 456.731C288.822 448.895 286.029 440.161 284.195 430.808C282.504 422.183 281.765 413.735 281.881 405.74L272.165 358.296Z" fill="black"/>
<ellipse cx="43.4874" cy="73.8594" rx="43.4874" ry="73.8594" transform="matrix(-0.980301 0.19423 0.19257 0.981936 315.884 349.734)" fill="black"/>
<g filter="url(#filter5_i_284_4021)">
<ellipse cx="32.617" cy="55.3971" rx="32.617" ry="55.3971" transform="matrix(-0.980301 0.19423 0.19257 0.981936 307.573 369.727)" fill="url(#paint2_linear_284_4021)"/>
</g>
<g filter="url(#filter6_di_284_4021)">
<path fill-rule="evenodd" clip-rule="evenodd" d="M295.614 391.598C299.868 395.42 303.733 400.728 306.832 407.095L293.855 421.072C292.766 418.98 291.461 417.209 290.036 415.87L295.614 391.598ZM283.05 446.268C285.12 447.944 287.396 448.718 289.603 448.281C289.846 448.232 290.084 448.17 290.317 448.095L298.418 474.632C297.356 475.092 296.251 475.439 295.104 475.666C289.198 476.836 283.1 474.64 277.602 469.971L283.05 446.268ZM276.725 469.2L282.173 445.494C280.613 443.995 279.201 441.979 278.066 439.589L265.372 453.261C268.483 459.811 272.4 465.274 276.725 469.2ZM289.157 415.11L294.736 390.835C289.274 386.246 283.229 384.096 277.373 385.256C275.736 385.581 274.183 386.15 272.722 386.941L280.933 413.837C281.495 413.535 282.092 413.317 282.721 413.192C284.886 412.763 287.117 413.5 289.157 415.11ZM259.667 435.726C260.839 441.704 262.64 447.276 264.904 452.254L277.608 438.571C276.858 436.801 276.256 434.853 275.85 432.779C275.743 432.234 275.651 431.692 275.576 431.154L258.992 431.755C259.181 433.07 259.406 434.395 259.667 435.726ZM294.341 422.06L307.308 408.093C309.696 413.216 311.592 418.987 312.81 425.197C313.044 426.388 313.248 427.573 313.424 428.752L296.598 429.362C296.559 429.139 296.518 428.916 296.474 428.693C296.002 426.285 295.267 424.046 294.341 422.06ZM258.851 430.731C257.727 422.097 258.135 413.9 259.813 406.89L275.844 421.858C275.29 424.322 275.133 427.149 275.449 430.129L258.851 430.731ZM296.758 430.386C297.224 433.751 297.091 436.954 296.461 439.7L312.504 454.679C314.343 447.418 314.799 438.83 313.57 429.776L296.758 430.386ZM312.205 455.807L296.166 440.831C295.212 444.075 293.515 446.551 291.27 447.699L299.358 474.19C305.314 471.165 309.781 464.512 312.205 455.807ZM260.1 405.751L276.135 420.722C276.936 417.952 278.276 415.734 280.034 414.413L271.809 387.471C266.368 390.849 262.307 397.393 260.1 405.751Z" fill="#4C4C4C"/>
</g>
<path fill-rule="evenodd" clip-rule="evenodd" d="M272.009 359.314L311.659 350.946L311.663 350.967C311.905 350.912 312.149 350.86 312.394 350.811C335.938 346.146 361.397 374.861 369.258 414.946C377.119 455.032 364.406 491.31 340.861 495.975C340.546 496.038 340.23 496.094 339.914 496.145L301.688 504.234L292.209 457.947C288.667 450.065 285.845 441.267 283.997 431.84C282.291 423.142 281.554 414.623 281.686 406.567L272.009 359.314Z" fill="black"/>
<ellipse cx="43.9706" cy="74.6801" rx="43.9706" ry="74.6801" transform="matrix(-0.980301 0.19423 0.19257 0.981936 316.072 348.99)" fill="black"/>
<g filter="url(#filter7_i_284_4021)">
<g filter="url(#filter8_i_284_4021)">
<ellipse cx="30.5996" cy="53.4886" rx="30.5996" ry="53.4886" transform="matrix(-0.968058 0.248051 0.261123 0.965968 300.19 376.443)" fill="url(#paint3_linear_284_4021)"/>
</g>
<g filter="url(#filter9_di_284_4021)">
<path fill-rule="evenodd" clip-rule="evenodd" d="M261.58 440.508C266.405 461.603 280.012 476.654 292.135 474.36L287.556 454.736C281.775 455.563 275.388 448.512 272.947 438.594L261.58 440.508ZM260.939 437.382C257.366 417.689 263.001 400.28 274.126 397.176L278.707 416.808C273.612 418.481 270.968 426.374 272.328 435.465L260.939 437.382ZM294.182 431.785C291.896 423.481 286.842 417.374 281.844 416.574L277.207 396.699C288.617 396.29 300.831 410.389 305.557 429.87L294.182 431.785ZM294.886 434.9L306.24 432.988C309.933 451.905 305.135 468.898 295.107 473.422L290.472 453.554C294.508 450.681 296.366 443.214 294.886 434.9Z" fill="url(#paint4_linear_284_4021)"/>
</g>
</g>
<g filter="url(#filter10_ii_284_4021)">
<path fill-rule="evenodd" clip-rule="evenodd" d="M858.797 363.114C860.668 364.365 862.336 365.246 863.81 365.712C880.125 370.877 1015.04 452.973 1043.82 484.818C1071.83 515.807 1069.41 533.465 1068.28 541.663C1068.12 542.847 1067.98 543.833 1067.97 544.634C1067.9 548.628 1067.51 556.654 1067.01 566.865C1066.72 572.879 1066.39 579.65 1066.07 586.803L1064.97 611.104C1064.83 612.917 1064.76 614.77 1064.68 616.661C1064.35 624.694 1064 633.427 1058.64 642.772C1052.04 654.291 1020.79 696.211 876.559 734.469C827.663 747.439 772.415 728.095 737.364 711.685C721.709 705.036 710.17 698.788 705.167 695.982C704.451 695.58 704.007 694.876 703.931 694.067C703.707 693.939 703.5 693.82 703.31 693.713C702.952 681.371 700.786 663.639 697.213 645.901C693.252 627.5 687.789 609.261 681.444 597.196C666.37 568.535 633.16 532.528 605.398 540.731C573.892 550.041 574.264 594.753 574.38 605.431C574.414 608.571 574.683 610.677 574.948 612.756C575.33 615.74 575.704 618.672 575.368 624.535C575.355 624.765 575.311 624.983 575.242 625.186C575.203 625.713 575.157 626.273 575.104 626.868L574.295 626.403C573.565 626.884 572.579 626.975 571.714 626.482L333.323 490.668C332.652 490.286 332.192 489.614 332.108 488.846C331.498 483.311 331.807 476.823 332.154 469.532C333.054 450.647 334.209 426.375 320.324 399.322C307.632 374.594 288.278 357.732 269.796 362.629C251.315 367.525 245.474 386.924 243.988 397.808C242.528 408.497 242.664 418.372 242.743 424.1L242.743 424.1L242.743 424.101C242.774 426.406 242.797 428.039 242.702 428.783C242.373 431.374 217.152 407.618 215.853 398.941C211.9 372.533 211.935 347.972 215.827 321.523C216.488 317.034 218.719 305.463 220.135 301.576C220.261 301.23 220.329 300.874 220.32 300.505C220.095 291.355 222.32 277.656 225.119 271.995C225.366 271.497 225.607 270.972 225.861 270.421C228.824 263.987 233.452 253.939 266.209 241.03C312.722 222.7 438.921 182.916 443.772 182.072C455.235 180.078 469.724 181.81 481.453 183.212C488.336 184.035 494.268 184.744 498.082 184.52C553.163 181.288 616.376 191.72 698.328 237.79C709.338 243.059 720.191 248.993 730.659 255.681C756.769 272.363 778.62 289.809 796.733 305.778C817.971 323.567 834.247 339.435 845.927 350.822C851.112 355.877 855.391 360.049 858.797 363.114Z" fill="url(#paint5_linear_284_4021)"/>
</g>
<g filter="url(#filter11_ddi_284_4021)">
<path d="M634.387 447.76C604.228 433.656 588.955 390.897 544.072 339.754C543.489 339.089 543.751 338.032 544.586 337.739L738.69 269.782C738.879 269.716 739.069 269.694 739.263 269.741C741.728 270.33 760.59 276.239 813.936 327.579C839.975 352.639 845.123 359.092 858.706 369.163C860.854 370.756 860.321 374.026 851.879 380.366C824.969 400.577 678.636 468.454 634.387 447.76Z" fill="url(#paint6_linear_284_4021)"/>
</g>
<g filter="url(#filter12_di_284_4021)">
<path d="M426.581 277.504C387.068 263.085 381.359 264.002 350.58 262.615C331.51 261.755 299.81 259.262 296.126 267.683C292.441 276.105 327.826 304.672 342.597 313.736C349.816 318.166 599.468 457.658 592.028 442.167C582.862 423.081 539.206 367.774 524.456 345.329C499.865 307.907 466.093 291.923 426.581 277.504Z" fill="url(#paint7_linear_284_4021)"/>
</g>
<g filter="url(#filter13_di_284_4021)">
<path d="M336.885 248.179L508.127 187.287C508.127 187.287 504.298 188.446 483.678 187.211C476.483 186.781 298.73 250.637 297.405 251.7L336.885 248.179Z" fill="url(#paint8_linear_284_4021)"/>
</g>
<g filter="url(#filter14_f_284_4021)">
<path d="M707.498 543.571C644.272 510.646 609.684 471.335 572.332 435.143C686.639 474.711 925.744 560.802 921.724 565.522C916.699 571.422 898.955 577.889 840.908 579.181C783.76 580.453 714.737 547.34 707.498 543.571Z" fill="url(#paint9_linear_284_4021)" fill-opacity="0.21"/>
</g>
<g filter="url(#filter15_di_284_4021)">
<path d="M481.83 442.598C481.852 442.121 481.599 441.673 481.179 441.445L457.561 428.614C456.754 428.176 455.768 428.733 455.727 429.652L455.46 435.573C455.439 436.051 455.692 436.499 456.113 436.727L479.733 449.51C480.54 449.947 481.524 449.389 481.565 448.472L481.83 442.598Z" fill="#323232"/>
</g>
<g filter="url(#filter16_di_284_4021)">
<path d="M360.704 382.51C360.726 382.033 360.473 381.585 360.053 381.357L336.435 368.526C335.628 368.088 334.642 368.645 334.601 369.564L334.334 375.485C334.313 375.963 334.566 376.411 334.987 376.639L358.607 389.422C359.414 389.859 360.398 389.301 360.439 388.384L360.704 382.51Z" fill="#323232"/>
</g>
<path d="M761.437 425.202L619.082 311.356C602.018 315.159 562.882 330.6 555.449 333.016C545.818 336.146 544.154 338.057 544.154 338.057C544.025 340.916 545.428 342.233 549.824 346.907C556.127 353.609 558.784 356.683 574.173 378.264C596.335 409.343 612.968 438.081 629.822 445.556C643.231 451.504 664.308 457.127 695.052 448.497C722.533 440.784 739.657 431.44 761.437 425.202Z" fill="#C4C4C4" fill-opacity="0.2"/>
<g opacity="0.17" filter="url(#filter17_f_284_4021)">
<path d="M1018.62 521.912C977.091 551.83 885.83 593.16 845.683 598.281" stroke="url(#paint10_linear_284_4021)" stroke-width="41.0856" stroke-linecap="round" stroke-linejoin="round"/>
</g>
<g filter="url(#filter18_dii_284_4021)">
<path d="M1048.69 534.87C1056.95 524.712 1055.11 516.218 1054.57 502.907C1054.56 502.714 1054.53 502.498 1054.47 502.312C1051.32 491.227 1065.18 513.613 1066.05 528.676C1066.33 533.626 1065.9 536.106 1065.23 540.632C1064.93 542.703 1060.08 555.21 1060.59 557.98C1061.1 560.75 1058.85 579.584 1058.82 582.444C1058.79 585.304 1045.9 606.017 1013.64 625.099C986.847 640.95 948.97 650.44 945.114 650.818C941.258 651.196 938.083 638.175 935.333 637.34C928.138 635.153 906.281 642.081 898.164 643.737C888.692 645.669 866.594 650.112 842.848 645.967C813.477 640.84 809.108 637.279 782.617 621.267C764.161 610.112 751.932 589.018 748.32 578.627C747.745 576.971 749.283 575.59 750.926 576.2C768.06 582.559 808.223 599.741 854.495 606.603C919.39 616.227 972.28 587.571 979.858 583.45C1011.71 566.13 1028.31 559.943 1048.69 534.87Z" fill="#211F1F"/>
</g>
<mask id="mask0_284_4021" style="mask-type:alpha" maskUnits="userSpaceOnUse" x="748" y="496" width="322" height="155">
<path d="M1048.74 534.747C1057.8 523.58 1055.75 509.26 1052.88 499.139C1052.19 496.705 1054.74 495.345 1056.15 497.448C1065.37 511.244 1068.6 523.341 1069.24 529.275C1069.52 534.224 1069.26 537.347 1068.6 541.874C1068.29 543.945 1060.13 555.079 1060.65 557.849C1061.16 560.619 1058.92 579.455 1058.89 582.315C1058.86 585.175 1045.99 605.896 1013.75 625C986.958 640.869 949.087 650.384 945.232 650.765C941.376 651.146 938.192 638.127 935.442 637.293C928.246 635.111 906.394 642.054 898.278 643.715C888.807 645.653 866.711 650.111 842.964 645.982C813.59 640.874 809.218 637.316 782.718 621.321C764.255 610.178 752.013 589.092 748.395 578.703C747.819 577.048 749.355 575.666 750.999 576.275C768.137 582.622 808.311 599.778 854.586 606.609C919.486 616.19 972.359 587.499 979.934 583.373C1011.78 566.031 1028.37 559.833 1048.74 534.747Z" fill="#999999"/>
</mask>
<g mask="url(#mask0_284_4021)">
<g filter="url(#filter19_d_284_4021)">
<path d="M794.249 587.07L883.924 592.467C883.978 592.63 884.04 592.826 884.107 593.054C884.327 593.795 884.598 594.865 884.804 596.16C885.215 598.758 885.352 602.224 884.297 605.776C883.248 609.308 881.01 612.964 876.599 615.966C872.172 618.978 865.509 621.365 855.57 622.245C849.632 622.771 841.502 622.373 833.224 620.412C824.944 618.451 816.582 614.942 810.121 609.297C806.6 606.221 802.437 600.34 799.117 595.14C797.467 592.556 796.042 590.169 795.03 588.427C794.732 587.915 794.47 587.458 794.249 587.07Z" stroke="white" stroke-opacity="0.5" stroke-width="1.8525"/>
</g>
<g filter="url(#filter20_d_284_4021)">
<path d="M1033.67 534.78L1054.67 505.87C1054.89 506.235 1055.15 506.699 1055.43 507.254C1056.19 508.76 1057.14 510.924 1057.84 513.544C1059.25 518.783 1059.7 525.814 1055.91 533.101C1054.79 535.242 1053.23 536.748 1051.54 537.344C1049.89 537.924 1048.02 537.684 1046.11 536.102C1045.16 535.315 1043.74 534.91 1042.29 534.697C1040.8 534.481 1039.14 534.447 1037.61 534.495C1036.11 534.541 1034.71 534.665 1033.67 534.78Z" stroke="white" stroke-opacity="0.5" stroke-width="1.54375"/>
</g>
</g>
<g filter="url(#filter21_f_284_4021)">
<path d="M581.401 532.793L334.173 402.043C348.03 431.414 343.798 463.486 342.596 476.906L557.994 599.658C559.719 561.407 572.181 536.121 581.401 532.793Z" fill="url(#paint11_linear_284_4021)"/>
</g>
<defs>
<filter id="filter0_f_284_4021" x="162.664" y="344.318" width="928.283" height="451.228" filterUnits="userSpaceOnUse" color-interpolation-filters="sRGB">
<feFlood flood-opacity="0" result="BackgroundImageFix"/>
<feBlend mode="normal" in="SourceGraphic" in2="BackgroundImageFix" result="shape"/>
<feGaussianBlur stdDeviation="8.67815" result="effect1_foregroundBlur_284_4021"/>
</filter>
<filter id="filter1_i_284_4021" x="587.165" y="560.201" width="88.3359" height="128.285" filterUnits="userSpaceOnUse" color-interpolation-filters="sRGB">
<feFlood flood-opacity="0" result="BackgroundImageFix"/>
<feBlend mode="normal" in="SourceGraphic" in2="BackgroundImageFix" result="shape"/>
<feColorMatrix in="SourceAlpha" type="matrix" values="0 0 0 0 0 0 0 0 0 0 0 0 0 0 0 0 0 0 127 0" result="hardAlpha"/>
<feMorphology radius="0.622509" operator="erode" in="SourceAlpha" result="effect1_innerShadow_284_4021"/>
<feOffset/>
<feGaussianBlur stdDeviation="0.311254"/>
<feComposite in2="hardAlpha" operator="arithmetic" k2="-1" k3="1"/>
<feColorMatrix type="matrix" values="0 0 0 0 0 0 0 0 0 0 0 0 0 0 0 0 0 0 0.25 0"/>
<feBlend mode="normal" in2="shape" result="effect1_innerShadow_284_4021"/>
</filter>
<filter id="filter2_di_284_4021" x="592.739" y="570.911" width="75.6512" height="107.979" filterUnits="userSpaceOnUse" color-interpolation-filters="sRGB">
<feFlood flood-opacity="0" result="BackgroundImageFix"/>
<feColorMatrix in="SourceAlpha" type="matrix" values="0 0 0 0 0 0 0 0 0 0 0 0 0 0 0 0 0 0 127 0" result="hardAlpha"/>
<feOffset dy="0.249004"/>
<feGaussianBlur stdDeviation="0.186753"/>
<feColorMatrix type="matrix" values="0 0 0 0 1 0 0 0 0 1 0 0 0 0 1 0 0 0 0.41 0"/>
<feBlend mode="normal" in2="BackgroundImageFix" result="effect1_dropShadow_284_4021"/>
<feBlend mode="normal" in="SourceGraphic" in2="effect1_dropShadow_284_4021" result="shape"/>
<feColorMatrix in="SourceAlpha" type="matrix" values="0 0 0 0 0 0 0 0 0 0 0 0 0 0 0 0 0 0 127 0" result="hardAlpha"/>
<feOffset dx="-1.86753" dy="1.24502"/>
<feGaussianBlur stdDeviation="0.933763"/>
<feComposite in2="hardAlpha" operator="arithmetic" k2="-1" k3="1"/>
<feColorMatrix type="matrix" values="0 0 0 0 0 0 0 0 0 0 0 0 0 0 0 0 0 0 0.25 0"/>
<feBlend mode="normal" in2="shape" result="effect2_innerShadow_284_4021"/>
</filter>
<filter id="filter3_i_284_4021" x="590.612" y="562.217" width="82.3545" height="124.293" filterUnits="userSpaceOnUse" color-interpolation-filters="sRGB">
<feFlood flood-opacity="0" result="BackgroundImageFix"/>
<feBlend mode="normal" in="SourceGraphic" in2="BackgroundImageFix" result="shape"/>
<feColorMatrix in="SourceAlpha" type="matrix" values="0 0 0 0 0 0 0 0 0 0 0 0 0 0 0 0 0 0 127 0" result="hardAlpha"/>
<feMorphology radius="0.45706" operator="erode" in="SourceAlpha" result="effect1_innerShadow_284_4021"/>
<feOffset/>
<feGaussianBlur stdDeviation="0.22853"/>
<feComposite in2="hardAlpha" operator="arithmetic" k2="-1" k3="1"/>
<feColorMatrix type="matrix" values="0 0 0 0 0 0 0 0 0 0 0 0 0 0 0 0 0 0 0.25 0"/>
<feBlend mode="normal" in2="shape" result="effect1_innerShadow_284_4021"/>
</filter>
<filter id="filter4_di_284_4021" x="599.43" y="578.184" width="63.2049" height="93.3793" filterUnits="userSpaceOnUse" color-interpolation-filters="sRGB">
<feFlood flood-opacity="0" result="BackgroundImageFix"/>
<feColorMatrix in="SourceAlpha" type="matrix" values="0 0 0 0 0 0 0 0 0 0 0 0 0 0 0 0 0 0 127 0" result="hardAlpha"/>
<feOffset dy="0.249003"/>
<feGaussianBlur stdDeviation="0.186753"/>
<feColorMatrix type="matrix" values="0 0 0 0 1 0 0 0 0 1 0 0 0 0 1 0 0 0 0.41 0"/>
<feBlend mode="normal" in2="BackgroundImageFix" result="effect1_dropShadow_284_4021"/>
<feBlend mode="normal" in="SourceGraphic" in2="effect1_dropShadow_284_4021" result="shape"/>
<feColorMatrix in="SourceAlpha" type="matrix" values="0 0 0 0 0 0 0 0 0 0 0 0 0 0 0 0 0 0 127 0" result="hardAlpha"/>
<feOffset dx="-1.86753" dy="1.24502"/>
<feGaussianBlur stdDeviation="0.933763"/>
<feComposite in2="hardAlpha" operator="arithmetic" k2="-1" k3="1"/>
<feColorMatrix type="matrix" values="0 0 0 0 0 0 0 0 0 0 0 0 0 0 0 0 0 0 0.25 0"/>
<feBlend mode="normal" in2="shape" result="effect2_innerShadow_284_4021"/>
</filter>
<filter id="filter5_i_284_4021" x="252.55" y="375.689" width="67.4326" height="109.537" filterUnits="userSpaceOnUse" color-interpolation-filters="sRGB">
<feFlood flood-opacity="0" result="BackgroundImageFix"/>
<feBlend mode="normal" in="SourceGraphic" in2="BackgroundImageFix" result="shape"/>
<feColorMatrix in="SourceAlpha" type="matrix" values="0 0 0 0 0 0 0 0 0 0 0 0 0 0 0 0 0 0 127 0" result="hardAlpha"/>
<feMorphology radius="0.514076" operator="erode" in="SourceAlpha" result="effect1_innerShadow_284_4021"/>
<feOffset/>
<feGaussianBlur stdDeviation="0.257038"/>
<feComposite in2="hardAlpha" operator="arithmetic" k2="-1" k3="1"/>
<feColorMatrix type="matrix" values="0 0 0 0 0 0 0 0 0 0 0 0 0 0 0 0 0 0 0.25 0"/>
<feBlend mode="normal" in2="shape" result="effect1_innerShadow_284_4021"/>
</filter>
<filter id="filter6_di_284_4021" x="256.677" y="384.844" width="57.8897" height="92.1603" filterUnits="userSpaceOnUse" color-interpolation-filters="sRGB">
<feFlood flood-opacity="0" result="BackgroundImageFix"/>
<feColorMatrix in="SourceAlpha" type="matrix" values="0 0 0 0 0 0 0 0 0 0 0 0 0 0 0 0 0 0 127 0" result="hardAlpha"/>
<feOffset dy="0.20563"/>
<feGaussianBlur stdDeviation="0.154223"/>
<feColorMatrix type="matrix" values="0 0 0 0 1 0 0 0 0 1 0 0 0 0 1 0 0 0 0.41 0"/>
<feBlend mode="normal" in2="BackgroundImageFix" result="effect1_dropShadow_284_4021"/>
<feBlend mode="normal" in="SourceGraphic" in2="effect1_dropShadow_284_4021" result="shape"/>
<feColorMatrix in="SourceAlpha" type="matrix" values="0 0 0 0 0 0 0 0 0 0 0 0 0 0 0 0 0 0 127 0" result="hardAlpha"/>
<feOffset dx="-1.54223" dy="1.02815"/>
<feGaussianBlur stdDeviation="0.771114"/>
<feComposite in2="hardAlpha" operator="arithmetic" k2="-1" k3="1"/>
<feColorMatrix type="matrix" values="0 0 0 0 0 0 0 0 0 0 0 0 0 0 0 0 0 0 0.25 0"/>
<feBlend mode="normal" in2="shape" result="effect2_innerShadow_284_4021"/>
</filter>
<filter id="filter7_i_284_4021" x="251.777" y="383.473" width="65.5156" height="104.459" filterUnits="userSpaceOnUse" color-interpolation-filters="sRGB">
<feFlood flood-opacity="0" result="BackgroundImageFix"/>
<feBlend mode="normal" in="SourceGraphic" in2="BackgroundImageFix" result="shape"/>
<feColorMatrix in="SourceAlpha" type="matrix" values="0 0 0 0 0 0 0 0 0 0 0 0 0 0 0 0 0 0 127 0" result="hardAlpha"/>
<feMorphology radius="0.45706" operator="erode" in="SourceAlpha" result="effect1_innerShadow_284_4021"/>
<feOffset/>
<feGaussianBlur stdDeviation="0.22853"/>
<feComposite in2="hardAlpha" operator="arithmetic" k2="-1" k3="1"/>
<feColorMatrix type="matrix" values="0 0 0 0 0 0 0 0 0 0 0 0 0 0 0 0 0 0 0.25 0"/>
<feBlend mode="normal" in2="shape" result="effect1_innerShadow_284_4021"/>
</filter>
<filter id="filter8_i_284_4021" x="251.777" y="383.473" width="65.5156" height="104.459" filterUnits="userSpaceOnUse" color-interpolation-filters="sRGB">
<feFlood flood-opacity="0" result="BackgroundImageFix"/>
<feBlend mode="normal" in="SourceGraphic" in2="BackgroundImageFix" result="shape"/>
<feColorMatrix in="SourceAlpha" type="matrix" values="0 0 0 0 0 0 0 0 0 0 0 0 0 0 0 0 0 0 127 0" result="hardAlpha"/>
<feMorphology radius="0.462662" operator="erode" in="SourceAlpha" result="effect1_innerShadow_284_4021"/>
<feOffset/>
<feGaussianBlur stdDeviation="0.231331"/>
<feComposite in2="hardAlpha" operator="arithmetic" k2="-1" k3="1"/>
<feColorMatrix type="matrix" values="0 0 0 0 0 0 0 0 0 0 0 0 0 0 0 0 0 0 0.25 0"/>
<feBlend mode="normal" in2="shape" result="effect1_innerShadow_284_4021"/>
</filter>
<filter id="filter9_di_284_4021" x="258.003" y="396.567" width="49.8514" height="79.2699" filterUnits="userSpaceOnUse" color-interpolation-filters="sRGB">
<feFlood flood-opacity="0" result="BackgroundImageFix"/>
<feColorMatrix in="SourceAlpha" type="matrix" values="0 0 0 0 0 0 0 0 0 0 0 0 0 0 0 0 0 0 127 0" result="hardAlpha"/>
<feOffset dy="0.249004"/>
<feGaussianBlur stdDeviation="0.186753"/>
<feColorMatrix type="matrix" values="0 0 0 0 1 0 0 0 0 1 0 0 0 0 1 0 0 0 0.41 0"/>
<feBlend mode="normal" in2="BackgroundImageFix" result="effect1_dropShadow_284_4021"/>
<feBlend mode="normal" in="SourceGraphic" in2="effect1_dropShadow_284_4021" result="shape"/>
<feColorMatrix in="SourceAlpha" type="matrix" values="0 0 0 0 0 0 0 0 0 0 0 0 0 0 0 0 0 0 127 0" result="hardAlpha"/>
<feOffset dx="-1.86753" dy="1.24502"/>
<feGaussianBlur stdDeviation="0.933763"/>
<feComposite in2="hardAlpha" operator="arithmetic" k2="-1" k3="1"/>
<feColorMatrix type="matrix" values="0 0 0 0 0 0 0 0 0 0 0 0 0 0 0 0 0 0 0.25 0"/>
<feBlend mode="normal" in2="shape" result="effect2_innerShadow_284_4021"/>
</filter>
<filter id="filter10_ii_284_4021" x="212.898" y="176.19" width="859.715" height="562.529" filterUnits="userSpaceOnUse" color-interpolation-filters="sRGB">
<feFlood flood-opacity="0" result="BackgroundImageFix"/>
<feBlend mode="normal" in="SourceGraphic" in2="BackgroundImageFix" result="shape"/>
<feColorMatrix in="SourceAlpha" type="matrix" values="0 0 0 0 0 0 0 0 0 0 0 0 0 0 0 0 0 0 127 0" result="hardAlpha"/>
<feOffset dx="3.73505" dy="-4.98007"/>
<feGaussianBlur stdDeviation="14.9402"/>
<feComposite in2="hardAlpha" operator="arithmetic" k2="-1" k3="1"/>
<feColorMatrix type="matrix" values="0 0 0 0 0 0 0 0 0 0 0 0 0 0 0 0 0 0 0.07 0"/>
<feBlend mode="normal" in2="shape" result="effect1_innerShadow_284_4021"/>
<feColorMatrix in="SourceAlpha" type="matrix" values="0 0 0 0 0 0 0 0 0 0 0 0 0 0 0 0 0 0 127 0" result="hardAlpha"/>
<feOffset dy="-0.622509"/>
<feGaussianBlur stdDeviation="1.24502"/>
<feComposite in2="hardAlpha" operator="arithmetic" k2="-1" k3="1"/>
<feColorMatrix type="matrix" values="0 0 0 0 0 0 0 0 0 0 0 0 0 0 0 0 0 0 0.25 0"/>
<feBlend mode="normal" in2="effect1_innerShadow_284_4021" result="effect2_innerShadow_284_4021"/>
</filter>
<filter id="filter11_ddi_284_4021" x="541.268" y="267.849" width="319.753" height="185.659" filterUnits="userSpaceOnUse" color-interpolation-filters="sRGB">
<feFlood flood-opacity="0" result="BackgroundImageFix"/>
<feColorMatrix in="SourceAlpha" type="matrix" values="0 0 0 0 0 0 0 0 0 0 0 0 0 0 0 0 0 0 127 0" result="hardAlpha"/>
<feOffset dx="-1.24502" dy="0.622509"/>
<feGaussianBlur stdDeviation="0.622509"/>
<feColorMatrix type="matrix" values="0 0 0 0 1 0 0 0 0 1 0 0 0 0 1 0 0 0 0.28 0"/>
<feBlend mode="normal" in2="BackgroundImageFix" result="effect1_dropShadow_284_4021"/>
<feColorMatrix in="SourceAlpha" type="matrix" values="0 0 0 0 0 0 0 0 0 0 0 0 0 0 0 0 0 0 127 0" result="hardAlpha"/>
<feOffset dy="-0.622509"/>
<feGaussianBlur stdDeviation="0.622509"/>
<feColorMatrix type="matrix" values="0 0 0 0 1 0 0 0 0 1 0 0 0 0 1 0 0 0 0.56 0"/>
<feBlend mode="normal" in2="effect1_dropShadow_284_4021" result="effect2_dropShadow_284_4021"/>
<feBlend mode="normal" in="SourceGraphic" in2="effect2_dropShadow_284_4021" result="shape"/>
<feColorMatrix in="SourceAlpha" type="matrix" values="0 0 0 0 0 0 0 0 0 0 0 0 0 0 0 0 0 0 127 0" result="hardAlpha"/>
<feOffset dx="-0.622509" dy="1.86753"/>
<feGaussianBlur stdDeviation="0.933763"/>
<feComposite in2="hardAlpha" operator="arithmetic" k2="-1" k3="1"/>
<feColorMatrix type="matrix" values="0 0 0 0 0 0 0 0 0 0 0 0 0 0 0 0 0 0 0.75 0"/>
<feBlend mode="normal" in2="shape" result="effect3_innerShadow_284_4021"/>
</filter>
<filter id="filter12_di_284_4021" x="293.368" y="261.596" width="299.467" height="184.262" filterUnits="userSpaceOnUse" color-interpolation-filters="sRGB">
<feFlood flood-opacity="0" result="BackgroundImageFix"/>
<feColorMatrix in="SourceAlpha" type="matrix" values="0 0 0 0 0 0 0 0 0 0 0 0 0 0 0 0 0 0 127 0" result="hardAlpha"/>
<feOffset dy="0.643755"/>
<feGaussianBlur stdDeviation="0.321877"/>
<feColorMatrix type="matrix" values="0 0 0 0 0.925374 0 0 0 0 0.925374 0 0 0 0 0.925374 0 0 0 0.37 0"/>
<feBlend mode="normal" in2="BackgroundImageFix" result="effect1_dropShadow_284_4021"/>
<feBlend mode="normal" in="SourceGraphic" in2="effect1_dropShadow_284_4021" result="shape"/>
<feColorMatrix in="SourceAlpha" type="matrix" values="0 0 0 0 0 0 0 0 0 0 0 0 0 0 0 0 0 0 127 0" result="hardAlpha"/>
<feOffset dx="-2.49003" dy="3.11254"/>
<feGaussianBlur stdDeviation="1.24502"/>
<feComposite in2="hardAlpha" operator="arithmetic" k2="-1" k3="1"/>
<feColorMatrix type="matrix" values="0 0 0 0 0 0 0 0 0 0 0 0 0 0 0 0 0 0 0.8 0"/>
<feBlend mode="normal" in2="shape" result="effect2_innerShadow_284_4021"/>
</filter>
<filter id="filter13_di_284_4021" x="294.914" y="187.209" width="213.856" height="66.9803" filterUnits="userSpaceOnUse" color-interpolation-filters="sRGB">
<feFlood flood-opacity="0" result="BackgroundImageFix"/>
<feColorMatrix in="SourceAlpha" type="matrix" values="0 0 0 0 0 0 0 0 0 0 0 0 0 0 0 0 0 0 127 0" result="hardAlpha"/>
<feOffset dy="0.643755"/>
<feGaussianBlur stdDeviation="0.321877"/>
<feColorMatrix type="matrix" values="0 0 0 0 0.925374 0 0 0 0 0.925374 0 0 0 0 0.925374 0 0 0 0.37 0"/>
<feBlend mode="normal" in2="BackgroundImageFix" result="effect1_dropShadow_284_4021"/>
<feBlend mode="normal" in="SourceGraphic" in2="effect1_dropShadow_284_4021" result="shape"/>
<feColorMatrix in="SourceAlpha" type="matrix" values="0 0 0 0 0 0 0 0 0 0 0 0 0 0 0 0 0 0 127 0" result="hardAlpha"/>
<feOffset dx="-2.49003" dy="3.11254"/>
<feGaussianBlur stdDeviation="1.24502"/>
<feComposite in2="hardAlpha" operator="arithmetic" k2="-1" k3="1"/>
<feColorMatrix type="matrix" values="0 0 0 0 0 0 0 0 0 0 0 0 0 0 0 0 0 0 0.8 0"/>
<feBlend mode="normal" in2="shape" result="effect2_innerShadow_284_4021"/>
</filter>
<filter id="filter14_f_284_4021" x="554.902" y="417.712" width="384.302" height="178.935" filterUnits="userSpaceOnUse" color-interpolation-filters="sRGB">
<feFlood flood-opacity="0" result="BackgroundImageFix"/>
<feBlend mode="normal" in="SourceGraphic" in2="BackgroundImageFix" result="shape"/>
<feGaussianBlur stdDeviation="8.71512" result="effect1_foregroundBlur_284_4021"/>
</filter>
<filter id="filter15_di_284_4021" x="455.15" y="427.843" width="26.9896" height="23.3624" filterUnits="userSpaceOnUse" color-interpolation-filters="sRGB">
<feFlood flood-opacity="0" result="BackgroundImageFix"/>
<feColorMatrix in="SourceAlpha" type="matrix" values="0 0 0 0 0 0 0 0 0 0 0 0 0 0 0 0 0 0 127 0" result="hardAlpha"/>
<feOffset dy="-0.308751"/>
<feGaussianBlur stdDeviation="0.154375"/>
<feColorMatrix type="matrix" values="0 0 0 0 0.78755 0 0 0 0 0.78755 0 0 0 0 0.78755 0 0 0 0.19 0"/>
<feBlend mode="normal" in2="BackgroundImageFix" result="effect1_dropShadow_284_4021"/>
<feBlend mode="normal" in="SourceGraphic" in2="effect1_dropShadow_284_4021" result="shape"/>
<feColorMatrix in="SourceAlpha" type="matrix" values="0 0 0 0 0 0 0 0 0 0 0 0 0 0 0 0 0 0 127 0" result="hardAlpha"/>
<feOffset dy="1.54375"/>
<feGaussianBlur stdDeviation="0.771877"/>
<feComposite in2="hardAlpha" operator="arithmetic" k2="-1" k3="1"/>
<feColorMatrix type="matrix" values="0 0 0 0 0 0 0 0 0 0 0 0 0 0 0 0 0 0 0.74 0"/>
<feBlend mode="normal" in2="shape" result="effect2_innerShadow_284_4021"/>
</filter>
<filter id="filter16_di_284_4021" x="334.024" y="367.756" width="26.9896" height="23.3624" filterUnits="userSpaceOnUse" color-interpolation-filters="sRGB">
<feFlood flood-opacity="0" result="BackgroundImageFix"/>
<feColorMatrix in="SourceAlpha" type="matrix" values="0 0 0 0 0 0 0 0 0 0 0 0 0 0 0 0 0 0 127 0" result="hardAlpha"/>
<feOffset dy="-0.308751"/>
<feGaussianBlur stdDeviation="0.154375"/>
<feColorMatrix type="matrix" values="0 0 0 0 0.78755 0 0 0 0 0.78755 0 0 0 0 0.78755 0 0 0 0.19 0"/>
<feBlend mode="normal" in2="BackgroundImageFix" result="effect1_dropShadow_284_4021"/>
<feBlend mode="normal" in="SourceGraphic" in2="effect1_dropShadow_284_4021" result="shape"/>
<feColorMatrix in="SourceAlpha" type="matrix" values="0 0 0 0 0 0 0 0 0 0 0 0 0 0 0 0 0 0 127 0" result="hardAlpha"/>
<feOffset dy="1.54375"/>
<feGaussianBlur stdDeviation="0.771877"/>
<feComposite in2="hardAlpha" operator="arithmetic" k2="-1" k3="1"/>
<feColorMatrix type="matrix" values="0 0 0 0 0 0 0 0 0 0 0 0 0 0 0 0 0 0 0.74 0"/>
<feBlend mode="normal" in2="shape" result="effect2_innerShadow_284_4021"/>
</filter>
<filter id="filter17_f_284_4021" x="818.914" y="495.142" width="226.48" height="129.909" filterUnits="userSpaceOnUse" color-interpolation-filters="sRGB">
<feFlood flood-opacity="0" result="BackgroundImageFix"/>
<feBlend mode="normal" in="SourceGraphic" in2="BackgroundImageFix" result="shape"/>
<feGaussianBlur stdDeviation="3.11254" result="effect1_foregroundBlur_284_4021"/>
</filter>
<filter id="filter18_dii_284_4021" x="744.705" y="496.428" width="324.921" height="158.472" filterUnits="userSpaceOnUse" color-interpolation-filters="sRGB">
<feFlood flood-opacity="0" result="BackgroundImageFix"/>
<feColorMatrix in="SourceAlpha" type="matrix" values="0 0 0 0 0 0 0 0 0 0 0 0 0 0 0 0 0 0 127 0" result="hardAlpha"/>
<feOffset dy="0.581988"/>
<feGaussianBlur stdDeviation="1.74596"/>
<feColorMatrix type="matrix" values="0 0 0 0 0 0 0 0 0 0 0 0 0 0 0 0 0 0 0.85 0"/>
<feBlend mode="normal" in2="BackgroundImageFix" result="effect1_dropShadow_284_4021"/>
<feBlend mode="normal" in="SourceGraphic" in2="effect1_dropShadow_284_4021" result="shape"/>
<feColorMatrix in="SourceAlpha" type="matrix" values="0 0 0 0 0 0 0 0 0 0 0 0 0 0 0 0 0 0 127 0" result="hardAlpha"/>
<feOffset dy="0.581988"/>
<feGaussianBlur stdDeviation="0.581988"/>
<feComposite in2="hardAlpha" operator="arithmetic" k2="-1" k3="1"/>
<feColorMatrix type="matrix" values="0 0 0 0 0 0 0 0 0 0 0 0 0 0 0 0 0 0 0.25 0"/>
<feBlend mode="normal" in2="shape" result="effect2_innerShadow_284_4021"/>
<feColorMatrix in="SourceAlpha" type="matrix" values="0 0 0 0 0 0 0 0 0 0 0 0 0 0 0 0 0 0 127 0" result="hardAlpha"/>
<feOffset dy="-0.581988"/>
<feGaussianBlur stdDeviation="0.581988"/>
<feComposite in2="hardAlpha" operator="arithmetic" k2="-1" k3="1"/>
<feColorMatrix type="matrix" values="0 0 0 0 0 0 0 0 0 0 0 0 0 0 0 0 0 0 0.25 0"/>
<feBlend mode="normal" in2="effect2_innerShadow_284_4021" result="effect3_innerShadow_284_4021"/>
</filter>
<filter id="filter19_d_284_4021" x="791.684" y="586.043" width="96.5133" height="40.4274" filterUnits="userSpaceOnUse" color-interpolation-filters="sRGB">
<feFlood flood-opacity="0" result="BackgroundImageFix"/>
<feColorMatrix in="SourceAlpha" type="matrix" values="0 0 0 0 0 0 0 0 0 0 0 0 0 0 0 0 0 0 127 0" result="hardAlpha"/>
<feOffset dx="0.617501" dy="1.54375"/>
<feGaussianBlur stdDeviation="0.771877"/>
<feColorMatrix type="matrix" values="0 0 0 0 1 0 0 0 0 1 0 0 0 0 1 0 0 0 0.24 0"/>
<feBlend mode="normal" in2="BackgroundImageFix" result="effect1_dropShadow_284_4021"/>
<feBlend mode="normal" in="SourceGraphic" in2="effect1_dropShadow_284_4021" result="shape"/>
</filter>
<filter id="filter20_d_284_4021" x="1031.99" y="504.488" width="29.2216" height="35.4901" filterUnits="userSpaceOnUse" color-interpolation-filters="sRGB">
<feFlood flood-opacity="0" result="BackgroundImageFix"/>
<feColorMatrix in="SourceAlpha" type="matrix" values="0 0 0 0 0 0 0 0 0 0 0 0 0 0 0 0 0 0 127 0" result="hardAlpha"/>
<feOffset dx="0.926252" dy="0.926252"/>
<feGaussianBlur stdDeviation="0.323923"/>
<feColorMatrix type="matrix" values="0 0 0 0 1 0 0 0 0 1 0 0 0 0 1 0 0 0 0.24 0"/>
<feBlend mode="normal" in2="BackgroundImageFix" result="effect1_dropShadow_284_4021"/>
<feBlend mode="normal" in="SourceGraphic" in2="effect1_dropShadow_284_4021" result="shape"/>
</filter>
<filter id="filter21_f_284_4021" x="331.085" y="398.955" width="253.404" height="203.79" filterUnits="userSpaceOnUse" color-interpolation-filters="sRGB">
<feFlood flood-opacity="0" result="BackgroundImageFix"/>
<feBlend mode="normal" in="SourceGraphic" in2="BackgroundImageFix" result="shape"/>
<feGaussianBlur stdDeviation="1.54375" result="effect1_foregroundBlur_284_4021"/>
</filter>
<linearGradient id="paint0_linear_284_4021" x1="93.1577" y1="102.34" x2="97.7959" y2="33.3471" gradientUnits="userSpaceOnUse">
<stop stop-color="#3F3F3F"/>
<stop offset="1" stop-color="#5C5C5C"/>
</linearGradient>
<linearGradient id="paint1_linear_284_4021" x1="87.1045" y1="89.8227" x2="60.9754" y2="-30.0843" gradientUnits="userSpaceOnUse">
<stop stop-color="#3F3F3F"/>
<stop offset="1" stop-color="#777676"/>
</linearGradient>
<linearGradient id="paint2_linear_284_4021" x1="76.9365" y1="84.5071" x2="80.7659" y2="27.5363" gradientUnits="userSpaceOnUse">
<stop stop-color="#3F3F3F"/>
<stop offset="1" stop-color="#5C5C5C"/>
</linearGradient>
<linearGradient id="paint3_linear_284_4021" x1="72.0062" y1="74.2645" x2="50.3999" y2="-24.872" gradientUnits="userSpaceOnUse">
<stop stop-color="#3F3F3F"/>
<stop offset="1" stop-color="#777676"/>
</linearGradient>
<linearGradient id="paint4_linear_284_4021" x1="246.372" y1="441.957" x2="273.49" y2="377" gradientUnits="userSpaceOnUse">
<stop stop-color="#3F3F3F"/>
<stop offset="1" stop-color="#777676"/>
</linearGradient>
<linearGradient id="paint5_linear_284_4021" x1="720.005" y1="709.592" x2="1005.24" y2="330.988" gradientUnits="userSpaceOnUse">
<stop stop-color="#2C2C2C"/>
<stop offset="0.628054" stop-color="#515151"/>
<stop offset="1" stop-color="#7D7D7D"/>
</linearGradient>
<linearGradient id="paint6_linear_284_4021" x1="748.213" y1="106.478" x2="513.472" y2="309.373" gradientUnits="userSpaceOnUse">
<stop stop-color="#E8EAE9"/>
<stop offset="0.498386" stop-color="#707072"/>
<stop offset="1" stop-color="#2F3032"/>
</linearGradient>
<linearGradient id="paint7_linear_284_4021" x1="346.342" y1="803.343" x2="579.123" y2="419.934" gradientUnits="userSpaceOnUse">
<stop stop-color="#E8EAE9"/>
<stop offset="0.498386" stop-color="#707072"/>
<stop offset="1" stop-color="#2F3032"/>
</linearGradient>
<linearGradient id="paint8_linear_284_4021" x1="272.911" y1="392.981" x2="400.745" y2="222.858" gradientUnits="userSpaceOnUse">
<stop stop-color="#E8EAE9"/>
<stop offset="0.498386" stop-color="#707072"/>
<stop offset="1" stop-color="#2F3032"/>
</linearGradient>
<linearGradient id="paint9_linear_284_4021" x1="731.614" y1="582.258" x2="763.235" y2="501.838" gradientUnits="userSpaceOnUse">
<stop stop-color="#ECEAEA"/>
<stop offset="1" stop-color="white" stop-opacity="0"/>
</linearGradient>
<linearGradient id="paint10_linear_284_4021" x1="932.897" y1="601.319" x2="915.712" y2="563.833" gradientUnits="userSpaceOnUse">
<stop stop-color="#4B4B4B"/>
<stop offset="0.899322" stop-opacity="0"/>
</linearGradient>
<linearGradient id="paint11_linear_284_4021" x1="509.38" y1="454.98" x2="433.131" y2="595.437" gradientUnits="userSpaceOnUse">
<stop stop-color="#343434" stop-opacity="0.66"/>
<stop offset="1" stop-color="#1A1A1A"/>
</linearGradient>
</defs>
</svg>
