<svg width="74" height="24" viewBox="0 0 74 24" fill="none" xmlns="http://www.w3.org/2000/svg">
<path fill-rule="evenodd" clip-rule="evenodd" d="M36.3861 1.21065C36.7472 0.929784 37.2528 0.929784 37.6139 1.21065L46.6139 8.21065C46.8575 8.4001 47 8.69141 47 9V20C47 20.7957 46.6839 21.5587 46.1213 22.1213C45.5587 22.6839 44.7957 23 44 23H30C29.2044 23 28.4413 22.6839 27.8787 22.1213C27.3161 21.5587 27 20.7957 27 20V9C27 8.69141 27.1425 8.4001 27.3861 8.21065L36.3861 1.21065ZM29 9.48908V20C29 20.2652 29.1054 20.5196 29.2929 20.7071C29.4804 20.8946 29.7348 21 30 21H44C44.2652 21 44.5196 20.8946 44.7071 20.7071C44.8946 20.5196 45 20.2652 45 20V9.48908L37 3.26686L29 9.48908Z" fill="#5E5E5E"/>
<path fill-rule="evenodd" clip-rule="evenodd" d="M33 12C33 11.4477 33.4477 11 34 11H40C40.5523 11 41 11.4477 41 12V22C41 22.5523 40.5523 23 40 23C39.4477 23 39 22.5523 39 22V13H35V22C35 22.5523 34.5523 23 34 23C33.4477 23 33 22.5523 33 22V12Z" fill="#5E5E5E"/>
</svg>
