<svg width="20" height="20" viewBox="0 0 20 20" fill="none" xmlns="http://www.w3.org/2000/svg">
<path d="M9.99984 18.5C13.6919 18.5 16.8332 15.7323 16.8332 12.1429C16.8332 9.9967 15.7706 7.88715 14.6217 6.20988C13.4554 4.50731 12.1012 3.10892 11.3224 2.35986C10.5788 1.64472 9.42087 1.64472 8.67729 2.35986C7.89845 3.10892 6.54424 4.50731 5.37796 6.20988C4.22903 7.88715 3.1665 9.9967 3.1665 12.1429C3.1665 15.7323 6.30776 18.5 9.99984 18.5Z" stroke="#5E5E5E" stroke-width="2"/>
<path d="M9.99984 14.9999C9.5621 14.9999 9.12864 14.9137 8.72423 14.7462C8.31981 14.5787 7.95234 14.3331 7.64281 14.0236C7.33329 13.7141 7.08775 13.3466 6.92024 12.9422C6.75272 12.5378 6.6665 12.1043 6.6665 11.6666" stroke="#5E5E5E" stroke-width="2" stroke-linecap="round"/>
</svg>
