<svg width="18" height="20" viewBox="0 0 18 20" fill="none" xmlns="http://www.w3.org/2000/svg">
  <path d="M5 5L9 5" stroke="currentColor" stroke-width="2" stroke-linecap="round"/>
  <path d="M5 13L8 13" stroke="currentColor" stroke-width="2" stroke-linecap="round"/>
  <path d="M5 9L11 9" stroke="currentColor" stroke-width="2" stroke-linecap="round"/>
  <path d="M15 9V7C15 4.17157 15 2.75736 14.1213 1.87868C13.2426 1 11.8284 1 9 1H7C4.17157 1 2.75736 1 1.87868 1.87868C1 2.75736 1 4.17157 1 7V13C1 15.8284 1 17.2426 1.87868 18.1213C2.75736 19 4.17157 19 7 19H8" stroke="currentColor" stroke-width="2"/>
  <circle cx="13.5" cy="15.5" r="2.5" stroke="currentColor" stroke-width="2"/>
  <path d="M17 19L15.5 17.5" stroke="currentColor" stroke-width="2" stroke-linecap="round"/>
</svg>