<svg width="115" height="269" viewBox="0 0 115 269" fill="none" xmlns="http://www.w3.org/2000/svg">
<g filter="url(#filter0_ii_284_4496)">
<path d="M6.96311 41.837C6.75707 29.2248 14.6361 17.958 26.4765 13.5513L27.3124 13.2402C44.6185 6.79952 63.5512 6.32999 81.0906 11.9066C92.6759 15.5901 100.733 26.0724 101.305 38.2348C102.31 59.5932 103.983 95.9229 105.754 137.647C107.226 172.305 107.678 207.172 107.802 229.959C107.884 245.051 97.2354 258.052 82.45 261.145L77.9368 262.089C67.2246 264.329 56.2043 264.601 45.416 262.89L43.6348 262.607C28.7919 260.253 17.6518 247.866 16.8069 232.849C15.6513 212.312 13.776 180.629 11.1873 142.029C8.31781 99.2424 7.31223 63.2081 6.96311 41.837Z" fill="url(#paint0_linear_284_4496)"/>
</g>
<path d="M18.9404 87.8041C16.5267 78.4106 21.8241 68.365 31.1628 65.6362L31.9247 65.4136C47.127 60.9715 63.1949 60.5453 78.5563 64.1769C87.6593 66.3289 93.1805 75.7169 91.4194 84.9333C88.6295 99.5338 85.556 122.353 86.7663 148.145C87.7718 169.574 91.7763 191.019 95.1952 206.041C97.6783 216.951 90.6151 228.143 79.5554 229.998L77.7233 230.306C66.1901 232.241 54.4538 232.552 42.8564 231.231C32.3498 230.034 25.3122 219.393 27.058 208.94C29.3685 195.105 31.3287 174.865 29.4203 150.729C27.3399 124.419 22.6217 102.131 18.9404 87.8041Z" fill="#A7A5A5"/>
<g filter="url(#filter1_di_284_4496)">
<path fill-rule="evenodd" clip-rule="evenodd" d="M13.2207 49.9495C13.3748 35.4061 21.6782 22.1164 34.5177 15.2135C45.829 9.13231 59.3501 8.40982 71.14 13.3421C85.0432 19.1583 94.4174 32.3264 95.3155 47.4028C95.7437 54.5906 96.2363 62.9631 96.7549 71.9751C96.7738 72.3035 96.3409 72.465 96.1266 72.2154C95.9106 71.9639 95.5136 72.1711 95.5653 72.4986C95.8789 74.4832 95.8864 76.543 95.5495 78.6051C92.9088 94.7716 89.8865 120.963 91.3069 150.772C92.4331 174.407 96.8821 198.059 100.735 214.811C101.435 217.857 101.486 220.923 100.978 223.851C100.961 223.946 101.083 224.002 101.143 223.925C101.198 223.854 101.313 223.894 101.312 223.984C101.216 229.397 101.111 234.043 101.02 237.626C100.897 242.5 97.8742 246.809 93.3508 248.652L91.3879 249.452C72.2358 257.256 50.9628 257.942 31.4378 251.385C27.2064 249.965 24.1969 246.247 23.7309 241.8C23.3165 237.847 22.7568 232.418 22.1046 225.869C22.0663 225.484 22.6031 225.297 22.8316 225.609C23.0562 225.915 23.5251 225.69 23.4661 225.315C23.0957 222.96 23.088 220.522 23.4939 218.095C26.0761 202.651 28.2179 180.284 26.0799 153.681C23.6491 123.435 18.0428 97.9474 13.8105 82.0077C13.5854 81.16 13.4217 80.307 13.3168 79.4541C13.3107 79.4044 13.2414 79.3972 13.2264 79.4451C13.2103 79.4965 13.1318 79.485 13.1316 79.4311C13.0779 68.4637 13.1317 58.3429 13.2207 49.9495ZM20.5585 83.6695C18.2934 74.737 23.3116 65.2299 32.1655 62.5798L32.9111 62.3566C47.8649 57.8807 63.7162 57.4656 78.8326 61.1539C87.4662 63.2604 92.6961 72.1633 91.0484 80.9223C88.325 95.3995 85.2413 118.452 86.4595 144.575C87.473 166.308 91.5039 188.061 94.8681 203.04C97.2072 213.456 90.4745 224.105 79.9314 225.912L78.1544 226.216C66.7562 228.17 55.1465 228.474 43.6823 227.119C33.6568 225.935 26.9456 215.812 28.5994 205.832C30.8815 192.059 32.878 171.594 30.9686 147.086C28.8902 120.407 24.1629 97.8835 20.5585 83.6695Z" fill="url(#paint1_linear_284_4496)"/>
</g>
<g filter="url(#filter2_di_284_4496)">
<path d="M14.4573 72.164C14.1908 71.3451 14.6558 70.4596 15.4854 70.2172L54.738 58.7476C54.9878 58.6746 55.2518 58.6676 55.5043 58.7272L93.7637 67.772C94.599 67.9695 95.1006 68.8187 94.8753 69.65C92.9174 76.875 84.9343 109.104 86.7663 148.145C88.3823 182.585 97.7452 217.068 99.9731 224.861C100.222 225.733 99.6515 226.627 98.7548 226.777L60.5468 233.188C60.4085 233.211 60.2677 233.214 60.1285 233.199L24.3522 229.123C23.4106 229.015 22.7939 228.088 23.0571 227.175C25.145 219.93 32.5779 190.664 29.4203 150.729C26.2141 110.181 16.7427 79.1863 14.4573 72.164Z" fill="url(#paint2_linear_284_4496)"/>
</g>
<g filter="url(#filter3_d_284_4496)">
<g filter="url(#filter4_d_284_4496)">
<path d="M92.6261 32.171C89.1544 25.5175 84.4301 23.8822 81.2457 23.9224C80.1815 23.9358 79.8388 25.1619 80.5249 25.9767C85.9414 32.4094 90.9741 42.6785 94.0228 49.9111C94.5975 51.2746 96.4131 51.0393 96.4269 49.5608C96.4725 44.68 95.686 38.0353 92.6261 32.171Z" fill="#2F3032"/>
<path d="M90.6957 33.1749C88.5024 28.9714 85.8729 27.1629 83.6988 26.4724C87.6409 31.6912 91.2558 38.5271 93.9773 44.4221C93.5543 40.7818 92.5855 36.7968 90.6957 33.1749Z" stroke="#2F3032" stroke-width="4.35467" stroke-linecap="round"/>
</g>
</g>
<g filter="url(#filter5_d_284_4496)">
<path d="M13.1635 36.1274C16.0047 28.7692 20.7656 26.5609 24.0692 26.2705C25.129 26.1774 25.6039 27.3604 25.0119 28.2443C20.0935 35.5887 16.0389 46.9861 13.7322 54.8611C13.3164 56.2804 11.4794 56.2545 11.2923 54.7875C10.6463 49.7235 10.6473 42.6442 13.1635 36.1274Z" fill="#2F3032"/>
<path d="M15.1947 36.9117C17.0503 32.1061 19.7042 29.9258 21.9523 29.0097C18.332 35.0503 15.2768 42.9055 13.1106 49.5187C13.0709 45.5528 13.5835 41.0846 15.1947 36.9117Z" stroke="#2F3032" stroke-width="4.35467" stroke-linecap="round"/>
</g>
<g filter="url(#filter6_di_284_4496)">
<path fill-rule="evenodd" clip-rule="evenodd" d="M25.4328 55.5886C18.4991 57.7553 13.621 63.9796 13.4287 71.2311C13.3747 73.2671 13.3256 75.5394 13.2878 78.0311C13.8032 70.3734 18.8777 63.3712 26.5812 61.1865L30.6507 60.0323C46.8177 55.4472 63.8669 55.116 80.1416 59.071L81.8736 59.4919C91.2468 61.7698 97.0321 71.2872 95.4545 80.8326C92.8186 96.7809 89.8405 122.382 91.2284 151.483C92.3248 174.474 96.665 197.478 100.473 213.931C100.55 214.264 100.62 214.597 100.681 214.93C101.056 213.474 101.275 211.959 101.32 210.402C101.791 194.05 102.172 167.965 101.002 142.155C99.5758 110.663 97.5309 83.5812 96.3002 68.7524C95.6968 61.4816 90.5541 55.457 83.4979 53.6443L81.7932 53.2064C64.3085 48.7146 45.8851 49.1977 28.5924 54.6013L25.4328 55.5886ZM23.1591 220.872C23.1636 219.664 23.2646 218.447 23.4684 217.233C26.0171 202.049 28.0941 180.252 26.0014 154.393C23.6125 124.873 18.0993 99.9589 13.8914 84.2438C13.5224 82.8654 13.3155 81.4723 13.2598 80.0883C13.0756 95.451 13.3413 118.264 15.3546 145.058C17.5941 174.862 19.811 199.279 21.2308 214.087C21.463 216.509 22.1318 218.797 23.1591 220.872Z" fill="url(#paint3_linear_284_4496)"/>
</g>
<g filter="url(#filter7_ii_284_4496)">
<path fill-rule="evenodd" clip-rule="evenodd" d="M11.7993 56.05C11.9804 40.9175 20.7438 27.1301 34.2068 20.1302C45.5593 14.2276 58.98 13.515 70.7829 18.2642C85.3228 24.1147 95.1813 37.7746 96.1222 53.4584C96.5471 60.5415 97.031 68.7113 97.5379 77.4654C97.5491 77.6596 97.2943 77.7512 97.1742 77.5982C97.0528 77.4435 96.8098 77.5546 96.8356 77.7495C97.0865 79.6412 97.0615 81.5945 96.7284 83.5475C93.9908 99.5971 90.9026 125.286 92.2965 154.47C93.3776 177.106 97.6717 199.751 101.525 216.212C101.771 217.264 101.943 218.319 102.045 219.371C102.015 221.249 101.984 223.066 101.951 224.811C101.875 225.389 101.779 225.963 101.662 226.531C101.647 226.605 101.742 226.649 101.787 226.589C101.829 226.534 101.917 226.565 101.916 226.633C101.812 231.851 101.701 236.363 101.603 239.903C101.461 245.063 98.2238 249.611 93.4124 251.509L91.4287 252.292C71.891 260 50.3354 260.706 30.4418 254.287C25.9482 252.837 22.7339 248.917 22.2316 244.214C21.8588 240.722 21.3779 236.151 20.8238 230.725C20.7651 230.15 21.5315 229.835 21.925 230.258C22.3277 230.69 23.0056 230.255 22.8558 229.683C22.0122 226.463 21.8146 223.034 22.3889 219.633C24.9584 204.413 26.988 182.894 24.906 157.477C22.4813 127.875 16.8406 102.884 12.5175 87.0792C12.0759 85.4646 11.8572 83.8286 11.8438 82.2095C11.8434 82.1616 11.7792 82.1462 11.7579 82.1891C11.7363 82.2324 11.6702 82.217 11.6701 82.1686C11.6475 72.545 11.7086 63.6308 11.7993 56.05ZM19.5648 89.2504C17.1495 79.8759 22.4446 69.8307 31.7737 67.1227L32.5275 66.9039C47.5457 62.5445 63.4039 62.119 78.5748 65.6683C87.6659 67.7952 93.1787 77.1751 91.4098 86.3753C88.6438 100.762 85.6201 123.12 86.7989 148.37C87.778 169.339 91.6981 190.323 95.0694 205.099C97.5507 215.974 90.5042 227.146 79.4743 228.987L77.6565 229.291C66.2798 231.19 54.7064 231.5 43.2681 230.214C32.7939 229.036 25.7802 218.418 27.5274 207.997C29.8105 194.38 31.7318 174.555 29.8641 150.945C27.8273 125.197 23.2009 103.363 19.5648 89.2504Z" fill="url(#paint4_linear_284_4496)"/>
</g>
<g filter="url(#filter8_ii_284_4496)">
<path d="M25.0725 114.992C44.5881 106.509 66.5195 105.397 86.7932 111.862L87.4997 112.088C87.4997 112.088 86.3543 125.302 87.6123 153.218C89.5291 180.93 92.4975 193.283 92.4975 193.283L90.1407 193.91C70.2126 199.212 49.3401 199.915 29.1003 195.967C29.1003 195.967 30.6553 174.512 29.6691 155.803C28.8216 139.726 25.0725 114.992 25.0725 114.992Z" fill="url(#paint5_linear_284_4496)"/>
</g>
<defs>
<filter id="filter0_ii_284_4496" x="6.95898" y="2.23479" width="105.198" height="261.763" filterUnits="userSpaceOnUse" color-interpolation-filters="sRGB">
<feFlood flood-opacity="0" result="BackgroundImageFix"/>
<feBlend mode="normal" in="SourceGraphic" in2="BackgroundImageFix" result="shape"/>
<feColorMatrix in="SourceAlpha" type="matrix" values="0 0 0 0 0 0 0 0 0 0 0 0 0 0 0 0 0 0 127 0" result="hardAlpha"/>
<feOffset dx="4.35467" dy="-5.80623"/>
<feGaussianBlur stdDeviation="17.4187"/>
<feComposite in2="hardAlpha" operator="arithmetic" k2="-1" k3="1"/>
<feColorMatrix type="matrix" values="0 0 0 0 0 0 0 0 0 0 0 0 0 0 0 0 0 0 0.07 0"/>
<feBlend mode="normal" in2="shape" result="effect1_innerShadow_284_4496"/>
<feColorMatrix in="SourceAlpha" type="matrix" values="0 0 0 0 0 0 0 0 0 0 0 0 0 0 0 0 0 0 127 0" result="hardAlpha"/>
<feOffset dy="-0.725779"/>
<feGaussianBlur stdDeviation="1.45156"/>
<feComposite in2="hardAlpha" operator="arithmetic" k2="-1" k3="1"/>
<feColorMatrix type="matrix" values="0 0 0 0 0 0 0 0 0 0 0 0 0 0 0 0 0 0 0.25 0"/>
<feBlend mode="normal" in2="effect1_innerShadow_284_4496" result="effect2_innerShadow_284_4496"/>
</filter>
<filter id="filter1_di_284_4496" x="10.2072" y="10.0898" width="91.8597" height="248.663" filterUnits="userSpaceOnUse" color-interpolation-filters="sRGB">
<feFlood flood-opacity="0" result="BackgroundImageFix"/>
<feColorMatrix in="SourceAlpha" type="matrix" values="0 0 0 0 0 0 0 0 0 0 0 0 0 0 0 0 0 0 127 0" result="hardAlpha"/>
<feOffset dy="0.750549"/>
<feGaussianBlur stdDeviation="0.375275"/>
<feColorMatrix type="matrix" values="0 0 0 0 0.925374 0 0 0 0 0.925374 0 0 0 0 0.925374 0 0 0 0.37 0"/>
<feBlend mode="normal" in2="BackgroundImageFix" result="effect1_dropShadow_284_4496"/>
<feBlend mode="normal" in="SourceGraphic" in2="effect1_dropShadow_284_4496" result="shape"/>
<feColorMatrix in="SourceAlpha" type="matrix" values="0 0 0 0 0 0 0 0 0 0 0 0 0 0 0 0 0 0 127 0" result="hardAlpha"/>
<feOffset dx="-2.90311" dy="3.62889"/>
<feGaussianBlur stdDeviation="1.45156"/>
<feComposite in2="hardAlpha" operator="arithmetic" k2="-1" k3="1"/>
<feColorMatrix type="matrix" values="0 0 0 0 0 0 0 0 0 0 0 0 0 0 0 0 0 0 0.8 0"/>
<feBlend mode="normal" in2="shape" result="effect2_innerShadow_284_4496"/>
</filter>
<filter id="filter2_di_284_4496" x="11.4792" y="58.6875" width="89.3036" height="177.425" filterUnits="userSpaceOnUse" color-interpolation-filters="sRGB">
<feFlood flood-opacity="0" result="BackgroundImageFix"/>
<feColorMatrix in="SourceAlpha" type="matrix" values="0 0 0 0 0 0 0 0 0 0 0 0 0 0 0 0 0 0 127 0" result="hardAlpha"/>
<feOffset dy="0.750549"/>
<feGaussianBlur stdDeviation="0.375275"/>
<feColorMatrix type="matrix" values="0 0 0 0 0.925374 0 0 0 0 0.925374 0 0 0 0 0.925374 0 0 0 0.37 0"/>
<feBlend mode="normal" in2="BackgroundImageFix" result="effect1_dropShadow_284_4496"/>
<feBlend mode="normal" in="SourceGraphic" in2="effect1_dropShadow_284_4496" result="shape"/>
<feColorMatrix in="SourceAlpha" type="matrix" values="0 0 0 0 0 0 0 0 0 0 0 0 0 0 0 0 0 0 127 0" result="hardAlpha"/>
<feOffset dx="-2.90312" dy="3.62889"/>
<feGaussianBlur stdDeviation="1.45156"/>
<feComposite in2="hardAlpha" operator="arithmetic" k2="-1" k3="1"/>
<feColorMatrix type="matrix" values="0 0 0 0 0 0 0 0 0 0 0 0 0 0 0 0 0 0 0.8 0"/>
<feBlend mode="normal" in2="shape" result="effect2_innerShadow_284_4496"/>
</filter>
<filter id="filter3_d_284_4496" x="78.7174" y="21.0188" width="19.1629" height="29.7937" filterUnits="userSpaceOnUse" color-interpolation-filters="sRGB">
<feFlood flood-opacity="0" result="BackgroundImageFix"/>
<feColorMatrix in="SourceAlpha" type="matrix" values="0 0 0 0 0 0 0 0 0 0 0 0 0 0 0 0 0 0 127 0" result="hardAlpha"/>
<feOffset dy="-1.45156"/>
<feGaussianBlur stdDeviation="0.725779"/>
<feColorMatrix type="matrix" values="0 0 0 0 0 0 0 0 0 0 0 0 0 0 0 0 0 0 0.25 0"/>
<feBlend mode="normal" in2="BackgroundImageFix" result="effect1_dropShadow_284_4496"/>
<feBlend mode="normal" in="SourceGraphic" in2="effect1_dropShadow_284_4496" result="shape"/>
</filter>
<filter id="filter4_d_284_4496" x="79.4432" y="23.9219" width="17.7113" height="28.3422" filterUnits="userSpaceOnUse" color-interpolation-filters="sRGB">
<feFlood flood-opacity="0" result="BackgroundImageFix"/>
<feColorMatrix in="SourceAlpha" type="matrix" values="0 0 0 0 0 0 0 0 0 0 0 0 0 0 0 0 0 0 127 0" result="hardAlpha"/>
<feOffset dy="0.725779"/>
<feGaussianBlur stdDeviation="0.362889"/>
<feColorMatrix type="matrix" values="0 0 0 0 1 0 0 0 0 1 0 0 0 0 1 0 0 0 0.25 0"/>
<feBlend mode="normal" in2="BackgroundImageFix" result="effect1_dropShadow_284_4496"/>
<feBlend mode="normal" in="SourceGraphic" in2="effect1_dropShadow_284_4496" result="shape"/>
</filter>
<filter id="filter5_d_284_4496" x="9.47959" y="23.3625" width="17.2415" height="32.5437" filterUnits="userSpaceOnUse" color-interpolation-filters="sRGB">
<feFlood flood-opacity="0" result="BackgroundImageFix"/>
<feColorMatrix in="SourceAlpha" type="matrix" values="0 0 0 0 0 0 0 0 0 0 0 0 0 0 0 0 0 0 127 0" result="hardAlpha"/>
<feOffset dy="-1.45156"/>
<feGaussianBlur stdDeviation="0.725779"/>
<feColorMatrix type="matrix" values="0 0 0 0 0 0 0 0 0 0 0 0 0 0 0 0 0 0 0.25 0"/>
<feBlend mode="normal" in2="BackgroundImageFix" result="effect1_dropShadow_284_4496"/>
<feBlend mode="normal" in="SourceGraphic" in2="effect1_dropShadow_284_4496" result="shape"/>
</filter>
<filter id="filter6_di_284_4496" x="10.3083" y="50.1602" width="92.2186" height="173.616" filterUnits="userSpaceOnUse" color-interpolation-filters="sRGB">
<feFlood flood-opacity="0" result="BackgroundImageFix"/>
<feColorMatrix in="SourceAlpha" type="matrix" values="0 0 0 0 0 0 0 0 0 0 0 0 0 0 0 0 0 0 127 0" result="hardAlpha"/>
<feOffset dy="0.750549"/>
<feGaussianBlur stdDeviation="0.375275"/>
<feColorMatrix type="matrix" values="0 0 0 0 0.925374 0 0 0 0 0.925374 0 0 0 0 0.925374 0 0 0 0.37 0"/>
<feBlend mode="normal" in2="BackgroundImageFix" result="effect1_dropShadow_284_4496"/>
<feBlend mode="normal" in="SourceGraphic" in2="effect1_dropShadow_284_4496" result="shape"/>
<feColorMatrix in="SourceAlpha" type="matrix" values="0 0 0 0 0 0 0 0 0 0 0 0 0 0 0 0 0 0 127 0" result="hardAlpha"/>
<feOffset dx="-2.90311" dy="3.62889"/>
<feGaussianBlur stdDeviation="1.45156"/>
<feComposite in2="hardAlpha" operator="arithmetic" k2="-1" k3="1"/>
<feColorMatrix type="matrix" values="0 0 0 0 0 0 0 0 0 0 0 0 0 0 0 0 0 0 0.8 0"/>
<feBlend mode="normal" in2="shape" result="effect2_innerShadow_284_4496"/>
</filter>
<filter id="filter7_ii_284_4496" x="11.6655" y="9.3383" width="94.7341" height="249.296" filterUnits="userSpaceOnUse" color-interpolation-filters="sRGB">
<feFlood flood-opacity="0" result="BackgroundImageFix"/>
<feBlend mode="normal" in="SourceGraphic" in2="BackgroundImageFix" result="shape"/>
<feColorMatrix in="SourceAlpha" type="matrix" values="0 0 0 0 0 0 0 0 0 0 0 0 0 0 0 0 0 0 127 0" result="hardAlpha"/>
<feOffset dx="4.35467" dy="-5.80623"/>
<feGaussianBlur stdDeviation="17.4187"/>
<feComposite in2="hardAlpha" operator="arithmetic" k2="-1" k3="1"/>
<feColorMatrix type="matrix" values="0 0 0 0 0 0 0 0 0 0 0 0 0 0 0 0 0 0 0.07 0"/>
<feBlend mode="normal" in2="shape" result="effect1_innerShadow_284_4496"/>
<feColorMatrix in="SourceAlpha" type="matrix" values="0 0 0 0 0 0 0 0 0 0 0 0 0 0 0 0 0 0 127 0" result="hardAlpha"/>
<feOffset dy="-0.725779"/>
<feGaussianBlur stdDeviation="1.45156"/>
<feComposite in2="hardAlpha" operator="arithmetic" k2="-1" k3="1"/>
<feColorMatrix type="matrix" values="0 0 0 0 0 0 0 0 0 0 0 0 0 0 0 0 0 0 0.09 0"/>
<feBlend mode="normal" in2="effect1_innerShadow_284_4496" result="effect2_innerShadow_284_4496"/>
</filter>
<filter id="filter8_ii_284_4496" x="25.0723" y="101.903" width="71.7795" height="96.5816" filterUnits="userSpaceOnUse" color-interpolation-filters="sRGB">
<feFlood flood-opacity="0" result="BackgroundImageFix"/>
<feBlend mode="normal" in="SourceGraphic" in2="BackgroundImageFix" result="shape"/>
<feColorMatrix in="SourceAlpha" type="matrix" values="0 0 0 0 0 0 0 0 0 0 0 0 0 0 0 0 0 0 127 0" result="hardAlpha"/>
<feOffset dx="4.35467" dy="-5.80623"/>
<feGaussianBlur stdDeviation="17.4187"/>
<feComposite in2="hardAlpha" operator="arithmetic" k2="-1" k3="1"/>
<feColorMatrix type="matrix" values="0 0 0 0 0 0 0 0 0 0 0 0 0 0 0 0 0 0 0.07 0"/>
<feBlend mode="normal" in2="shape" result="effect1_innerShadow_284_4496"/>
<feColorMatrix in="SourceAlpha" type="matrix" values="0 0 0 0 0 0 0 0 0 0 0 0 0 0 0 0 0 0 127 0" result="hardAlpha"/>
<feOffset dy="-0.725779"/>
<feGaussianBlur stdDeviation="1.45156"/>
<feComposite in2="hardAlpha" operator="arithmetic" k2="-1" k3="1"/>
<feColorMatrix type="matrix" values="0 0 0 0 0 0 0 0 0 0 0 0 0 0 0 0 0 0 0.25 0"/>
<feBlend mode="normal" in2="effect1_innerShadow_284_4496" result="effect2_innerShadow_284_4496"/>
</filter>
<linearGradient id="paint0_linear_284_4496" x1="54.4349" y1="253.395" x2="-13.642" y2="240.562" gradientUnits="userSpaceOnUse">
<stop stop-color="#4788E8"/>
<stop offset="0.11" stop-color="#3360AA"/>
<stop offset="1" stop-color="#0F1A3B"/>
</linearGradient>
<linearGradient id="paint1_linear_284_4496" x1="122.916" y1="723.14" x2="-96.1747" y2="663.331" gradientUnits="userSpaceOnUse">
<stop stop-color="#E8EAE9"/>
<stop offset="0.498386" stop-color="#707072"/>
<stop offset="1" stop-color="#2F3032"/>
</linearGradient>
<linearGradient id="paint2_linear_284_4496" x1="105.528" y1="565.665" x2="-92.1799" y2="483.312" gradientUnits="userSpaceOnUse">
<stop stop-color="#E8EAE9"/>
<stop offset="0.498386" stop-color="#707072"/>
<stop offset="1" stop-color="#2F3032"/>
</linearGradient>
<linearGradient id="paint3_linear_284_4496" x1="115.651" y1="540.058" x2="-87.2935" y2="453.641" gradientUnits="userSpaceOnUse">
<stop stop-color="#E8EAE9"/>
<stop offset="0.498386" stop-color="#707072"/>
<stop offset="1" stop-color="#2F3032"/>
</linearGradient>
<linearGradient id="paint4_linear_284_4496" x1="56.684" y1="247.36" x2="-4.32152" y2="237.647" gradientUnits="userSpaceOnUse">
<stop stop-color="#4788E8"/>
<stop offset="0.11" stop-color="#3360AA"/>
<stop offset="1" stop-color="#0F1A3B"/>
</linearGradient>
<linearGradient id="paint5_linear_284_4496" x1="84.0637" y1="217.227" x2="14.8085" y2="196.272" gradientUnits="userSpaceOnUse">
<stop stop-color="#4788E8"/>
<stop offset="0.350909" stop-color="#3360AA"/>
</linearGradient>
</defs>
</svg>
