<svg width="114" height="269" viewBox="0 0 114 269" fill="none" xmlns="http://www.w3.org/2000/svg">
<g filter="url(#filter0_ii_284_3919)">
<path d="M6.21994 41.837C6.0139 29.2248 13.8929 17.958 25.7334 13.5513L26.5693 13.2402C43.8753 6.79952 62.8081 6.32999 80.3474 11.9066C91.9328 15.5901 99.9897 26.0724 100.562 38.2348C101.566 59.5932 103.24 95.9229 105.011 137.647C106.483 172.305 106.935 207.172 107.059 229.959C107.14 245.051 96.4922 258.052 81.7069 261.145L77.1937 262.089C66.4814 264.329 55.4612 264.601 44.6729 262.89L42.8916 262.607C28.0487 260.253 16.9087 247.866 16.0637 232.849C14.9082 212.312 13.0329 180.629 10.4441 142.029C7.57464 99.2424 6.56907 63.2081 6.21994 41.837Z" fill="url(#paint0_linear_284_3919)"/>
</g>
<path d="M18.1973 87.8041C15.7835 78.4106 21.081 68.365 30.4197 65.6362L31.1815 65.4136C46.3839 60.9715 62.4517 60.5453 77.8132 64.1769C86.9161 66.3289 92.4374 75.7169 90.6763 84.9333C87.8863 99.5338 84.8129 122.353 86.0231 148.145C87.0286 169.574 91.0331 191.019 94.4521 206.041C96.9351 216.951 89.872 228.143 78.8123 229.998L76.9801 230.306C65.4469 232.241 53.7107 232.552 42.1133 231.231C31.6067 230.034 24.569 219.393 26.3148 208.94C28.6254 195.105 30.5856 174.865 28.6771 150.729C26.5967 124.419 21.8785 102.131 18.1973 87.8041Z" fill="#A7A5A5"/>
<g filter="url(#filter1_di_284_3919)">
<path fill-rule="evenodd" clip-rule="evenodd" d="M12.4775 49.9495C12.6317 35.4061 20.9351 22.1163 33.7746 15.2135C45.0858 9.13226 58.6069 8.40978 70.3968 13.342C84.3 19.1583 93.6742 32.3263 94.5723 47.4027C95.0005 54.5905 95.4931 62.9631 96.0117 71.975C96.0306 72.3034 95.5977 72.465 95.3834 72.2154C95.1675 71.9638 94.7704 72.1711 94.8222 72.4985C95.1358 74.4832 95.1432 76.5429 94.8064 78.6051C92.1656 94.7715 89.1433 120.963 90.5637 150.772C91.6899 174.407 96.139 198.059 99.9917 214.811C100.692 217.857 100.743 220.923 100.235 223.851C100.218 223.946 100.34 224.002 100.4 223.925C100.455 223.853 100.57 223.894 100.569 223.984C100.473 229.397 100.367 234.043 100.277 237.626C100.153 242.5 97.131 246.809 92.6076 248.652L90.6447 249.452C71.4927 257.256 50.2197 257.942 30.6946 251.385C26.4633 249.964 23.4538 246.246 22.9878 241.8C22.5733 237.847 22.0136 232.418 21.3614 225.869C21.3232 225.484 21.86 225.297 22.0884 225.609C22.3131 225.915 22.7819 225.69 22.7229 225.315C22.3525 222.96 22.3449 220.522 22.7507 218.095C25.3329 202.651 27.4747 180.284 25.3367 153.681C22.9059 123.435 17.2997 97.9474 13.0673 82.0076C12.8422 81.16 12.6786 80.307 12.5737 79.4541C12.5675 79.4043 12.4982 79.3972 12.4832 79.445C12.4672 79.4964 12.3887 79.4849 12.3884 79.431C12.3347 68.4636 12.3885 58.3428 12.4775 49.9495ZM19.8154 83.6695C17.5503 74.737 22.5684 65.2298 31.4224 62.5797L32.1679 62.3566C47.1217 57.8807 62.973 57.4655 78.0895 61.1538C86.7231 63.2604 91.953 72.1633 90.3053 80.9223C87.5819 95.3995 84.4982 118.452 85.7164 144.575C86.7298 166.308 90.7608 188.061 94.125 203.04C96.4641 213.456 89.7313 224.105 79.1883 225.912L77.4113 226.216C66.013 228.17 54.4033 228.474 42.9391 227.119C32.9136 225.935 26.2024 215.812 27.8562 205.832C30.1384 192.059 32.1349 171.594 30.2255 147.085C28.147 120.407 23.4198 97.8835 19.8154 83.6695Z" fill="url(#paint1_linear_284_3919)"/>
</g>
<g filter="url(#filter2_di_284_3919)">
<path d="M13.7142 72.164C13.4477 71.3451 13.9126 70.4596 14.7422 70.2172L53.9948 58.7476C54.2446 58.6746 54.5087 58.6676 54.7611 58.7272L93.0206 67.772C93.8558 67.9695 94.3574 68.8187 94.1321 69.65C92.1743 76.875 84.1912 109.104 86.0231 148.145C87.6392 182.585 97.002 217.068 99.2299 224.861C99.4792 225.733 98.9083 226.627 98.0116 226.777L59.8037 233.188C59.6653 233.211 59.5245 233.214 59.3854 233.199L23.609 229.123C22.6674 229.015 22.0508 228.088 22.314 227.175C24.4019 219.93 31.8347 190.664 28.6771 150.729C25.4709 110.181 15.9995 79.1863 13.7142 72.164Z" fill="url(#paint2_linear_284_3919)"/>
</g>
<g filter="url(#filter3_d_284_3919)">
<g filter="url(#filter4_d_284_3919)">
<path d="M91.8834 32.171C88.4117 25.5175 83.6874 23.8822 80.503 23.9224C79.4388 23.9358 79.0962 25.1619 79.7822 25.9767C85.1988 32.4094 90.2314 42.6785 93.2801 49.9111C93.8548 51.2746 95.6704 51.0393 95.6842 49.5608C95.7298 44.68 94.9434 38.0353 91.8834 32.171Z" fill="white"/>
<path d="M89.953 33.1749C87.7597 28.9714 85.1303 27.1629 82.9561 26.4724C86.8982 31.6912 90.5131 38.5271 93.2346 44.4221C92.8117 40.7818 91.8429 36.7968 89.953 33.1749Z" stroke="white" stroke-width="4.35467" stroke-linecap="round"/>
</g>
</g>
<g filter="url(#filter5_d_284_3919)">
<path d="M12.4204 36.1274C15.2616 28.7692 20.0225 26.5609 23.3261 26.2705C24.3859 26.1774 24.8607 27.3604 24.2688 28.2443C19.3503 35.5887 15.2958 46.9861 12.989 54.8611C12.5733 56.2804 10.7363 56.2545 10.5491 54.7875C9.90318 49.7235 9.90413 42.6442 12.4204 36.1274Z" fill="white"/>
<path d="M14.4516 36.9117C16.3071 32.1061 18.9611 29.9258 21.2091 29.0097C17.5889 35.0503 14.5336 42.9055 12.3674 49.5187C12.3277 45.5528 12.8403 41.0846 14.4516 36.9117Z" stroke="white" stroke-width="4.35467" stroke-linecap="round"/>
</g>
<g filter="url(#filter6_di_284_3919)">
<path fill-rule="evenodd" clip-rule="evenodd" d="M24.6896 55.5886C17.7559 57.7553 12.8778 63.9796 12.6855 71.2311C12.6315 73.2671 12.5824 75.5394 12.5446 78.0311C13.0601 70.3734 18.1346 63.3712 25.838 61.1865L29.9076 60.0323C46.0745 55.4472 63.1238 55.116 79.3984 59.071L81.1304 59.4919C90.5036 61.7698 96.289 71.2872 94.7113 80.8326C92.0755 96.7809 89.0974 122.382 90.4852 151.483C91.5816 174.474 95.9218 197.478 99.7302 213.931C99.8073 214.264 99.8766 214.597 99.9383 214.93C100.313 213.474 100.532 211.959 100.577 210.402C101.048 194.05 101.428 167.965 100.259 142.155C98.8326 110.663 96.7878 83.5812 95.557 68.7524C94.9536 61.4816 89.811 55.457 82.7547 53.6443L81.05 53.2064C63.5654 48.7146 45.1419 49.1977 27.8493 54.6013L24.6896 55.5886ZM22.4159 220.872C22.4204 219.664 22.5215 218.447 22.7252 217.233C25.274 202.049 27.3509 180.252 25.2582 154.393C22.8693 124.873 17.3561 99.9589 13.1483 84.2438C12.7792 82.8654 12.5723 81.4723 12.5167 80.0883C12.3324 95.451 12.5982 118.264 14.6115 145.058C16.8509 174.862 19.0678 199.279 20.4876 214.087C20.7198 216.509 21.3887 218.797 22.4159 220.872Z" fill="url(#paint3_linear_284_3919)"/>
</g>
<g filter="url(#filter7_ii_284_3919)">
<path fill-rule="evenodd" clip-rule="evenodd" d="M11.0562 56.0501C11.2372 40.9175 20.0007 27.1301 33.4636 20.1302C44.8161 14.2277 58.2369 13.515 70.0398 18.2643C84.5796 24.1147 94.4382 37.7747 95.379 53.4584C95.804 60.5416 96.2878 68.7113 96.7948 77.4655C96.806 77.6596 96.5512 77.7513 96.4311 77.5982C96.3097 77.4435 96.0666 77.5546 96.0925 77.7496C96.3434 79.6412 96.3184 81.5945 95.9852 83.5476C93.2477 99.5972 90.1595 125.286 91.5533 154.47C92.6345 177.106 96.9286 199.751 100.782 216.212C101.028 217.264 101.2 218.319 101.302 219.371C101.272 221.249 101.24 223.066 101.208 224.811C101.132 225.389 101.036 225.963 100.919 226.531C100.904 226.605 100.999 226.649 101.044 226.589C101.086 226.534 101.174 226.565 101.173 226.633C101.069 231.851 100.957 236.363 100.86 239.903C100.718 245.063 97.4807 249.611 92.6693 251.509L90.6856 252.292C71.1479 260 49.5923 260.706 29.6987 254.287C25.2051 252.837 21.9908 248.917 21.4885 244.214C21.1156 240.723 20.6348 236.151 20.0807 230.725C20.022 230.15 20.7884 229.835 21.1818 230.258C21.5846 230.69 22.2625 230.255 22.1127 229.683C21.2691 226.463 21.0715 223.034 21.6457 219.633C24.2153 204.413 26.2449 182.894 24.1629 157.477C21.7381 127.875 16.0975 102.884 11.7744 87.0793C11.3328 85.4646 11.1141 83.8286 11.1007 82.2095C11.1003 82.1616 11.036 82.1462 11.0147 82.1891C10.9932 82.2325 10.9271 82.217 10.9269 82.1687C10.9043 72.545 10.9654 63.6308 11.0562 56.0501ZM18.8217 89.2504C16.4064 79.8759 21.7014 69.8307 31.0306 67.1227L31.7844 66.9039C46.8025 62.5445 62.6608 62.119 77.8317 65.6683C86.9228 67.7953 92.4355 77.1751 90.6667 86.3753C87.9006 100.762 84.8769 123.12 86.0558 148.37C87.0349 169.339 90.955 190.323 94.3263 205.099C96.8076 215.974 89.7611 227.146 78.7311 228.987L76.9134 229.291C65.5367 231.19 53.9633 231.5 42.525 230.214C32.0508 229.036 25.0371 218.418 26.7843 207.997C29.0674 194.38 30.9887 174.555 29.1209 150.945C27.0842 125.197 22.4577 103.364 18.8217 89.2504Z" fill="url(#paint4_linear_284_3919)"/>
</g>
<g filter="url(#filter8_ii_284_3919)">
<path d="M24.3298 114.992C43.8454 106.509 65.7768 105.397 86.0506 111.862L86.7571 112.088C86.7571 112.088 85.6117 125.302 86.8697 153.218C88.7864 180.93 91.7549 193.283 91.7549 193.283L89.398 193.91C69.4699 199.212 48.5974 199.915 28.3576 195.967C28.3576 195.967 29.9126 174.512 28.9264 155.803C28.0789 139.726 24.3298 114.992 24.3298 114.992Z" fill="url(#paint5_linear_284_3919)"/>
</g>
<defs>
<filter id="filter0_ii_284_3919" x="6.21582" y="2.23479" width="105.198" height="261.763" filterUnits="userSpaceOnUse" color-interpolation-filters="sRGB">
<feFlood flood-opacity="0" result="BackgroundImageFix"/>
<feBlend mode="normal" in="SourceGraphic" in2="BackgroundImageFix" result="shape"/>
<feColorMatrix in="SourceAlpha" type="matrix" values="0 0 0 0 0 0 0 0 0 0 0 0 0 0 0 0 0 0 127 0" result="hardAlpha"/>
<feOffset dx="4.35467" dy="-5.80623"/>
<feGaussianBlur stdDeviation="17.4187"/>
<feComposite in2="hardAlpha" operator="arithmetic" k2="-1" k3="1"/>
<feColorMatrix type="matrix" values="0 0 0 0 0 0 0 0 0 0 0 0 0 0 0 0 0 0 0.07 0"/>
<feBlend mode="normal" in2="shape" result="effect1_innerShadow_284_3919"/>
<feColorMatrix in="SourceAlpha" type="matrix" values="0 0 0 0 0 0 0 0 0 0 0 0 0 0 0 0 0 0 127 0" result="hardAlpha"/>
<feOffset dy="-0.725779"/>
<feGaussianBlur stdDeviation="1.45156"/>
<feComposite in2="hardAlpha" operator="arithmetic" k2="-1" k3="1"/>
<feColorMatrix type="matrix" values="0 0 0 0 0 0 0 0 0 0 0 0 0 0 0 0 0 0 0.25 0"/>
<feBlend mode="normal" in2="effect1_innerShadow_284_3919" result="effect2_innerShadow_284_3919"/>
</filter>
<filter id="filter1_di_284_3919" x="9.46407" y="10.0898" width="91.8597" height="248.663" filterUnits="userSpaceOnUse" color-interpolation-filters="sRGB">
<feFlood flood-opacity="0" result="BackgroundImageFix"/>
<feColorMatrix in="SourceAlpha" type="matrix" values="0 0 0 0 0 0 0 0 0 0 0 0 0 0 0 0 0 0 127 0" result="hardAlpha"/>
<feOffset dy="0.750549"/>
<feGaussianBlur stdDeviation="0.375275"/>
<feColorMatrix type="matrix" values="0 0 0 0 0.925374 0 0 0 0 0.925374 0 0 0 0 0.925374 0 0 0 0.37 0"/>
<feBlend mode="normal" in2="BackgroundImageFix" result="effect1_dropShadow_284_3919"/>
<feBlend mode="normal" in="SourceGraphic" in2="effect1_dropShadow_284_3919" result="shape"/>
<feColorMatrix in="SourceAlpha" type="matrix" values="0 0 0 0 0 0 0 0 0 0 0 0 0 0 0 0 0 0 127 0" result="hardAlpha"/>
<feOffset dx="-2.90311" dy="3.62889"/>
<feGaussianBlur stdDeviation="1.45156"/>
<feComposite in2="hardAlpha" operator="arithmetic" k2="-1" k3="1"/>
<feColorMatrix type="matrix" values="0 0 0 0 0 0 0 0 0 0 0 0 0 0 0 0 0 0 0.8 0"/>
<feBlend mode="normal" in2="shape" result="effect2_innerShadow_284_3919"/>
</filter>
<filter id="filter2_di_284_3919" x="10.736" y="58.6875" width="89.3031" height="177.425" filterUnits="userSpaceOnUse" color-interpolation-filters="sRGB">
<feFlood flood-opacity="0" result="BackgroundImageFix"/>
<feColorMatrix in="SourceAlpha" type="matrix" values="0 0 0 0 0 0 0 0 0 0 0 0 0 0 0 0 0 0 127 0" result="hardAlpha"/>
<feOffset dy="0.750549"/>
<feGaussianBlur stdDeviation="0.375275"/>
<feColorMatrix type="matrix" values="0 0 0 0 0.925374 0 0 0 0 0.925374 0 0 0 0 0.925374 0 0 0 0.37 0"/>
<feBlend mode="normal" in2="BackgroundImageFix" result="effect1_dropShadow_284_3919"/>
<feBlend mode="normal" in="SourceGraphic" in2="effect1_dropShadow_284_3919" result="shape"/>
<feColorMatrix in="SourceAlpha" type="matrix" values="0 0 0 0 0 0 0 0 0 0 0 0 0 0 0 0 0 0 127 0" result="hardAlpha"/>
<feOffset dx="-2.90312" dy="3.62889"/>
<feGaussianBlur stdDeviation="1.45156"/>
<feComposite in2="hardAlpha" operator="arithmetic" k2="-1" k3="1"/>
<feColorMatrix type="matrix" values="0 0 0 0 0 0 0 0 0 0 0 0 0 0 0 0 0 0 0.8 0"/>
<feBlend mode="normal" in2="shape" result="effect2_innerShadow_284_3919"/>
</filter>
<filter id="filter3_d_284_3919" x="77.9752" y="21.0188" width="19.1624" height="29.7937" filterUnits="userSpaceOnUse" color-interpolation-filters="sRGB">
<feFlood flood-opacity="0" result="BackgroundImageFix"/>
<feColorMatrix in="SourceAlpha" type="matrix" values="0 0 0 0 0 0 0 0 0 0 0 0 0 0 0 0 0 0 127 0" result="hardAlpha"/>
<feOffset dy="-1.45156"/>
<feGaussianBlur stdDeviation="0.725779"/>
<feColorMatrix type="matrix" values="0 0 0 0 0 0 0 0 0 0 0 0 0 0 0 0 0 0 0.25 0"/>
<feBlend mode="normal" in2="BackgroundImageFix" result="effect1_dropShadow_284_3919"/>
<feBlend mode="normal" in="SourceGraphic" in2="effect1_dropShadow_284_3919" result="shape"/>
</filter>
<filter id="filter4_d_284_3919" x="78.701" y="23.9219" width="17.7108" height="28.3422" filterUnits="userSpaceOnUse" color-interpolation-filters="sRGB">
<feFlood flood-opacity="0" result="BackgroundImageFix"/>
<feColorMatrix in="SourceAlpha" type="matrix" values="0 0 0 0 0 0 0 0 0 0 0 0 0 0 0 0 0 0 127 0" result="hardAlpha"/>
<feOffset dy="0.725779"/>
<feGaussianBlur stdDeviation="0.362889"/>
<feColorMatrix type="matrix" values="0 0 0 0 1 0 0 0 0 1 0 0 0 0 1 0 0 0 0.25 0"/>
<feBlend mode="normal" in2="BackgroundImageFix" result="effect1_dropShadow_284_3919"/>
<feBlend mode="normal" in="SourceGraphic" in2="effect1_dropShadow_284_3919" result="shape"/>
</filter>
<filter id="filter5_d_284_3919" x="8.73643" y="23.3625" width="17.2415" height="32.5437" filterUnits="userSpaceOnUse" color-interpolation-filters="sRGB">
<feFlood flood-opacity="0" result="BackgroundImageFix"/>
<feColorMatrix in="SourceAlpha" type="matrix" values="0 0 0 0 0 0 0 0 0 0 0 0 0 0 0 0 0 0 127 0" result="hardAlpha"/>
<feOffset dy="-1.45156"/>
<feGaussianBlur stdDeviation="0.725779"/>
<feColorMatrix type="matrix" values="0 0 0 0 0 0 0 0 0 0 0 0 0 0 0 0 0 0 0.25 0"/>
<feBlend mode="normal" in2="BackgroundImageFix" result="effect1_dropShadow_284_3919"/>
<feBlend mode="normal" in="SourceGraphic" in2="effect1_dropShadow_284_3919" result="shape"/>
</filter>
<filter id="filter6_di_284_3919" x="9.56515" y="50.1602" width="92.2186" height="173.616" filterUnits="userSpaceOnUse" color-interpolation-filters="sRGB">
<feFlood flood-opacity="0" result="BackgroundImageFix"/>
<feColorMatrix in="SourceAlpha" type="matrix" values="0 0 0 0 0 0 0 0 0 0 0 0 0 0 0 0 0 0 127 0" result="hardAlpha"/>
<feOffset dy="0.750549"/>
<feGaussianBlur stdDeviation="0.375275"/>
<feColorMatrix type="matrix" values="0 0 0 0 0.925374 0 0 0 0 0.925374 0 0 0 0 0.925374 0 0 0 0.37 0"/>
<feBlend mode="normal" in2="BackgroundImageFix" result="effect1_dropShadow_284_3919"/>
<feBlend mode="normal" in="SourceGraphic" in2="effect1_dropShadow_284_3919" result="shape"/>
<feColorMatrix in="SourceAlpha" type="matrix" values="0 0 0 0 0 0 0 0 0 0 0 0 0 0 0 0 0 0 127 0" result="hardAlpha"/>
<feOffset dx="-2.90311" dy="3.62889"/>
<feGaussianBlur stdDeviation="1.45156"/>
<feComposite in2="hardAlpha" operator="arithmetic" k2="-1" k3="1"/>
<feColorMatrix type="matrix" values="0 0 0 0 0 0 0 0 0 0 0 0 0 0 0 0 0 0 0.8 0"/>
<feBlend mode="normal" in2="shape" result="effect2_innerShadow_284_3919"/>
</filter>
<filter id="filter7_ii_284_3919" x="10.9224" y="9.3383" width="94.7341" height="249.296" filterUnits="userSpaceOnUse" color-interpolation-filters="sRGB">
<feFlood flood-opacity="0" result="BackgroundImageFix"/>
<feBlend mode="normal" in="SourceGraphic" in2="BackgroundImageFix" result="shape"/>
<feColorMatrix in="SourceAlpha" type="matrix" values="0 0 0 0 0 0 0 0 0 0 0 0 0 0 0 0 0 0 127 0" result="hardAlpha"/>
<feOffset dx="4.35467" dy="-5.80623"/>
<feGaussianBlur stdDeviation="17.4187"/>
<feComposite in2="hardAlpha" operator="arithmetic" k2="-1" k3="1"/>
<feColorMatrix type="matrix" values="0 0 0 0 0 0 0 0 0 0 0 0 0 0 0 0 0 0 0.07 0"/>
<feBlend mode="normal" in2="shape" result="effect1_innerShadow_284_3919"/>
<feColorMatrix in="SourceAlpha" type="matrix" values="0 0 0 0 0 0 0 0 0 0 0 0 0 0 0 0 0 0 127 0" result="hardAlpha"/>
<feOffset dy="-0.725779"/>
<feGaussianBlur stdDeviation="1.45156"/>
<feComposite in2="hardAlpha" operator="arithmetic" k2="-1" k3="1"/>
<feColorMatrix type="matrix" values="0 0 0 0 0 0 0 0 0 0 0 0 0 0 0 0 0 0 0.09 0"/>
<feBlend mode="normal" in2="effect1_innerShadow_284_3919" result="effect2_innerShadow_284_3919"/>
</filter>
<filter id="filter8_ii_284_3919" x="24.3296" y="101.903" width="71.78" height="96.5816" filterUnits="userSpaceOnUse" color-interpolation-filters="sRGB">
<feFlood flood-opacity="0" result="BackgroundImageFix"/>
<feBlend mode="normal" in="SourceGraphic" in2="BackgroundImageFix" result="shape"/>
<feColorMatrix in="SourceAlpha" type="matrix" values="0 0 0 0 0 0 0 0 0 0 0 0 0 0 0 0 0 0 127 0" result="hardAlpha"/>
<feOffset dx="4.35467" dy="-5.80623"/>
<feGaussianBlur stdDeviation="17.4187"/>
<feComposite in2="hardAlpha" operator="arithmetic" k2="-1" k3="1"/>
<feColorMatrix type="matrix" values="0 0 0 0 0 0 0 0 0 0 0 0 0 0 0 0 0 0 0.07 0"/>
<feBlend mode="normal" in2="shape" result="effect1_innerShadow_284_3919"/>
<feColorMatrix in="SourceAlpha" type="matrix" values="0 0 0 0 0 0 0 0 0 0 0 0 0 0 0 0 0 0 127 0" result="hardAlpha"/>
<feOffset dy="-0.725779"/>
<feGaussianBlur stdDeviation="1.45156"/>
<feComposite in2="hardAlpha" operator="arithmetic" k2="-1" k3="1"/>
<feColorMatrix type="matrix" values="0 0 0 0 0 0 0 0 0 0 0 0 0 0 0 0 0 0 0.25 0"/>
<feBlend mode="normal" in2="effect1_innerShadow_284_3919" result="effect2_innerShadow_284_3919"/>
</filter>
<linearGradient id="paint0_linear_284_3919" x1="53.6918" y1="253.395" x2="-14.3852" y2="240.562" gradientUnits="userSpaceOnUse">
<stop stop-color="#D8D8D8"/>
<stop offset="1" stop-color="white"/>
</linearGradient>
<linearGradient id="paint1_linear_284_3919" x1="122.172" y1="723.14" x2="-96.9178" y2="663.331" gradientUnits="userSpaceOnUse">
<stop stop-color="#E8EAE9"/>
<stop offset="0.498386" stop-color="#707072"/>
<stop offset="1" stop-color="#2F3032"/>
</linearGradient>
<linearGradient id="paint2_linear_284_3919" x1="104.785" y1="565.665" x2="-92.9231" y2="483.312" gradientUnits="userSpaceOnUse">
<stop stop-color="#E8EAE9"/>
<stop offset="0.498386" stop-color="#707072"/>
<stop offset="1" stop-color="#2F3032"/>
</linearGradient>
<linearGradient id="paint3_linear_284_3919" x1="114.908" y1="540.058" x2="-88.0366" y2="453.641" gradientUnits="userSpaceOnUse">
<stop stop-color="#E8EAE9"/>
<stop offset="0.498386" stop-color="#707072"/>
<stop offset="1" stop-color="#2F3032"/>
</linearGradient>
<linearGradient id="paint4_linear_284_3919" x1="55.9408" y1="247.36" x2="-5.06468" y2="237.647" gradientUnits="userSpaceOnUse">
<stop stop-color="#D8D8D8"/>
<stop offset="1" stop-color="white"/>
</linearGradient>
<linearGradient id="paint5_linear_284_3919" x1="83.3211" y1="217.227" x2="14.0658" y2="196.272" gradientUnits="userSpaceOnUse">
<stop stop-color="#D2D2D2"/>
<stop offset="0.350909" stop-color="#CACACA"/>
<stop offset="1" stop-color="#F6F6F6"/>
</linearGradient>
</defs>
</svg>
