<svg width="16" height="14" viewBox="0 0 16 14" fill="none" xmlns="http://www.w3.org/2000/svg">
<path d="M3.09821 5.2467L3.53308 6.00772C3.80992 6.4922 3.94835 6.73444 3.94835 7C3.94835 7.26556 3.80993 7.5078 3.53308 7.99227L3.53308 7.99228L3.09821 8.7533C1.85991 10.9203 1.24075 12.0039 1.72358 12.5412C2.2064 13.0785 3.34971 12.5783 5.63633 11.5779L11.9119 8.83231C13.7075 8.04678 14.6052 7.65402 14.6052 7C14.6052 6.34598 13.7075 5.95322 11.912 5.16769L5.63633 2.4221C3.34971 1.42171 2.2064 0.921508 1.72358 1.45883C1.24075 1.99615 1.85991 3.07966 3.09821 5.2467Z" stroke="#222222" stroke-width="2"/>
</svg>
