<svg width="24" height="24" viewBox="0 0 24 24" fill="none" xmlns="http://www.w3.org/2000/svg">
<path fill-rule="evenodd" clip-rule="evenodd" d="M8.49199 9.89122C8.21866 9.69597 8.08199 9.59835 7.94633 9.58633C7.82735 9.57578 7.70853 9.60818 7.61137 9.67765C7.50059 9.75686 7.43238 9.91034 7.29595 10.2173L3.32525 19.1514C3.08171 19.6993 2.95994 19.9733 3.01179 20.1496C3.0568 20.3026 3.17207 20.4249 3.3221 20.4789C3.49499 20.5412 3.77572 20.4359 4.3372 20.2253L11.881 17.3964C11.985 17.3574 12.0369 17.3379 12.0904 17.3302C12.1378 17.3234 12.186 17.3234 12.2334 17.3302C12.2869 17.3379 12.3389 17.3574 12.4428 17.3964L19.9866 20.2253C20.5481 20.4359 20.8288 20.5412 21.0017 20.4789C21.1517 20.4249 21.267 20.3026 21.312 20.1496C21.3639 19.9733 21.2421 19.6994 20.9986 19.1514L20.9986 19.1514L17.0279 10.2173C16.8914 9.91034 16.8232 9.75686 16.7124 9.67765C16.6153 9.60818 16.4965 9.57578 16.3775 9.58633C16.2418 9.59835 16.1052 9.69597 15.8318 9.89122L12.7431 12.0974C12.3955 12.3458 11.9284 12.3458 11.5807 12.0974L8.49199 9.89122ZM8.53062 7.43929C8.52636 7.44888 8.52943 7.46015 8.53797 7.46625L11.6969 9.72264C11.8642 9.84215 11.9479 9.9019 12.0391 9.92502C12.1197 9.94543 12.2041 9.94543 12.2847 9.92502C12.3759 9.9019 12.4596 9.84215 12.6269 9.72264L15.7858 7.46625C15.7944 7.46015 15.7975 7.44888 15.7932 7.43929L12.893 0.913753C12.6614 0.392806 12.5457 0.132333 12.3843 0.0522024C12.2442 -0.0174008 12.0796 -0.0174008 11.9395 0.0522024C11.7782 0.132333 11.6624 0.392807 11.4309 0.913754L8.53062 7.43929Z" fill="#FF385C"/>
</svg>
