<svg width="24" height="24" viewBox="0 0 24 24" fill="none" xmlns="http://www.w3.org/2000/svg">
<path fill-rule="evenodd" clip-rule="evenodd" d="M8.91645 2.42988C9.13734 2.93607 8.90606 3.52548 8.39988 3.74638C7.05247 4.33436 5.86961 5.24346 4.95472 6.3942C4.03982 7.54494 3.42075 8.90228 3.15161 10.3475C2.88248 11.7928 2.97149 13.282 3.41085 14.6849C3.85021 16.0879 4.62655 17.3618 5.67199 18.3954C6.71744 19.4289 8.00016 20.1907 9.40801 20.614C10.8159 21.0373 12.306 21.1093 13.7481 20.8237C15.1902 20.5381 16.5403 19.9035 17.6806 18.9755C18.8208 18.0476 19.7163 16.8544 20.2889 15.5004C20.504 14.9917 21.0907 14.7537 21.5994 14.9688C22.1081 15.1839 22.3461 15.7706 22.131 16.2793C21.4312 17.9342 20.3366 19.3925 18.943 20.5267C17.5494 21.6609 15.8992 22.4365 14.1366 22.7856C12.3741 23.1347 10.5528 23.0467 8.83212 22.5293C7.11141 22.0119 5.54364 21.0809 4.26588 19.8176C2.98811 18.5544 2.03925 16.9973 1.50225 15.2827C0.965257 13.568 0.856473 11.7478 1.18541 9.98141C1.51435 8.21497 2.271 6.556 3.38921 5.14954C4.50741 3.74308 5.95313 2.63196 7.59996 1.91331C8.10614 1.69242 8.69556 1.9237 8.91645 2.42988Z" fill="#5E5E5E"/>
<path fill-rule="evenodd" clip-rule="evenodd" d="M11.2929 1.29289C11.4804 1.10536 11.7348 1 12 1C13.4445 1 14.8749 1.28452 16.2095 1.83733C17.5441 2.39013 18.7567 3.20038 19.7782 4.22183C20.7996 5.24327 21.6099 6.4559 22.1627 7.79048C22.7155 9.12506 23 10.5555 23 12C23 12.5523 22.5523 13 22 13H12C11.4477 13 11 12.5523 11 12V2C11 1.73478 11.1054 1.48043 11.2929 1.29289ZM13 3.05573V11H20.9443C20.8505 10.1614 20.6391 9.33849 20.3149 8.55585C19.8626 7.46392 19.1997 6.47177 18.364 5.63604C17.5282 4.80031 16.5361 4.13738 15.4442 3.68508C14.6615 3.3609 13.8386 3.14948 13 3.05573Z" fill="#5E5E5E"/>
</svg>
