<svg width="20" height="20" viewBox="0 0 20 20" fill="none" xmlns="http://www.w3.org/2000/svg">
<path d="M10 1V3" stroke="currentColor" stroke-width="2" stroke-linecap="round"/>
<path d="M10 8.5V10.5" stroke="currentColor" stroke-width="2" stroke-linecap="round"/>
<path d="M10 16V19" stroke="currentColor" stroke-width="2" stroke-linecap="round"/>
<path d="M15 12.6C15 12.0399 15 11.7599 14.891 11.546C14.7951 11.3578 14.6422 11.2049 14.454 11.109C14.2401 11 13.9601 11 13.4 11H3.769C3.4866 11 3.3454 11 3.21503 11.0359C3.09954 11.0677 2.99071 11.12 2.89371 11.1903C2.78423 11.2697 2.69602 11.38 2.51961 11.6005L1.79961 12.5005C1.51424 12.8572 1.37155 13.0356 1.31683 13.2334C1.26856 13.4078 1.26856 13.5922 1.31683 13.7666C1.37155 13.9644 1.51424 14.1428 1.79961 14.4995L2.51961 15.3995C2.69602 15.62 2.78423 15.7303 2.89371 15.8097C2.99071 15.88 3.09954 15.9323 3.21503 15.9641C3.3454 16 3.4866 16 3.769 16H13.4C13.9601 16 14.2401 16 14.454 15.891C14.6422 15.7951 14.7951 15.6422 14.891 15.454C15 15.2401 15 14.9601 15 14.4V12.6Z" stroke="currentColor" stroke-width="2"/>
<path d="M5 4.6C5 4.03995 5 3.75992 5.10899 3.54601C5.20487 3.35785 5.35785 3.20487 5.54601 3.10899C5.75992 3 6.03995 3 6.6 3H16.231C16.5134 3 16.6546 3 16.785 3.03591C16.9005 3.06773 17.0093 3.12004 17.1063 3.19035C17.2158 3.26971 17.304 3.37997 17.4804 3.60049L18.2004 4.50049C18.4858 4.85721 18.6285 5.03557 18.6832 5.23337C18.7314 5.40785 18.7314 5.59215 18.6832 5.76663C18.6285 5.96443 18.4858 6.14279 18.2004 6.49951L17.4804 7.39951C17.304 7.62003 17.2158 7.73029 17.1063 7.80965C17.0093 7.87996 16.9005 7.93227 16.785 7.96409C16.6546 8 16.5134 8 16.231 8H6.6C6.03995 8 5.75992 8 5.54601 7.89101C5.35785 7.79513 5.20487 7.64215 5.10899 7.45399C5 7.24008 5 6.96005 5 6.4V4.6Z" stroke="currentColor" stroke-width="2"/>
</svg>