<svg width="1084" height="976" viewBox="0 0 1084 976" fill="none" xmlns="http://www.w3.org/2000/svg">
<g filter="url(#filter0_f_284_4393)">
<path d="M802.261 652.687C841.938 640.704 914.17 607.961 940.13 583.727C970.064 558.361 907.974 529.981 900.607 525.705C893.24 521.428 531.205 341.812 468.059 314.014C404.913 286.216 204.958 344.859 156.54 371.748C117.074 393.665 144.963 409.168 150.226 413.444C155.488 417.721 457.065 585.865 565.465 637.184C647.556 676.048 724.382 676.208 802.261 652.687Z" fill="black" fill-opacity="0.2"/>
</g>
<path fill-rule="evenodd" clip-rule="evenodd" d="M515.829 464.321L555.88 445.74L555.89 445.761C556.147 445.637 556.406 445.516 556.667 445.398C580.524 434.688 614.558 458.953 632.684 499.596C650.81 540.239 646.165 581.87 622.308 592.58C621.989 592.723 621.669 592.86 621.347 592.99L582.696 610.947L561.258 563.938C555.623 556.47 550.523 547.873 546.291 538.382C542.387 529.631 539.54 520.833 537.713 512.309L515.829 464.321Z" fill="black"/>
<ellipse cx="47.3722" cy="80.478" rx="47.3722" ry="80.478" transform="matrix(-0.911862 0.409373 0.407504 0.913706 560.185 444.541)" fill="black"/>
<g filter="url(#filter1_i_284_4393)">
<ellipse cx="35.5308" cy="60.3613" rx="35.5308" ry="60.3613" transform="matrix(-0.911862 0.409373 0.407504 0.913706 556.218 467.812)" fill="url(#paint0_linear_284_4393)"/>
</g>
<g filter="url(#filter2_di_284_4393)">
<path fill-rule="evenodd" clip-rule="evenodd" d="M550.072 494.63C555.119 497.652 560.091 502.093 564.587 507.663L554.226 525.668C552.914 524.13 551.508 522.836 550.072 521.831L550.072 494.63ZM550.072 555.57C552.148 556.343 554.188 556.447 556.005 555.75L571.168 582.101C570.436 582.57 569.669 582.986 568.867 583.346C563.219 585.881 556.658 585.274 550.072 582.159L550.072 555.57ZM547.778 580.974L547.778 554.455C546.055 553.422 544.354 551.963 542.783 550.154L532.626 567.804C537.323 573.531 542.525 578.028 547.778 580.974ZM547.778 520.488L547.778 493.356C540.86 489.819 533.918 489.015 527.984 491.678C526.328 492.422 524.82 493.405 523.463 494.599L538.745 521.156C539.269 520.696 539.852 520.318 540.491 520.031C542.681 519.048 545.225 519.282 547.778 520.488ZM521.501 549.6C524.204 555.66 527.476 561.136 531.092 565.868L541.249 548.219C540.023 546.525 538.911 544.607 537.975 542.508C537.891 542.32 537.809 542.133 537.73 541.945L520.248 546.645C520.644 547.63 521.062 548.615 521.501 549.6ZM555.747 527.624L566.109 509.618C569.587 514.243 572.735 519.56 575.351 525.424C575.889 526.631 576.394 527.838 576.868 529.045L559.165 533.804C559.07 533.578 558.973 533.352 558.872 533.126C557.974 531.113 556.914 529.266 555.747 527.624ZM519.415 544.49C516.307 536.114 514.737 527.816 514.625 520.317L535.354 532.324C535.508 534.688 536.019 537.222 536.902 539.789L519.415 544.49ZM559.984 535.962C561.034 539.052 561.545 542.093 561.543 544.841L582.219 556.818C582.394 548.977 580.914 540.147 577.682 531.205L559.984 535.962ZM582.099 559.402L561.382 547.401C560.98 550.49 559.829 553.03 557.98 554.582L573.029 580.734C578.358 576.275 581.44 568.64 582.099 559.402ZM514.647 517.676L535.335 529.66C535.476 527.068 536.099 524.785 537.179 523.034L521.78 496.275C517.357 501.235 514.931 508.801 514.647 517.676Z" fill="#4C4C4C"/>
</g>
<path fill-rule="evenodd" clip-rule="evenodd" d="M515.853 463.472L555.904 444.891L555.909 444.902C556.156 444.783 556.405 444.666 556.656 444.554C580.513 433.843 614.546 458.108 632.672 498.752C650.798 539.395 646.153 581.025 622.296 591.736C622.054 591.845 621.811 591.95 621.567 592.051L582.72 610.098L561.342 563.22C555.669 555.723 550.535 547.082 546.279 537.538C542.352 528.733 539.494 519.882 537.669 511.309L515.853 463.472Z" fill="black"/>
<path d="M506.121 556.861C524.234 597.472 558.257 621.712 582.114 611.002C605.971 600.291 610.628 558.687 592.515 518.076C574.403 477.464 539.356 451.039 515.499 461.749C491.642 472.459 488.009 516.25 506.121 556.861Z" fill="#2D2C2C"/>
<g filter="url(#filter3_i_284_4393)">
<ellipse cx="33.2996" cy="58.2115" rx="33.2996" ry="58.2115" transform="matrix(-0.907827 0.41954 0.394422 0.918899 556.113 470.047)" fill="url(#paint1_linear_284_4393)"/>
</g>
<g filter="url(#filter4_di_284_4393)">
<path fill-rule="evenodd" clip-rule="evenodd" d="M527.967 551.128C536.679 569.006 550.892 580.111 562.193 578.191L553.158 557.546C548.544 557.018 543.375 552.768 539.672 546.294L527.967 551.128ZM525.23 544.797C518.217 526.328 519.551 508.072 528.119 500.336L537.151 520.973C534.445 525.186 534.233 532.493 536.826 540.008L525.23 544.797ZM559.104 530.809C555.03 522.411 548.487 517.036 543.064 517.35L534.17 497.029C546.108 493.865 561.813 506.144 570.717 526.014L559.104 530.809ZM561.528 537.27L573.251 532.429C579.562 550.822 577.61 568.58 568.498 575.462L559.6 555.132C562.786 551.581 563.531 544.677 561.528 537.27Z" fill="#A9A8A8"/>
</g>
<path fill-rule="evenodd" clip-rule="evenodd" d="M214.889 312.906L250.181 303.776L250.187 303.799C250.411 303.737 250.636 303.679 250.863 303.623C271.832 298.475 295.874 323.255 304.563 358.97C313.252 394.685 303.296 427.811 282.327 432.959C282.018 433.034 281.709 433.104 281.399 433.166L247.432 441.973L237.011 400.641C233.533 393.725 230.659 385.968 228.626 377.612C226.751 369.904 225.745 362.318 225.529 355.107L214.889 312.906Z" fill="black"/>
<ellipse cx="39.1243" cy="66.4535" rx="39.1243" ry="66.4535" transform="matrix(-0.970456 0.238231 0.236561 0.972367 253.813 303.447)" fill="black"/>
<g filter="url(#filter5_i_284_4393)">
<ellipse cx="29.3447" cy="49.8428" rx="29.3447" ry="49.8428" transform="matrix(-0.970456 0.238231 0.236561 0.972367 247.154 321.758)" fill="url(#paint2_linear_284_4393)"/>
</g>
<g filter="url(#filter6_di_284_4393)">
<path fill-rule="evenodd" clip-rule="evenodd" d="M238.151 342.61C241.806 345.818 245.191 350.17 248.018 355.371L236.917 368.467C236.079 367.018 235.128 365.755 234.109 364.723L238.151 342.61ZM229.098 392.132C230.674 393.071 232.319 393.459 233.901 393.159L242.305 416.82C241.643 417.091 240.96 417.314 240.257 417.487C235.288 418.706 230.043 417.233 225.153 413.715L229.098 392.132ZM223.466 412.409L227.401 390.885C226.156 389.791 224.992 388.355 223.985 386.655L213.126 399.465C216.088 404.811 219.642 409.235 223.466 412.409ZM232.445 363.29L236.477 341.236C231.386 337.339 225.871 335.655 220.66 336.934C219.201 337.292 217.828 337.867 216.548 338.637L225.016 362.48C225.507 362.188 226.033 361.969 226.591 361.832C228.517 361.359 230.549 361.929 232.445 363.29ZM206.792 383.02C208.088 388.346 209.933 393.282 212.168 397.664L223.026 384.855C222.279 383.294 221.659 381.567 221.209 379.718C221.169 379.552 221.13 379.387 221.093 379.222L206.214 380.435C206.389 381.294 206.582 382.156 206.792 383.02ZM237.862 370.283L248.965 357.185C251.103 361.46 252.87 366.248 254.124 371.401C254.382 372.462 254.614 373.519 254.819 374.57L239.716 375.801C239.673 375.604 239.627 375.406 239.579 375.208C239.149 373.443 238.564 371.788 237.862 370.283ZM205.857 378.561C204.577 371.299 204.533 364.33 205.553 358.226L220.593 371.054C220.367 372.997 220.405 375.131 220.741 377.348L205.857 378.561ZM240.061 377.676C240.455 380.344 240.419 382.89 240.009 385.123L255.038 397.942C256.348 391.596 256.458 384.197 255.16 376.446L240.061 377.676ZM254.556 400.022L239.498 387.178C238.714 389.624 237.406 391.513 235.678 392.501L244.02 415.988C249.01 413.163 252.647 407.424 254.556 400.022ZM205.962 356.083L220.973 368.886C221.473 366.796 222.321 365.031 223.463 363.769L214.932 339.748C210.602 343.122 207.509 348.911 205.962 356.083Z" fill="#4C4C4C"/>
</g>
<path fill-rule="evenodd" clip-rule="evenodd" d="M214.772 313.836L250.065 304.707L250.067 304.714C250.289 304.653 250.512 304.594 250.737 304.539C271.706 299.391 295.749 324.171 304.437 359.886C313.126 395.601 303.17 428.727 282.201 433.875C282.004 433.923 281.807 433.969 281.61 434.012L247.315 442.903L236.896 401.58C233.413 394.659 230.536 386.893 228.501 378.528C226.623 370.811 225.616 363.216 225.403 355.997L214.772 313.836Z" fill="black"/>
<ellipse cx="39.559" cy="67.1919" rx="39.559" ry="67.1919" transform="matrix(-0.970456 0.238231 0.236561 0.972367 253.942 302.762)" fill="#2C2C2C"/>
<g filter="url(#filter7_i_284_4393)">
<g filter="url(#filter8_i_284_4393)">
<ellipse cx="27.5296" cy="48.1257" rx="27.5296" ry="48.1257" transform="matrix(-0.955804 0.291458 0.30431 0.953325 240.778 328.084)" fill="url(#paint3_linear_284_4393)"/>
</g>
<g filter="url(#filter9_di_284_4393)">
<path fill-rule="evenodd" clip-rule="evenodd" d="M209.576 390.136C214.69 405.691 225.059 416.614 234.57 416.757L229.51 398.768C225.827 397.637 222.136 393.549 219.849 387.925L209.576 390.136ZM207.999 384.462C204.375 368.592 207.588 354.096 215.528 349.061L220.591 367.059C217.919 370.088 216.918 375.899 218.167 382.274L207.999 384.462ZM237.657 378.081C235.264 370.699 230.466 365.411 225.937 364.905L220.966 347.232C231.205 346.399 242.754 358.578 247.791 375.9L237.657 378.081ZM238.929 383.82L249.169 381.617C252.175 397.305 248.476 411.266 240.162 415.476L235.193 397.81C238.237 395.441 239.675 390.038 238.929 383.82Z" fill="#A9A8A8"/>
</g>
</g>
<g filter="url(#filter10_ii_284_4393)">
<path fill-rule="evenodd" clip-rule="evenodd" d="M741.669 292.942C742.086 293.289 742.527 293.606 742.998 293.875C744.453 294.708 745.761 295.293 746.926 295.605C761.796 299.586 886.363 367.915 913.521 395.373C939.95 422.094 938.484 438.066 937.804 445.481C937.706 446.551 937.624 447.444 937.645 448.164C937.749 451.757 937.722 458.987 937.687 468.187C937.667 473.604 937.645 479.705 937.645 486.148L937.645 508.036C937.593 509.671 937.601 511.34 937.608 513.043C937.639 520.277 937.674 528.142 933.24 536.759C927.774 547.382 901.385 586.331 773.322 626.568C729.894 640.213 679.444 625.049 647.281 611.717C634.048 606.785 623.982 602.02 618.891 599.493C618.082 599.092 617.445 598.473 617.016 597.724C616.897 597.518 616.708 597.328 616.497 597.219C616.161 597.046 615.963 596.727 615.933 596.35C615.07 585.426 612.481 570.086 608.692 554.743C604.37 538.184 598.667 521.777 592.41 511.075C577.702 485.923 546.399 454.902 521.783 463.401C493.846 473.046 495.992 513.224 496.529 522.818C496.687 525.639 497.014 527.52 497.337 529.379C497.337 529.379 497.337 529.379 497.337 529.379C497.337 529.379 497.337 529.379 497.337 529.379C497.679 531.348 498.016 533.29 498.144 536.296C498.151 536.473 498.148 536.647 498.136 536.817C498.122 536.998 498.11 537.18 498.116 537.362C498.136 537.959 498.144 538.627 498.136 539.378C498.122 540.632 496.785 541.405 495.67 540.829C495.28 540.628 494.828 540.598 494.392 540.654C493.525 540.766 492.603 540.629 491.732 540.183L276.28 429.953C275.012 429.304 274.104 428.106 273.922 426.694C273.314 421.995 273.328 416.543 273.344 410.474C273.386 393.462 273.442 371.596 259.867 347.841C247.46 326.127 229.383 311.755 212.973 316.905C196.563 322.055 192.1 339.731 191.205 349.575C190.327 359.242 190.849 368.113 191.152 373.259V373.259V373.26C191.274 375.33 191.36 376.797 191.305 377.47C191.114 379.813 167.487 359.48 165.968 351.733C161.345 328.155 160.382 306.075 162.808 282.142C163.201 278.259 164.623 268.501 165.721 264.546C165.902 263.892 165.999 263.218 165.96 262.54C165.482 254.329 166.913 242.336 169.151 237.244C169.352 236.787 169.548 236.305 169.754 235.799C172.156 229.896 175.908 220.676 204.823 207.744C245.88 189.382 357.677 148.505 362.003 147.55C372.223 145.292 385.314 146.262 395.912 147.047C402.13 147.508 407.49 147.905 410.908 147.549C460.277 142.411 517.506 149.227 593.02 187.318C603.132 191.608 613.129 196.504 622.81 202.094C646.99 216.054 667.361 230.876 684.301 244.516C704.063 259.617 719.302 273.194 730.242 282.941C734.788 286.991 738.592 290.38 741.669 292.942Z" fill="url(#paint4_linear_284_4393)"/>
</g>
<g filter="url(#filter11_ddi_284_4393)">
<path d="M544.046 378.661C516.637 367.315 501.211 330.109 459.718 286.5C458.594 285.318 458.997 283.357 460.511 282.749L630.3 214.555C630.643 214.417 631.002 214.364 631.363 214.446C634.528 215.171 652.212 220.861 700.531 263.352C724.947 284.823 729.834 290.415 742.448 298.917C744.444 300.262 744.097 303.223 736.768 309.264C713.403 328.523 584.649 395.469 544.046 378.661Z" fill="url(#paint5_linear_284_4393)"/>
</g>
<g filter="url(#filter12_di_284_4393)">
<path d="M350.392 234.035C314.299 222.675 305.011 222.61 280.095 221.205C262.95 220.239 235.728 222.774 232.759 230.494C229.789 238.214 262.745 262.459 276.386 270.008C283.054 273.697 513.059 388.97 505.745 375.346C496.734 358.562 455.261 310.615 441.097 291.036C417.482 258.394 386.484 245.395 350.392 234.035Z" fill="url(#paint6_linear_284_4393)"/>
</g>
<g filter="url(#filter13_di_284_4393)">
<path d="M268.586 211.309L420.008 149.633C420.008 149.633 416.614 150.829 398.033 150.556C391.55 150.46 234.398 215.065 233.249 216.075L268.586 211.309Z" fill="url(#paint7_linear_284_4393)"/>
</g>
<g filter="url(#filter14_f_284_4393)">
<path d="M613.618 461.824C555.465 434.791 522.789 400.855 487.756 369.836C592.083 400.772 810.446 468.469 807.024 472.874C802.747 478.381 787.064 484.914 734.952 488.428C683.646 491.887 620.276 464.92 613.618 461.824Z" fill="url(#paint8_linear_284_4393)" fill-opacity="0.21"/>
</g>
<g filter="url(#filter15_f_284_4393)">
<path d="M838.175 332.786C834.871 330.069 793.352 287.038 762.265 265.616C787.961 315.764 846.545 424.765 851.993 424.22C858.804 423.538 889.965 417.702 899.144 396.499C908.181 375.624 842.306 336.183 838.175 332.786Z" fill="url(#paint9_linear_284_4393)" fill-opacity="0.13"/>
</g>
<g filter="url(#filter16_di_284_4393)">
<path d="M406.706 380.943C406.706 380.062 406.203 379.258 405.411 378.873L386.016 369.439C384.493 368.698 382.724 369.807 382.724 371.502L382.724 374.22C382.724 375.102 383.228 375.908 384.022 376.292L403.417 385.688C404.94 386.425 406.706 385.317 406.706 383.623L406.706 380.943Z" fill="#323232"/>
</g>
<g filter="url(#filter17_di_284_4393)">
<path d="M295.448 331.83C295.448 330.949 294.945 330.144 294.153 329.759L274.757 320.325C273.235 319.585 271.466 320.693 271.466 322.388L271.466 325.107C271.466 325.989 271.97 326.794 272.763 327.179L292.159 336.575C293.682 337.312 295.447 336.203 295.447 334.51L295.448 331.83Z" fill="#323232"/>
</g>
<g filter="url(#filter18_f_284_4393)">
<path d="M474.239 519.599L286.844 427.852C285.698 427.291 284.839 426.286 284.473 425.063C279.397 408.123 270.224 376.019 270.032 369.225C269.782 360.402 494.345 467.241 486.484 487.203C482.604 497.056 481.773 506.665 482.093 513.911C482.269 517.893 477.819 521.351 474.239 519.599Z" fill="url(#paint10_linear_284_4393)" fill-opacity="0.12"/>
</g>
<path d="M657.298 353.23L524.756 256.662C509.576 260.773 475.032 276.239 468.449 278.712C459.921 281.916 458.503 283.701 458.503 283.701C458.503 286.276 459.818 287.403 463.958 291.427C469.893 297.196 472.406 299.851 487.11 318.627C508.285 345.666 524.397 370.824 539.846 376.861C552.137 381.664 571.306 385.864 598.585 376.861C622.969 368.814 637.978 359.721 657.298 353.23Z" fill="#C4C4C4" fill-opacity="0.2"/>
<g opacity="0.17" filter="url(#filter19_f_284_4393)">
<path d="M892.335 429.742C856.222 458.32 775.884 499.171 740.013 505.401" stroke="url(#paint11_linear_284_4393)" stroke-width="75.7446" stroke-linecap="round" stroke-linejoin="round"/>
</g>
<g filter="url(#filter20_ddii_284_4393)">
<path d="M919.908 440.165C926.863 430.772 924.948 423.255 923.92 411.469C923.889 411.114 923.805 410.739 923.697 410.399C920.747 401.188 933.876 420.513 935.251 433.894C935.706 438.332 935.421 440.578 935.005 444.674C934.815 446.548 930.961 457.987 931.533 460.457C932.105 462.926 930.848 479.947 930.935 482.52C931.021 485.092 920.281 504.233 892.065 522.694C868.626 538.03 834.972 548.096 831.522 548.592C828.072 549.089 824.691 537.513 822.186 536.873C815.632 535.199 796.271 542.313 789.043 544.131C780.609 546.251 760.931 551.141 739.424 548.378C712.822 544.96 708.751 541.936 684.296 528.617C669.12 520.351 658.065 504.797 653.239 494.999C651.811 492.1 654.388 489.506 657.454 490.524C674.648 496.237 709.268 508.519 748.296 512.521C807.003 518.541 853.373 490.637 860.016 486.626C887.942 469.764 902.609 463.529 919.908 440.165Z" fill="#272727"/>
</g>
<mask id="mask0_284_4393" style="mask-type:alpha" maskUnits="userSpaceOnUse" x="652" y="413" width="287" height="137">
<path d="M919.906 440.048C924.955 433.219 925.646 425.365 924.681 418.233C924.055 413.611 928.56 411.107 930.844 415.173C935.473 423.413 937.499 430.354 938.104 434.298C938.561 438.735 938.454 441.553 938.04 445.649C937.851 447.523 930.97 457.862 931.543 460.331C932.117 462.801 930.871 479.822 930.959 482.395C931.048 484.967 920.32 504.115 892.116 522.594C868.686 537.945 835.039 548.033 831.589 548.531C828.139 549.03 824.751 537.456 822.246 536.818C815.691 535.149 796.334 542.275 789.107 544.097C780.675 546.223 760.999 551.125 739.49 548.376C712.886 544.975 708.814 541.953 684.35 528.65C669.169 520.394 658.104 504.847 653.272 495.052C651.842 492.154 654.417 489.558 657.484 490.575C674.681 496.277 709.309 508.536 748.34 512.513C807.051 518.495 853.403 490.562 860.044 486.546C887.958 469.667 902.622 463.423 919.906 440.048Z" fill="#999999"/>
</mask>
<g mask="url(#mask0_284_4393)">
<g filter="url(#filter21_d_284_4393)">
<path d="M694.961 498.296L773.539 499.48C773.753 500.106 774.02 500.996 774.24 502.074C774.699 504.313 774.946 507.283 774.183 510.352C773.429 513.385 771.675 516.585 768.002 519.335C764.301 522.107 758.566 524.484 749.767 525.665C744.546 526.366 737.318 526.34 729.891 524.931C722.458 523.52 714.95 520.747 709.06 516.051C705.881 513.516 701.966 508.496 698.767 503.951C697.251 501.797 695.927 499.795 694.961 498.296Z" stroke="white" stroke-opacity="0.9" stroke-width="3.41524"/>
</g>
<g filter="url(#filter22_d_284_4393)">
<path d="M924.048 415.756C924.752 417.022 925.603 418.793 926.282 420.929C927.709 425.417 928.358 431.445 925.381 437.854C924.539 439.667 923.352 440.853 922.165 441.333C921.075 441.774 919.753 441.721 918.229 440.568C917.115 439.725 915.589 439.397 914.224 439.26C912.797 439.118 911.243 439.158 909.839 439.265C909.362 439.301 908.897 439.346 908.454 439.394L924.048 415.756Z" stroke="white" stroke-opacity="0.9" stroke-width="3.41524"/>
</g>
</g>
<defs>
<filter id="filter0_f_284_4393" x="125.752" y="296.713" width="832.481" height="381.99" filterUnits="userSpaceOnUse" color-interpolation-filters="sRGB">
<feFlood flood-opacity="0" result="BackgroundImageFix"/>
<feBlend mode="normal" in="SourceGraphic" in2="BackgroundImageFix" result="shape"/>
<feGaussianBlur stdDeviation="5" result="effect1_foregroundBlur_284_4393"/>
</filter>
<filter id="filter1_i_284_4393" x="507.736" y="480.459" width="81.3613" height="114.104" filterUnits="userSpaceOnUse" color-interpolation-filters="sRGB">
<feFlood flood-opacity="0" result="BackgroundImageFix"/>
<feBlend mode="normal" in="SourceGraphic" in2="BackgroundImageFix" result="shape"/>
<feColorMatrix in="SourceAlpha" type="matrix" values="0 0 0 0 0 0 0 0 0 0 0 0 0 0 0 0 0 0 127 0" result="hardAlpha"/>
<feMorphology radius="1.14765" operator="erode" in="SourceAlpha" result="effect1_innerShadow_284_4393"/>
<feOffset/>
<feGaussianBlur stdDeviation="0.573823"/>
<feComposite in2="hardAlpha" operator="arithmetic" k2="-1" k3="1"/>
<feColorMatrix type="matrix" values="0 0 0 0 0 0 0 0 0 0 0 0 0 0 0 0 0 0 0.25 0"/>
<feBlend mode="normal" in2="shape" result="effect1_innerShadow_284_4393"/>
</filter>
<filter id="filter2_di_284_4393" x="511.182" y="489.87" width="71.7394" height="97.349" filterUnits="userSpaceOnUse" color-interpolation-filters="sRGB">
<feFlood flood-opacity="0" result="BackgroundImageFix"/>
<feColorMatrix in="SourceAlpha" type="matrix" values="0 0 0 0 0 0 0 0 0 0 0 0 0 0 0 0 0 0 127 0" result="hardAlpha"/>
<feOffset dy="0.459058"/>
<feGaussianBlur stdDeviation="0.344294"/>
<feColorMatrix type="matrix" values="0 0 0 0 1 0 0 0 0 1 0 0 0 0 1 0 0 0 0.41 0"/>
<feBlend mode="normal" in2="BackgroundImageFix" result="effect1_dropShadow_284_4393"/>
<feBlend mode="normal" in="SourceGraphic" in2="effect1_dropShadow_284_4393" result="shape"/>
<feColorMatrix in="SourceAlpha" type="matrix" values="0 0 0 0 0 0 0 0 0 0 0 0 0 0 0 0 0 0 127 0" result="hardAlpha"/>
<feOffset dx="-3.44294" dy="2.29529"/>
<feGaussianBlur stdDeviation="1.72147"/>
<feComposite in2="hardAlpha" operator="arithmetic" k2="-1" k3="1"/>
<feColorMatrix type="matrix" values="0 0 0 0 0 0 0 0 0 0 0 0 0 0 0 0 0 0 0.25 0"/>
<feBlend mode="normal" in2="shape" result="effect2_innerShadow_284_4393"/>
</filter>
<filter id="filter3_i_284_4393" x="510.879" y="482.209" width="75.9258" height="110.598" filterUnits="userSpaceOnUse" color-interpolation-filters="sRGB">
<feFlood flood-opacity="0" result="BackgroundImageFix"/>
<feBlend mode="normal" in="SourceGraphic" in2="BackgroundImageFix" result="shape"/>
<feColorMatrix in="SourceAlpha" type="matrix" values="0 0 0 0 0 0 0 0 0 0 0 0 0 0 0 0 0 0 127 0" result="hardAlpha"/>
<feMorphology radius="2.84604" operator="erode" in="SourceAlpha" result="effect1_innerShadow_284_4393"/>
<feOffset/>
<feGaussianBlur stdDeviation="1.42302"/>
<feComposite in2="hardAlpha" operator="arithmetic" k2="-1" k3="1"/>
<feColorMatrix type="matrix" values="0 0 0 0 0 0 0 0 0 0 0 0 0 0 0 0 0 0 0.25 0"/>
<feBlend mode="normal" in2="shape" result="effect1_innerShadow_284_4393"/>
</filter>
<filter id="filter4_di_284_4393" x="517.085" y="496.291" width="61.0587" height="84.5422" filterUnits="userSpaceOnUse" color-interpolation-filters="sRGB">
<feFlood flood-opacity="0" result="BackgroundImageFix"/>
<feColorMatrix in="SourceAlpha" type="matrix" values="0 0 0 0 0 0 0 0 0 0 0 0 0 0 0 0 0 0 127 0" result="hardAlpha"/>
<feOffset dy="0.970617"/>
<feGaussianBlur stdDeviation="0.606636"/>
<feColorMatrix type="matrix" values="0 0 0 0 1 0 0 0 0 1 0 0 0 0 1 0 0 0 0.59 0"/>
<feBlend mode="normal" in2="BackgroundImageFix" result="effect1_dropShadow_284_4393"/>
<feBlend mode="normal" in="SourceGraphic" in2="effect1_dropShadow_284_4393" result="shape"/>
<feColorMatrix in="SourceAlpha" type="matrix" values="0 0 0 0 0 0 0 0 0 0 0 0 0 0 0 0 0 0 127 0" result="hardAlpha"/>
<feOffset dx="-3.63981" dy="2.42654"/>
<feGaussianBlur stdDeviation="1.81991"/>
<feComposite in2="hardAlpha" operator="arithmetic" k2="-1" k3="1"/>
<feColorMatrix type="matrix" values="0 0 0 0 0 0 0 0 0 0 0 0 0 0 0 0 0 0 0.25 0"/>
<feBlend mode="normal" in2="shape" result="effect2_innerShadow_284_4393"/>
</filter>
<filter id="filter5_i_284_4393" x="199.637" y="328.24" width="61.6606" height="97.9473" filterUnits="userSpaceOnUse" color-interpolation-filters="sRGB">
<feFlood flood-opacity="0" result="BackgroundImageFix"/>
<feBlend mode="normal" in="SourceGraphic" in2="BackgroundImageFix" result="shape"/>
<feColorMatrix in="SourceAlpha" type="matrix" values="0 0 0 0 0 0 0 0 0 0 0 0 0 0 0 0 0 0 127 0" result="hardAlpha"/>
<feMorphology radius="0.947741" operator="erode" in="SourceAlpha" result="effect1_innerShadow_284_4393"/>
<feOffset/>
<feGaussianBlur stdDeviation="0.47387"/>
<feComposite in2="hardAlpha" operator="arithmetic" k2="-1" k3="1"/>
<feColorMatrix type="matrix" values="0 0 0 0 0 0 0 0 0 0 0 0 0 0 0 0 0 0 0.25 0"/>
<feBlend mode="normal" in2="shape" result="effect1_innerShadow_284_4393"/>
</filter>
<filter id="filter6_di_284_4393" x="201.994" y="336.322" width="54.6536" height="83.4815" filterUnits="userSpaceOnUse" color-interpolation-filters="sRGB">
<feFlood flood-opacity="0" result="BackgroundImageFix"/>
<feColorMatrix in="SourceAlpha" type="matrix" values="0 0 0 0 0 0 0 0 0 0 0 0 0 0 0 0 0 0 127 0" result="hardAlpha"/>
<feOffset dy="0.379096"/>
<feGaussianBlur stdDeviation="0.284322"/>
<feColorMatrix type="matrix" values="0 0 0 0 1 0 0 0 0 1 0 0 0 0 1 0 0 0 0.41 0"/>
<feBlend mode="normal" in2="BackgroundImageFix" result="effect1_dropShadow_284_4393"/>
<feBlend mode="normal" in="SourceGraphic" in2="effect1_dropShadow_284_4393" result="shape"/>
<feColorMatrix in="SourceAlpha" type="matrix" values="0 0 0 0 0 0 0 0 0 0 0 0 0 0 0 0 0 0 127 0" result="hardAlpha"/>
<feOffset dx="-2.84322" dy="1.89548"/>
<feGaussianBlur stdDeviation="1.42161"/>
<feComposite in2="hardAlpha" operator="arithmetic" k2="-1" k3="1"/>
<feColorMatrix type="matrix" values="0 0 0 0 0 0 0 0 0 0 0 0 0 0 0 0 0 0 0.25 0"/>
<feBlend mode="normal" in2="shape" result="effect2_innerShadow_284_4393"/>
</filter>
<filter id="filter7_i_284_4393" x="198.991" y="335.404" width="60.2388" height="93.166" filterUnits="userSpaceOnUse" color-interpolation-filters="sRGB">
<feFlood flood-opacity="0" result="BackgroundImageFix"/>
<feBlend mode="normal" in="SourceGraphic" in2="BackgroundImageFix" result="shape"/>
<feColorMatrix in="SourceAlpha" type="matrix" values="0 0 0 0 0 0 0 0 0 0 0 0 0 0 0 0 0 0 127 0" result="hardAlpha"/>
<feMorphology radius="2.84604" operator="erode" in="SourceAlpha" result="effect1_innerShadow_284_4393"/>
<feOffset/>
<feGaussianBlur stdDeviation="1.42302"/>
<feComposite in2="hardAlpha" operator="arithmetic" k2="-1" k3="1"/>
<feColorMatrix type="matrix" values="0 0 0 0 0 0 0 0 0 0 0 0 0 0 0 0 0 0 0.25 0"/>
<feBlend mode="normal" in2="shape" result="effect1_innerShadow_284_4393"/>
</filter>
<filter id="filter8_i_284_4393" x="198.991" y="335.404" width="60.2388" height="93.166" filterUnits="userSpaceOnUse" color-interpolation-filters="sRGB">
<feFlood flood-opacity="0" result="BackgroundImageFix"/>
<feBlend mode="normal" in="SourceGraphic" in2="BackgroundImageFix" result="shape"/>
<feColorMatrix in="SourceAlpha" type="matrix" values="0 0 0 0 0 0 0 0 0 0 0 0 0 0 0 0 0 0 127 0" result="hardAlpha"/>
<feMorphology radius="0.852955" operator="erode" in="SourceAlpha" result="effect1_innerShadow_284_4393"/>
<feOffset/>
<feGaussianBlur stdDeviation="0.426477"/>
<feComposite in2="hardAlpha" operator="arithmetic" k2="-1" k3="1"/>
<feColorMatrix type="matrix" values="0 0 0 0 0 0 0 0 0 0 0 0 0 0 0 0 0 0 0.25 0"/>
<feBlend mode="normal" in2="shape" result="effect1_innerShadow_284_4393"/>
</filter>
<filter id="filter9_di_284_4393" x="202.877" y="346.949" width="48.5416" height="72.2356" filterUnits="userSpaceOnUse" color-interpolation-filters="sRGB">
<feFlood flood-opacity="0" result="BackgroundImageFix"/>
<feColorMatrix in="SourceAlpha" type="matrix" values="0 0 0 0 0 0 0 0 0 0 0 0 0 0 0 0 0 0 127 0" result="hardAlpha"/>
<feOffset dy="0.970618"/>
<feGaussianBlur stdDeviation="0.606636"/>
<feColorMatrix type="matrix" values="0 0 0 0 1 0 0 0 0 1 0 0 0 0 1 0 0 0 0.59 0"/>
<feBlend mode="normal" in2="BackgroundImageFix" result="effect1_dropShadow_284_4393"/>
<feBlend mode="normal" in="SourceGraphic" in2="effect1_dropShadow_284_4393" result="shape"/>
<feColorMatrix in="SourceAlpha" type="matrix" values="0 0 0 0 0 0 0 0 0 0 0 0 0 0 0 0 0 0 127 0" result="hardAlpha"/>
<feOffset dx="-3.63982" dy="2.42654"/>
<feGaussianBlur stdDeviation="1.81991"/>
<feComposite in2="hardAlpha" operator="arithmetic" k2="-1" k3="1"/>
<feColorMatrix type="matrix" values="0 0 0 0 0 0 0 0 0 0 0 0 0 0 0 0 0 0 0.25 0"/>
<feBlend mode="normal" in2="shape" result="effect2_innerShadow_284_4393"/>
</filter>
<filter id="filter10_ii_284_4393" x="161.518" y="123.279" width="793.639" height="508.647" filterUnits="userSpaceOnUse" color-interpolation-filters="sRGB">
<feFlood flood-opacity="0" result="BackgroundImageFix"/>
<feBlend mode="normal" in="SourceGraphic" in2="BackgroundImageFix" result="shape"/>
<feColorMatrix in="SourceAlpha" type="matrix" values="0 0 0 0 0 0 0 0 0 0 0 0 0 0 0 0 0 0 127 0" result="hardAlpha"/>
<feOffset dx="17.0762" dy="-22.7683"/>
<feGaussianBlur stdDeviation="68.3049"/>
<feComposite in2="hardAlpha" operator="arithmetic" k2="-1" k3="1"/>
<feColorMatrix type="matrix" values="0 0 0 0 0 0 0 0 0 0 0 0 0 0 0 0 0 0 0.07 0"/>
<feBlend mode="normal" in2="shape" result="effect1_innerShadow_284_4393"/>
<feColorMatrix in="SourceAlpha" type="matrix" values="0 0 0 0 0 0 0 0 0 0 0 0 0 0 0 0 0 0 127 0" result="hardAlpha"/>
<feOffset dy="-2.84604"/>
<feGaussianBlur stdDeviation="5.69207"/>
<feComposite in2="hardAlpha" operator="arithmetic" k2="-1" k3="1"/>
<feColorMatrix type="matrix" values="0 0 0 0 0 0 0 0 0 0 0 0 0 0 0 0 0 0 0.09 0"/>
<feBlend mode="normal" in2="effect1_innerShadow_284_4393" result="effect2_innerShadow_284_4393"/>
</filter>
<filter id="filter11_ddi_284_4393" x="454.484" y="210.963" width="291.303" height="173.821" filterUnits="userSpaceOnUse" color-interpolation-filters="sRGB">
<feFlood flood-opacity="0" result="BackgroundImageFix"/>
<feColorMatrix in="SourceAlpha" type="matrix" values="0 0 0 0 0 0 0 0 0 0 0 0 0 0 0 0 0 0 127 0" result="hardAlpha"/>
<feOffset dx="-2.29529" dy="1.14765"/>
<feGaussianBlur stdDeviation="1.14765"/>
<feColorMatrix type="matrix" values="0 0 0 0 1 0 0 0 0 1 0 0 0 0 1 0 0 0 0.28 0"/>
<feBlend mode="normal" in2="BackgroundImageFix" result="effect1_dropShadow_284_4393"/>
<feColorMatrix in="SourceAlpha" type="matrix" values="0 0 0 0 0 0 0 0 0 0 0 0 0 0 0 0 0 0 127 0" result="hardAlpha"/>
<feOffset dy="-1.14765"/>
<feGaussianBlur stdDeviation="1.14765"/>
<feColorMatrix type="matrix" values="0 0 0 0 1 0 0 0 0 1 0 0 0 0 1 0 0 0 0.56 0"/>
<feBlend mode="normal" in2="effect1_dropShadow_284_4393" result="effect2_dropShadow_284_4393"/>
<feBlend mode="normal" in="SourceGraphic" in2="effect2_dropShadow_284_4393" result="shape"/>
<feColorMatrix in="SourceAlpha" type="matrix" values="0 0 0 0 0 0 0 0 0 0 0 0 0 0 0 0 0 0 127 0" result="hardAlpha"/>
<feOffset dx="-1.14765" dy="3.44294"/>
<feGaussianBlur stdDeviation="1.72147"/>
<feComposite in2="hardAlpha" operator="arithmetic" k2="-1" k3="1"/>
<feColorMatrix type="matrix" values="0 0 0 0 0 0 0 0 0 0 0 0 0 0 0 0 0 0 0.75 0"/>
<feBlend mode="normal" in2="shape" result="effect3_innerShadow_284_4393"/>
</filter>
<filter id="filter12_di_284_4393" x="227.98" y="221.01" width="279.123" height="160.046" filterUnits="userSpaceOnUse" color-interpolation-filters="sRGB">
<feFlood flood-opacity="0" result="BackgroundImageFix"/>
<feColorMatrix in="SourceAlpha" type="matrix" values="0 0 0 0 0 0 0 0 0 0 0 0 0 0 0 0 0 0 127 0" result="hardAlpha"/>
<feOffset dy="1.18682"/>
<feGaussianBlur stdDeviation="0.593408"/>
<feColorMatrix type="matrix" values="0 0 0 0 0.925374 0 0 0 0 0.925374 0 0 0 0 0.925374 0 0 0 0.37 0"/>
<feBlend mode="normal" in2="BackgroundImageFix" result="effect1_dropShadow_284_4393"/>
<feBlend mode="normal" in="SourceGraphic" in2="effect1_dropShadow_284_4393" result="shape"/>
<feColorMatrix in="SourceAlpha" type="matrix" values="0 0 0 0 0 0 0 0 0 0 0 0 0 0 0 0 0 0 127 0" result="hardAlpha"/>
<feOffset dx="-4.59058" dy="5.73823"/>
<feGaussianBlur stdDeviation="2.29529"/>
<feComposite in2="hardAlpha" operator="arithmetic" k2="-1" k3="1"/>
<feColorMatrix type="matrix" values="0 0 0 0 0 0 0 0 0 0 0 0 0 0 0 0 0 0 0.8 0"/>
<feBlend mode="normal" in2="shape" result="effect2_innerShadow_284_4393"/>
</filter>
<filter id="filter13_di_284_4393" x="228.659" y="149.633" width="192.536" height="71.032" filterUnits="userSpaceOnUse" color-interpolation-filters="sRGB">
<feFlood flood-opacity="0" result="BackgroundImageFix"/>
<feColorMatrix in="SourceAlpha" type="matrix" values="0 0 0 0 0 0 0 0 0 0 0 0 0 0 0 0 0 0 127 0" result="hardAlpha"/>
<feOffset dy="1.18682"/>
<feGaussianBlur stdDeviation="0.593408"/>
<feColorMatrix type="matrix" values="0 0 0 0 0.925374 0 0 0 0 0.925374 0 0 0 0 0.925374 0 0 0 0.37 0"/>
<feBlend mode="normal" in2="BackgroundImageFix" result="effect1_dropShadow_284_4393"/>
<feBlend mode="normal" in="SourceGraphic" in2="effect1_dropShadow_284_4393" result="shape"/>
<feColorMatrix in="SourceAlpha" type="matrix" values="0 0 0 0 0 0 0 0 0 0 0 0 0 0 0 0 0 0 127 0" result="hardAlpha"/>
<feOffset dx="-4.59058" dy="5.73823"/>
<feGaussianBlur stdDeviation="2.29529"/>
<feComposite in2="hardAlpha" operator="arithmetic" k2="-1" k3="1"/>
<feColorMatrix type="matrix" values="0 0 0 0 0 0 0 0 0 0 0 0 0 0 0 0 0 0 0.8 0"/>
<feBlend mode="normal" in2="shape" result="effect2_innerShadow_284_4393"/>
</filter>
<filter id="filter14_f_284_4393" x="455.622" y="337.702" width="383.576" height="183.167" filterUnits="userSpaceOnUse" color-interpolation-filters="sRGB">
<feFlood flood-opacity="0" result="BackgroundImageFix"/>
<feBlend mode="normal" in="SourceGraphic" in2="BackgroundImageFix" result="shape"/>
<feGaussianBlur stdDeviation="16.067" result="effect1_foregroundBlur_284_4393"/>
</filter>
<filter id="filter15_f_284_4393" x="741.608" y="244.958" width="179.045" height="199.923" filterUnits="userSpaceOnUse" color-interpolation-filters="sRGB">
<feFlood flood-opacity="0" result="BackgroundImageFix"/>
<feBlend mode="normal" in="SourceGraphic" in2="BackgroundImageFix" result="shape"/>
<feGaussianBlur stdDeviation="10.3288" result="effect1_foregroundBlur_284_4393"/>
</filter>
<filter id="filter16_di_284_4393" x="382.155" y="368.067" width="25.1203" height="20.6993" filterUnits="userSpaceOnUse" color-interpolation-filters="sRGB">
<feFlood flood-opacity="0" result="BackgroundImageFix"/>
<feColorMatrix in="SourceAlpha" type="matrix" values="0 0 0 0 0 0 0 0 0 0 0 0 0 0 0 0 0 0 127 0" result="hardAlpha"/>
<feOffset dy="-0.569207"/>
<feGaussianBlur stdDeviation="0.284604"/>
<feColorMatrix type="matrix" values="0 0 0 0 0.78755 0 0 0 0 0.78755 0 0 0 0 0.78755 0 0 0 0.19 0"/>
<feBlend mode="normal" in2="BackgroundImageFix" result="effect1_dropShadow_284_4393"/>
<feBlend mode="normal" in="SourceGraphic" in2="effect1_dropShadow_284_4393" result="shape"/>
<feColorMatrix in="SourceAlpha" type="matrix" values="0 0 0 0 0 0 0 0 0 0 0 0 0 0 0 0 0 0 127 0" result="hardAlpha"/>
<feOffset dy="2.84604"/>
<feGaussianBlur stdDeviation="1.42302"/>
<feComposite in2="hardAlpha" operator="arithmetic" k2="-1" k3="1"/>
<feColorMatrix type="matrix" values="0 0 0 0 0 0 0 0 0 0 0 0 0 0 0 0 0 0 0.74 0"/>
<feBlend mode="normal" in2="shape" result="effect2_innerShadow_284_4393"/>
</filter>
<filter id="filter17_di_284_4393" x="270.897" y="318.953" width="25.1203" height="20.6993" filterUnits="userSpaceOnUse" color-interpolation-filters="sRGB">
<feFlood flood-opacity="0" result="BackgroundImageFix"/>
<feColorMatrix in="SourceAlpha" type="matrix" values="0 0 0 0 0 0 0 0 0 0 0 0 0 0 0 0 0 0 127 0" result="hardAlpha"/>
<feOffset dy="-0.569207"/>
<feGaussianBlur stdDeviation="0.284604"/>
<feColorMatrix type="matrix" values="0 0 0 0 0.78755 0 0 0 0 0.78755 0 0 0 0 0.78755 0 0 0 0.19 0"/>
<feBlend mode="normal" in2="BackgroundImageFix" result="effect1_dropShadow_284_4393"/>
<feBlend mode="normal" in="SourceGraphic" in2="effect1_dropShadow_284_4393" result="shape"/>
<feColorMatrix in="SourceAlpha" type="matrix" values="0 0 0 0 0 0 0 0 0 0 0 0 0 0 0 0 0 0 127 0" result="hardAlpha"/>
<feOffset dy="2.84604"/>
<feGaussianBlur stdDeviation="1.42302"/>
<feComposite in2="hardAlpha" operator="arithmetic" k2="-1" k3="1"/>
<feColorMatrix type="matrix" values="0 0 0 0 0 0 0 0 0 0 0 0 0 0 0 0 0 0 0.74 0"/>
<feBlend mode="normal" in2="shape" result="effect2_innerShadow_284_4393"/>
</filter>
<filter id="filter18_f_284_4393" x="263.146" y="361.823" width="230.426" height="165.129" filterUnits="userSpaceOnUse" color-interpolation-filters="sRGB">
<feFlood flood-opacity="0" result="BackgroundImageFix"/>
<feBlend mode="normal" in="SourceGraphic" in2="BackgroundImageFix" result="shape"/>
<feGaussianBlur stdDeviation="3.44294" result="effect1_foregroundBlur_284_4393"/>
</filter>
<filter id="filter19_f_284_4393" x="690.658" y="380.393" width="251.028" height="174.363" filterUnits="userSpaceOnUse" color-interpolation-filters="sRGB">
<feFlood flood-opacity="0" result="BackgroundImageFix"/>
<feBlend mode="normal" in="SourceGraphic" in2="BackgroundImageFix" result="shape"/>
<feGaussianBlur stdDeviation="5.73823" result="effect1_foregroundBlur_284_4393"/>
</filter>
<filter id="filter20_ddii_284_4393" x="651.406" y="405.855" width="285.506" height="153.194" filterUnits="userSpaceOnUse" color-interpolation-filters="sRGB">
<feFlood flood-opacity="0" result="BackgroundImageFix"/>
<feColorMatrix in="SourceAlpha" type="matrix" values="0 0 0 0 0 0 0 0 0 0 0 0 0 0 0 0 0 0 127 0" result="hardAlpha"/>
<feOffset dy="1.07131"/>
<feGaussianBlur stdDeviation="0.714204"/>
<feColorMatrix type="matrix" values="0 0 0 0 0 0 0 0 0 0 0 0 0 0 0 0 0 0 0.57 0"/>
<feBlend mode="normal" in2="BackgroundImageFix" result="effect1_dropShadow_284_4393"/>
<feColorMatrix in="SourceAlpha" type="matrix" values="0 0 0 0 0 0 0 0 0 0 0 0 0 0 0 0 0 0 127 0" result="hardAlpha"/>
<feOffset dy="-0.714204"/>
<feGaussianBlur stdDeviation="0.714204"/>
<feColorMatrix type="matrix" values="0 0 0 0 0 0 0 0 0 0 0 0 0 0 0 0 0 0 1 0"/>
<feBlend mode="normal" in2="effect1_dropShadow_284_4393" result="effect2_dropShadow_284_4393"/>
<feBlend mode="normal" in="SourceGraphic" in2="effect2_dropShadow_284_4393" result="shape"/>
<feColorMatrix in="SourceAlpha" type="matrix" values="0 0 0 0 0 0 0 0 0 0 0 0 0 0 0 0 0 0 127 0" result="hardAlpha"/>
<feOffset dy="9.84614"/>
<feGaussianBlur stdDeviation="10.0343"/>
<feComposite in2="hardAlpha" operator="arithmetic" k2="-1" k3="1"/>
<feColorMatrix type="matrix" values="0 0 0 0 0 0 0 0 0 0 0 0 0 0 0 0 0 0 1 0"/>
<feBlend mode="normal" in2="shape" result="effect3_innerShadow_284_4393"/>
<feColorMatrix in="SourceAlpha" type="matrix" values="0 0 0 0 0 0 0 0 0 0 0 0 0 0 0 0 0 0 127 0" result="hardAlpha"/>
<feOffset dy="-1.07294"/>
<feGaussianBlur stdDeviation="1.07294"/>
<feComposite in2="hardAlpha" operator="arithmetic" k2="-1" k3="1"/>
<feColorMatrix type="matrix" values="0 0 0 0 0 0 0 0 0 0 0 0 0 0 0 0 0 0 1 0"/>
<feBlend mode="normal" in2="effect3_innerShadow_284_4393" result="effect4_innerShadow_284_4393"/>
</filter>
<filter id="filter21_d_284_4393" x="691.561" y="496.541" width="87.3722" height="34.1095" filterUnits="userSpaceOnUse" color-interpolation-filters="sRGB">
<feFlood flood-opacity="0" result="BackgroundImageFix"/>
<feColorMatrix in="SourceAlpha" type="matrix" values="0 0 0 0 0 0 0 0 0 0 0 0 0 0 0 0 0 0 127 0" result="hardAlpha"/>
<feOffset dx="1.13841" dy="1.41412"/>
<feGaussianBlur stdDeviation="0.707062"/>
<feColorMatrix type="matrix" values="0 0 0 0 1 0 0 0 0 1 0 0 0 0 1 0 0 0 0.24 0"/>
<feBlend mode="normal" in2="BackgroundImageFix" result="effect1_dropShadow_284_4393"/>
<feBlend mode="normal" in="SourceGraphic" in2="effect1_dropShadow_284_4393" result="shape"/>
</filter>
<filter id="filter22_d_284_4393" x="904.641" y="412.609" width="27.1036" height="33.5157" filterUnits="userSpaceOnUse" color-interpolation-filters="sRGB">
<feFlood flood-opacity="0" result="BackgroundImageFix"/>
<feColorMatrix in="SourceAlpha" type="matrix" values="0 0 0 0 0 0 0 0 0 0 0 0 0 0 0 0 0 0 127 0" result="hardAlpha"/>
<feOffset dx="1.13841" dy="1.41412"/>
<feGaussianBlur stdDeviation="0.707062"/>
<feColorMatrix type="matrix" values="0 0 0 0 1 0 0 0 0 1 0 0 0 0 1 0 0 0 0.24 0"/>
<feBlend mode="normal" in2="BackgroundImageFix" result="effect1_dropShadow_284_4393"/>
<feBlend mode="normal" in="SourceGraphic" in2="effect1_dropShadow_284_4393" result="shape"/>
</filter>
<linearGradient id="paint0_linear_284_4393" x1="83.8095" y1="92.0798" x2="87.9832" y2="30.004" gradientUnits="userSpaceOnUse">
<stop stop-color="#3F3F3F"/>
<stop offset="1" stop-color="#5C5C5C"/>
</linearGradient>
<linearGradient id="paint1_linear_284_4393" x1="78.5465" y1="88.8003" x2="82.6871" y2="28.9512" gradientUnits="userSpaceOnUse">
<stop stop-color="#AAAAAA"/>
<stop offset="1" stop-color="#C2C2C2"/>
</linearGradient>
<linearGradient id="paint2_linear_284_4393" x1="69.2178" y1="76.0341" x2="72.6635" y2="24.7755" gradientUnits="userSpaceOnUse">
<stop stop-color="#3F3F3F"/>
<stop offset="1" stop-color="#5C5C5C"/>
</linearGradient>
<linearGradient id="paint3_linear_284_4393" x1="64.9362" y1="73.4147" x2="68.3596" y2="23.9351" gradientUnits="userSpaceOnUse">
<stop stop-color="#AAAAAA"/>
<stop offset="1" stop-color="#C2C2C2"/>
</linearGradient>
<linearGradient id="paint4_linear_284_4393" x1="599.148" y1="609.142" x2="955.069" y2="175.446" gradientUnits="userSpaceOnUse">
<stop stop-color="#DE525E"/>
<stop offset="0.605" stop-color="#920612"/>
<stop offset="1" stop-color="#70010A"/>
</linearGradient>
<linearGradient id="paint5_linear_284_4393" x1="632.509" y1="67.2651" x2="429.725" y2="259.108" gradientUnits="userSpaceOnUse">
<stop stop-color="#E8EAE9"/>
<stop offset="0.498386" stop-color="#707072"/>
<stop offset="1" stop-color="#2F3032"/>
</linearGradient>
<linearGradient id="paint6_linear_284_4393" x1="299.591" y1="709.969" x2="493.33" y2="355.929" gradientUnits="userSpaceOnUse">
<stop stop-color="#E8EAE9"/>
<stop offset="0.498386" stop-color="#707072"/>
<stop offset="1" stop-color="#2F3032"/>
</linearGradient>
<linearGradient id="paint7_linear_284_4393" x1="216.963" y1="344.067" x2="324.989" y2="185.988" gradientUnits="userSpaceOnUse">
<stop stop-color="#E8EAE9"/>
<stop offset="0.498386" stop-color="#707072"/>
<stop offset="1" stop-color="#2F3032"/>
</linearGradient>
<linearGradient id="paint8_linear_284_4393" x1="636.858" y1="495.623" x2="662.028" y2="422.056" gradientUnits="userSpaceOnUse">
<stop stop-color="#ECEAEA"/>
<stop offset="1" stop-color="white" stop-opacity="0"/>
</linearGradient>
<linearGradient id="paint9_linear_284_4393" x1="922.826" y1="364.554" x2="827.869" y2="397.69" gradientUnits="userSpaceOnUse">
<stop stop-color="#ECEAEA"/>
<stop offset="1" stop-color="white" stop-opacity="0"/>
</linearGradient>
<linearGradient id="paint10_linear_284_4393" x1="411.052" y1="508.228" x2="439.624" y2="447.449" gradientUnits="userSpaceOnUse">
<stop stop-color="#040404"/>
<stop offset="1" stop-color="#3C3C3C" stop-opacity="0"/>
</linearGradient>
<linearGradient id="paint11_linear_284_4393" x1="818.512" y1="504.598" x2="801.542" y2="471.601" gradientUnits="userSpaceOnUse">
<stop stop-color="#4B4B4B"/>
<stop offset="0.899322" stop-opacity="0"/>
</linearGradient>
</defs>
</svg>
