<svg width="172" height="133" viewBox="0 0 172 133" fill="none" xmlns="http://www.w3.org/2000/svg">
<g filter="url(#filter0_f_539_4249)">
<path d="M109.39 88.995C114.8 87.3611 124.649 82.8966 128.189 79.5922C132.27 76.1335 123.804 72.2639 122.8 71.6808C121.795 71.0977 72.4308 46.6066 63.8208 42.8163C55.2107 39.026 27.9463 47.0221 21.3445 50.6884C15.9632 53.6769 19.766 55.7907 20.4835 56.3739C21.201 56.957 62.3217 79.8837 77.1022 86.8812C88.2956 92.1804 98.7709 92.2022 109.39 88.995Z" fill="black" fill-opacity="0.2"/>
</g>
<path fill-rule="evenodd" clip-rule="evenodd" d="M70.3343 63.311L75.7953 60.7774L75.7967 60.7805C75.8317 60.7635 75.867 60.747 75.9026 60.731C79.1556 59.2706 83.7962 62.5792 86.2677 68.121C88.7393 73.6627 88.1058 79.3391 84.8529 80.7995C84.8088 80.8193 84.7645 80.8382 84.72 80.8562L79.4517 83.3038L76.5287 76.8942C75.7603 75.8759 75.0649 74.7036 74.4878 73.4095C73.9556 72.2162 73.5673 71.0166 73.3182 69.8542L70.3343 63.311Z" fill="black"/>
<ellipse cx="6.4593" cy="10.9733" rx="6.4593" ry="10.9733" transform="matrix(-0.911862 0.409373 0.407504 0.913706 76.3822 60.6138)" fill="black"/>
<g filter="url(#filter1_i_539_4249)">
<ellipse cx="4.8447" cy="8.23039" rx="4.8447" ry="8.23039" transform="matrix(-0.911862 0.409373 0.407504 0.913706 75.8414 63.7871)" fill="url(#paint0_linear_539_4249)"/>
</g>
<g filter="url(#filter2_di_539_4249)">
<path fill-rule="evenodd" clip-rule="evenodd" d="M76.9843 77.1847L78.8532 78.2672C78.6627 78.6322 78.4223 78.9422 78.1336 79.1838L76.9843 77.1866L76.9843 77.1847ZM74.6906 79.2165C74.4919 79.1051 74.2938 78.9775 74.0975 78.8344L74.6906 77.8037L74.6906 79.2165ZM74.6906 70.9693C74.3424 70.8049 73.9955 70.7729 73.6969 70.907C73.6098 70.9461 73.5304 70.9977 73.4589 71.0604L71.3751 67.4392C71.5601 67.2764 71.7657 67.1424 71.9916 67.041C72.8007 66.6777 73.7472 66.7875 74.6906 67.2698L74.6906 70.9693ZM71.5617 74.0436L70.8232 74.2421C70.7271 73.9829 70.6417 73.7243 70.567 73.4674L71.5617 74.0436ZM71.8532 76.3434L73.0722 76.0157L72.4155 77.157C72.22 76.9013 72.032 76.6296 71.8532 76.3434ZM77.823 72.3603L78.3554 71.4352C78.3875 71.5037 78.4191 71.5727 78.4501 71.6423C78.5235 71.8068 78.5925 71.9715 78.6571 72.1361L77.823 72.3603ZM70.7212 70.9033L70.173 70.5857C70.1792 70.3928 70.1928 70.2045 70.2138 70.0214L70.7212 70.9033ZM79.2711 74.3492C79.3597 74.8951 79.3978 75.4236 79.3866 75.9228L77.4946 74.8268L79.2711 74.3492Z" fill="#4C4C4C"/>
</g>
<path fill-rule="evenodd" clip-rule="evenodd" d="M70.3375 63.1952L75.7986 60.6617L75.7992 60.6631C75.8328 60.6468 75.8668 60.631 75.901 60.6156C79.154 59.1552 83.7946 62.4638 86.2661 68.0056C88.7376 73.5474 88.1041 79.2238 84.8512 80.6842C84.8189 80.6987 84.7865 80.7127 84.7539 80.7263L79.455 83.188L76.5399 76.7958C75.7664 75.7736 75.0665 74.5955 74.4862 73.2942C73.9508 72.0938 73.5611 70.887 73.3122 69.7181L70.3375 63.1952Z" fill="black"/>
<path d="M69.0106 75.929C71.4803 81.4664 76.1194 84.7715 79.3723 83.3111C82.6253 81.8507 83.2603 76.1779 80.7906 70.6405C78.321 65.1031 73.5423 61.4998 70.2893 62.9602C67.0364 64.4206 66.541 70.3915 69.0106 75.929Z" fill="#2D2C2C"/>
<g filter="url(#filter3_i_539_4249)">
<ellipse cx="4.54047" cy="7.93725" rx="4.54047" ry="7.93725" transform="matrix(-0.907827 0.41954 0.394422 0.918899 75.8271 64.0918)" fill="url(#paint1_linear_539_4249)"/>
</g>
<g filter="url(#filter4_di_539_4249)">
<path fill-rule="evenodd" clip-rule="evenodd" d="M77.8184 71.7226C76.6042 69.0133 74.4629 67.3391 72.8351 67.7705L74.0478 70.5412C74.7873 70.4983 75.6794 71.2313 76.235 72.3764L77.8184 71.7226Z" fill="#A9A8A8"/>
</g>
<path fill-rule="evenodd" clip-rule="evenodd" d="M29.3005 42.6647L34.1128 41.4199L34.1135 41.423C34.144 41.4145 34.1747 41.4065 34.2056 41.3989C37.0648 40.697 40.3431 44.0758 41.5278 48.9456C42.7125 53.8154 41.3551 58.3322 38.4959 59.0341C38.4544 59.0443 38.4128 59.0536 38.3711 59.0621L33.7379 60.2633L32.3169 54.6276C31.8426 53.6846 31.4509 52.6268 31.1737 51.4874C30.918 50.4365 30.7807 49.4021 30.7514 48.4188L29.3005 42.6647Z" fill="black"/>
<ellipse cx="5.33467" cy="9.06107" rx="5.33467" ry="9.06107" transform="matrix(-0.970456 0.238231 0.236561 0.972367 34.608 41.375)" fill="black"/>
<g filter="url(#filter5_i_539_4249)">
<ellipse cx="4.00121" cy="6.79617" rx="4.00121" ry="6.79617" transform="matrix(-0.970456 0.238231 0.236561 0.972367 33.7 43.8721)" fill="url(#paint2_linear_539_4249)"/>
</g>
<g filter="url(#filter6_di_539_4249)">
<path fill-rule="evenodd" clip-rule="evenodd" d="M33.8174 48.4544C33.8175 48.4546 33.8177 48.4549 33.8178 48.4552L33.817 48.4561L33.8174 48.4544ZM30.4702 56.2326L30.6793 55.0887L30.0466 55.8351C30.1844 55.98 30.3259 56.1129 30.4702 56.2326ZM31.6944 49.5353L32.2442 46.528C31.55 45.9966 30.798 45.7671 30.0875 45.9415C29.8887 45.9903 29.7015 46.0687 29.5269 46.1736L30.6816 49.4248C30.7485 49.3849 30.8202 49.3551 30.8963 49.3364C31.1588 49.272 31.436 49.3497 31.6944 49.5353ZM33.2727 56.7206L32.6357 54.927L33.9928 56.0845C33.784 56.352 33.5429 56.5676 33.2727 56.7206ZM28.6956 51.5663L28.0691 51.6174C28.0297 51.3935 27.9988 51.1717 27.9763 50.9529L28.6956 51.5663ZM28.5939 53.478L29.632 53.3933L28.9296 54.222C28.8089 53.9854 28.6965 53.7369 28.5939 53.478ZM34.0339 51.1312L34.6041 50.4584C34.6201 50.5189 34.6355 50.5798 34.6504 50.6411C34.6856 50.7857 34.7172 50.9298 34.7452 51.0732L34.0339 51.1312ZM28.4824 48.8928L28.0834 48.5525C28.1171 48.3963 28.1562 48.2449 28.2004 48.0989L28.4824 48.8928ZM34.9154 52.9627C34.9063 53.42 34.8585 53.8557 34.7751 54.26L33.399 53.0863L34.9154 52.9627Z" fill="#4C4C4C"/>
</g>
<path fill-rule="evenodd" clip-rule="evenodd" d="M29.2846 42.7915L34.0968 41.5467L34.0971 41.5478C34.1274 41.5394 34.1578 41.5314 34.1884 41.5239C37.0476 40.822 40.3259 44.2008 41.5106 49.0706C42.6953 53.9404 41.3379 58.4572 38.4787 59.1591C38.4516 59.1657 38.4246 59.172 38.3975 59.1779L33.7219 60.39L32.3013 54.7558C31.8264 53.812 31.434 52.7531 31.1565 51.6124C30.9005 50.5602 30.7632 49.5245 30.7341 48.5402L29.2846 42.7915Z" fill="black"/>
<ellipse cx="5.39395" cy="9.16175" rx="5.39395" ry="9.16175" transform="matrix(-0.970456 0.238231 0.236561 0.972367 34.6255 41.2817)" fill="#2C2C2C"/>
<g filter="url(#filter7_i_539_4249)">
<g filter="url(#filter8_i_539_4249)">
<ellipse cx="3.75371" cy="6.56204" rx="3.75371" ry="6.56204" transform="matrix(-0.955804 0.291458 0.30431 0.953325 32.8305 44.7349)" fill="url(#paint3_linear_539_4249)"/>
</g>
<g filter="url(#filter9_di_539_4249)">
<path fill-rule="evenodd" clip-rule="evenodd" d="M33.7868 51.2547C33.1 48.8928 31.5252 47.2321 30.1291 47.3457L30.8069 49.7554C31.4245 49.8244 32.0787 50.5455 32.4051 51.552L33.7868 51.2547Z" fill="#A9A8A8"/>
</g>
</g>
<g filter="url(#filter10_ii_539_4249)">
<path fill-rule="evenodd" clip-rule="evenodd" d="M100.68 39.5611C101.031 39.8663 101.395 40.186 101.845 40.3064C103.872 40.8492 120.857 50.166 124.56 53.91C128.164 57.5534 127.964 59.7312 127.871 60.7422C127.858 60.8882 127.847 61.0099 127.85 61.1081C127.864 61.598 127.86 62.5839 127.856 63.8382C127.853 64.5769 127.85 65.4088 127.85 66.2872L127.85 69.2718C127.843 69.4948 127.844 69.7223 127.845 69.9545C127.849 70.9409 127.854 72.0132 127.249 73.1882C126.504 74.6366 122.906 79.9474 105.444 85.4338C99.5252 87.2935 92.6498 85.2287 88.264 83.4113C87.5824 83.1574 86.9623 82.9067 86.4169 82.6743C85.8536 82.4343 85.3406 82.0877 84.7947 81.8102C84.5694 81.6956 84.3792 81.5971 84.2274 81.5183C84.0802 81.442 83.983 81.295 83.9683 81.1298C83.8373 79.6558 83.4926 77.6506 82.9974 75.6446C82.4079 73.3854 81.63 71.1465 80.7763 69.6864C78.7709 66.2568 74.5026 62.0271 71.1461 63.1859C67.337 64.5011 67.6296 69.9794 67.7028 71.2875C67.7243 71.6722 67.7689 71.9288 67.8129 72.1822C67.8241 72.2466 67.8294 72.3093 67.8293 72.3701C67.829 72.5175 67.8387 72.6667 67.8701 72.8108C67.8753 72.8345 67.8802 72.8597 67.8847 72.8867C67.9646 73.3595 67.425 73.6602 66.9991 73.4401C66.8931 73.3853 66.7737 73.3647 66.6549 73.3541C66.5039 73.3407 66.3504 73.2981 66.2024 73.2224L39.4076 59.5135C38.9901 59.2999 38.6156 59.0257 38.3011 58.7031C38.1906 58.5896 38.0667 58.489 37.926 58.4162C37.586 58.2405 37.3325 57.9165 37.3432 57.5339C37.3445 57.4887 37.3466 57.4433 37.3496 57.3978C37.3627 57.1997 37.3504 57.0006 37.3175 56.8049C37.2862 56.619 37.2701 56.4281 37.2704 56.2332L37.271 55.9692C37.2768 53.6496 37.2843 50.6682 35.4334 47.4291C33.7417 44.4684 31.2769 42.5087 29.0394 43.2109C26.8018 43.9132 26.1933 46.3232 26.0713 47.6655C25.9515 48.9836 26.0227 50.1933 26.064 50.8949C26.0806 51.1773 26.0924 51.3773 26.0849 51.469C26.0589 51.7885 22.8372 49.0162 22.6301 47.9598C21.9997 44.7448 21.8684 41.7342 22.1992 38.471C22.2324 38.1431 22.3194 37.5079 22.4164 36.9438C22.5314 36.2747 22.5977 35.5861 22.6256 34.9078C22.6656 33.9367 22.8335 32.8739 23.0642 32.349C23.0915 32.2868 23.1181 32.2214 23.1461 32.1526L23.1464 32.152C23.4739 31.347 23.9855 30.0899 27.928 28.3266C33.5262 25.8229 48.77 20.2492 49.3598 20.1189C50.7534 19.8111 52.5384 19.9434 53.9834 20.0504C54.8313 20.1133 55.5621 20.1674 56.0282 20.1189C62.7591 19.4183 70.5616 20.3475 80.8566 25.54C82.2363 26.1253 83.6004 26.7933 84.9214 27.5559C88.2211 29.461 91.0006 31.4839 93.3117 33.345C96.0034 35.4023 98.0793 37.2518 99.5699 38.5798C99.9849 38.9496 100.355 39.2789 100.68 39.5611Z" fill="url(#paint4_linear_539_4249)"/>
</g>
<g filter="url(#filter11_ddi_539_4249)">
<path d="M74.1818 51.6309C70.9138 50.2781 68.8952 46.2292 64.6569 41.258C63.5988 40.0169 64.0168 38.061 65.5305 37.4531L85.4916 29.4358C85.8347 29.298 86.2048 29.2551 86.5478 29.3931C87.5602 29.8007 90.1554 31.1918 95.5187 35.9082C98.8479 38.8358 99.5143 39.5984 101.234 40.7577C101.506 40.941 101.459 41.3448 100.46 42.1685C97.2739 44.7944 79.7181 53.9227 74.1818 51.6309Z" fill="url(#paint5_linear_539_4249)"/>
</g>
<g filter="url(#filter12_di_539_4249)">
<path d="M47.7766 31.9113C42.8553 30.3623 41.5888 30.3535 38.1914 30.162C35.8537 30.0302 32.142 30.3759 31.7371 31.4285C31.3321 32.4811 35.8258 35.787 37.6858 36.8163C38.5949 37.3194 69.9566 53.037 68.9593 51.1794C67.7307 48.8908 62.0757 42.3531 60.1444 39.6836C56.9244 35.2327 52.6979 33.4602 47.7766 31.9113Z" fill="url(#paint6_linear_539_4249)"/>
</g>
<g filter="url(#filter13_di_539_4249)">
<path d="M36.6223 28.8125L57.2689 20.4028C57.2689 20.4028 56.8061 20.566 54.2726 20.5287C53.3886 20.5157 31.9606 29.3247 31.804 29.4623L36.6223 28.8125Z" fill="url(#paint7_linear_539_4249)"/>
</g>
<g filter="url(#filter14_f_539_4249)">
<path d="M83.668 62.9708C75.7388 59.2847 71.2834 54.6575 66.5065 50.4279C80.7316 54.6461 110.506 63.8767 110.039 64.4774C109.456 65.2283 107.318 66.1191 100.212 66.5982C93.2165 67.0699 84.5758 63.3928 83.668 62.9708Z" fill="url(#paint8_linear_539_4249)" fill-opacity="0.21"/>
</g>
<g filter="url(#filter15_f_539_4249)">
<path d="M114.287 45.3759C113.836 45.0054 108.175 39.1381 103.936 36.2171C107.44 43.0549 115.428 57.9174 116.171 57.8431C117.1 57.7501 121.349 56.9544 122.6 54.0633C123.832 51.2169 114.85 45.8391 114.287 45.3759Z" fill="url(#paint9_linear_539_4249)" fill-opacity="0.13"/>
</g>
<g filter="url(#filter16_di_539_4249)">
<path d="M55.4552 52.0457C55.4552 51.8624 55.3506 51.695 55.1859 51.615L52.8729 50.4899C52.5548 50.3352 52.1852 50.5668 52.1852 50.9209C52.1852 51.1053 52.2906 51.2735 52.4563 51.3538L54.7711 52.4752C55.0878 52.6286 55.4552 52.3979 55.4552 52.0457Z" fill="#323232"/>
</g>
<g filter="url(#filter17_di_539_4249)">
<path d="M40.2849 45.3489C40.2849 45.1656 40.1803 44.9983 40.0156 44.9182L37.7026 43.7932C37.3845 43.6384 37.0149 43.87 37.0149 44.2242C37.0149 44.4085 37.1203 44.5768 37.286 44.6571L39.6008 45.7784C39.9175 45.9318 40.2849 45.7012 40.2849 45.3489Z" fill="#323232"/>
</g>
<g filter="url(#filter18_f_539_4249)">
<path d="M61.3256 69.2141L40.6641 59.0985C39.5179 58.5373 38.6549 57.5257 38.3005 56.2997C37.6293 53.9779 36.8401 51.0784 36.8193 50.3446C36.7853 49.1415 67.4049 63.7092 66.333 66.431C65.611 68.2644 63.0951 70.0805 61.3256 69.2141Z" fill="url(#paint10_linear_539_4249)" fill-opacity="0.12"/>
</g>
<path d="M89.624 48.1639L71.5516 34.9966C69.4818 35.557 64.7716 37.6659 63.874 38.0031C62.7112 38.44 62.5179 38.6834 62.5179 38.6834C62.5179 39.0345 62.6971 39.1881 63.2616 39.7368C64.0709 40.5234 64.4135 40.8855 66.4184 43.4456C69.3057 47.1324 71.5026 50.5628 73.6091 51.386C75.285 52.0408 77.8987 52.6135 81.6183 51.386C84.9431 50.2887 86.9896 49.0488 89.624 48.1639Z" fill="#C4C4C4" fill-opacity="0.2"/>
<g opacity="0.17" filter="url(#filter19_f_539_4249)">
<path d="M121.672 58.5962C116.748 62.4928 105.793 68.063 100.902 68.9124" stroke="url(#paint11_linear_539_4249)" stroke-width="75.7446" stroke-linecap="round" stroke-linejoin="round"/>
</g>
<g filter="url(#filter20_ddii_539_4249)">
<path d="M125.431 60.0174C126.286 58.8636 126.158 57.9175 126.022 56.5664C125.987 56.2115 125.755 55.4428 126.014 55.6876C126.372 56.0257 127.385 57.815 127.523 59.1623C127.585 59.7674 127.547 60.0737 127.49 60.6322C127.464 60.8877 126.938 62.4474 127.016 62.7842C127.094 63.1209 126.923 65.4418 126.935 65.7925C126.947 66.1433 125.482 68.7532 121.635 71.2704C118.439 73.3614 113.85 74.734 113.38 74.8016C112.909 74.8693 112.448 73.2909 112.107 73.2037C111.213 72.9755 108.573 73.9455 107.588 74.1933C106.438 74.4824 103.754 75.1492 100.822 74.7724C97.1947 74.3064 96.6397 73.894 93.3052 72.0779C93.2511 72.0484 93.1973 72.0183 93.144 71.9875C90.3461 70.3719 92.3914 67.877 95.5201 68.6829C97.4746 69.1864 99.6952 69.6436 102.032 69.8832C110.037 70.704 116.359 66.8993 117.265 66.3524C121.073 64.0533 123.073 63.2032 125.431 60.0174Z" fill="#272727"/>
</g>
<mask id="mask0_539_4249" style="mask-type:alpha" maskUnits="userSpaceOnUse" x="91" y="58" width="37" height="17">
<path d="M125.431 60.0013C125.496 59.9133 125.556 59.8241 125.611 59.7338C126.266 58.6536 127.721 57.9686 127.912 59.2173C127.975 59.8223 127.96 60.2065 127.904 60.765C127.878 61.0205 126.94 62.4303 127.018 62.767C127.096 63.1037 126.926 65.4246 126.938 65.7754C126.95 66.1261 125.487 68.737 121.642 71.2567C118.447 73.3498 113.859 74.7252 113.389 74.7932C112.919 74.8612 112.456 73.2831 112.115 73.1961C111.221 72.9684 108.582 73.9401 107.596 74.1886C106.447 74.4785 103.764 75.1469 100.831 74.772C97.2035 74.3083 96.6482 73.8963 93.3126 72.0823C93.2585 72.0529 93.2047 72.0228 93.1513 71.992C90.3525 70.3782 92.3961 67.882 95.5253 68.6859C97.4802 69.1882 99.7011 69.644 102.038 69.882C110.043 70.6977 116.363 66.8889 117.269 66.3414C121.075 64.0399 123.074 63.1885 125.431 60.0013Z" fill="#999999"/>
</mask>
<g mask="url(#mask0_539_4249)">
<g filter="url(#filter21_d_539_4249)">
<path d="M97.9698 69.4667L103.926 69.5564C103.899 69.5809 103.869 69.606 103.835 69.6316C103.591 69.814 103.073 70.0744 102.036 70.2135C101.483 70.2878 100.656 70.2892 99.7972 70.1261C99.1099 69.9957 98.4793 69.775 97.9698 69.4667Z" stroke="white" stroke-opacity="0.9" stroke-width="3.41524"/>
</g>
<g filter="url(#filter22_d_539_4249)">
<mask id="path-32-inside-1_539_4249" fill="white">
<path d="M126 56.26C126 56.26 127.263 57.9171 126.389 59.8004C126.126 60.3666 125.594 60.6606 125.062 60.258C124.666 59.9583 123.387 60.2204 123.387 60.2204L126 56.26Z"/>
</mask>
<path d="M126 56.26L128.715 54.1891L125.798 50.3634L123.15 54.3784L126 56.26ZM126.389 59.8004L129.486 61.2399L126.389 59.8004ZM125.062 60.258L123.002 62.9818L125.062 60.258ZM123.387 60.2204L120.537 58.3389L115.995 65.2229L124.074 63.5665L123.387 60.2204ZM126 56.26C123.285 58.3309 123.284 58.3297 123.283 58.3286C123.283 58.3282 123.282 58.327 123.281 58.3263C123.28 58.3247 123.279 58.3232 123.278 58.3218C123.276 58.3188 123.273 58.3159 123.271 58.3131C123.267 58.3075 123.263 58.3022 123.259 58.2971C123.252 58.2871 123.246 58.2782 123.24 58.2705C123.229 58.255 123.221 58.2438 123.216 58.2366C123.207 58.2225 123.207 58.2222 123.213 58.233C123.229 58.2596 123.252 58.3068 123.268 58.3584C123.284 58.4091 123.282 58.4273 123.282 58.415C123.282 58.4071 123.283 58.3943 123.287 58.3794C123.29 58.3638 123.294 58.3568 123.292 58.3609L129.486 61.2399C130.385 59.305 130.159 57.4928 129.777 56.2895C129.586 55.6914 129.348 55.2066 129.154 54.8636C129.055 54.6897 128.964 54.5452 128.889 54.4331C128.851 54.3769 128.817 54.3283 128.788 54.2876C128.773 54.2673 128.76 54.2489 128.748 54.2324C128.742 54.2242 128.736 54.2165 128.73 54.2093C128.728 54.2057 128.725 54.2022 128.722 54.1988C128.721 54.1971 128.72 54.1955 128.719 54.1938C128.718 54.193 128.717 54.1918 128.717 54.1914C128.716 54.1902 128.715 54.1891 126 56.26ZM123.292 58.3609C123.405 58.1176 123.745 57.5497 124.546 57.2259C124.972 57.0534 125.472 56.981 125.985 57.0616C126.49 57.1409 126.873 57.3458 127.122 57.5341L123.002 62.9818C124.125 63.8312 125.648 64.1494 127.107 63.5591C128.372 63.0474 129.11 62.0493 129.486 61.2399L123.292 58.3609ZM127.122 57.5341C126.246 56.8714 125.302 56.76 124.972 56.727C124.519 56.6816 124.101 56.6994 123.816 56.721C123.513 56.7441 123.246 56.781 123.06 56.8103C122.965 56.8253 122.884 56.8395 122.824 56.8506C122.793 56.8562 122.767 56.8612 122.747 56.8652C122.737 56.8672 122.728 56.869 122.72 56.8705C122.716 56.8713 122.712 56.872 122.709 56.8727C122.708 56.873 122.706 56.8733 122.705 56.8736C122.704 56.8737 122.703 56.8739 122.703 56.874C122.702 56.8741 122.702 56.8742 122.702 56.8742C122.701 56.8743 122.701 56.8744 123.387 60.2204C124.074 63.5665 124.073 63.5666 124.073 63.5667C124.073 63.5667 124.072 63.5668 124.072 63.5668C124.071 63.567 124.071 63.5671 124.07 63.5672C124.069 63.5674 124.068 63.5676 124.067 63.5678C124.065 63.5682 124.063 63.5686 124.062 63.5688C124.059 63.5694 124.057 63.5698 124.057 63.5699C124.055 63.5703 124.057 63.5699 124.062 63.5689C124.073 63.5669 124.096 63.5629 124.126 63.558C124.193 63.5475 124.27 63.5376 124.336 63.5326C124.42 63.5262 124.397 63.5346 124.294 63.5243C124.239 63.5188 124.099 63.502 123.91 63.4462C123.734 63.3941 123.384 63.2704 123.002 62.9818L127.122 57.5341ZM126.238 62.102L128.85 58.1415L123.15 54.3784L120.537 58.3389L126.238 62.102Z" fill="white" fill-opacity="0.9" mask="url(#path-32-inside-1_539_4249)"/>
</g>
</g>
<defs>
<filter id="filter0_f_539_4249" x="8.5101" y="31.8208" width="130.783" height="69.3579" filterUnits="userSpaceOnUse" color-interpolation-filters="sRGB">
<feFlood flood-opacity="0" result="BackgroundImageFix"/>
<feBlend mode="normal" in="SourceGraphic" in2="BackgroundImageFix" result="shape"/>
<feGaussianBlur stdDeviation="5" result="effect1_foregroundBlur_539_4249"/>
</filter>
<filter id="filter1_i_539_4249" x="69.2307" y="65.5112" width="11.0938" height="15.5586" filterUnits="userSpaceOnUse" color-interpolation-filters="sRGB">
<feFlood flood-opacity="0" result="BackgroundImageFix"/>
<feBlend mode="normal" in="SourceGraphic" in2="BackgroundImageFix" result="shape"/>
<feColorMatrix in="SourceAlpha" type="matrix" values="0 0 0 0 0 0 0 0 0 0 0 0 0 0 0 0 0 0 127 0" result="hardAlpha"/>
<feMorphology radius="1.14765" operator="erode" in="SourceAlpha" result="effect1_innerShadow_539_4249"/>
<feOffset/>
<feGaussianBlur stdDeviation="0.573823"/>
<feComposite in2="hardAlpha" operator="arithmetic" k2="-1" k3="1"/>
<feColorMatrix type="matrix" values="0 0 0 0 0 0 0 0 0 0 0 0 0 0 0 0 0 0 0.25 0"/>
<feBlend mode="normal" in2="shape" result="effect1_innerShadow_539_4249"/>
</filter>
<filter id="filter2_di_539_4249" x="66.7301" y="66.5962" width="13.347" height="14.9154" filterUnits="userSpaceOnUse" color-interpolation-filters="sRGB">
<feFlood flood-opacity="0" result="BackgroundImageFix"/>
<feColorMatrix in="SourceAlpha" type="matrix" values="0 0 0 0 0 0 0 0 0 0 0 0 0 0 0 0 0 0 127 0" result="hardAlpha"/>
<feOffset dy="0.459058"/>
<feGaussianBlur stdDeviation="0.344294"/>
<feColorMatrix type="matrix" values="0 0 0 0 1 0 0 0 0 1 0 0 0 0 1 0 0 0 0.41 0"/>
<feBlend mode="normal" in2="BackgroundImageFix" result="effect1_dropShadow_539_4249"/>
<feBlend mode="normal" in="SourceGraphic" in2="effect1_dropShadow_539_4249" result="shape"/>
<feColorMatrix in="SourceAlpha" type="matrix" values="0 0 0 0 0 0 0 0 0 0 0 0 0 0 0 0 0 0 127 0" result="hardAlpha"/>
<feOffset dx="-3.44294" dy="2.29529"/>
<feGaussianBlur stdDeviation="1.72147"/>
<feComposite in2="hardAlpha" operator="arithmetic" k2="-1" k3="1"/>
<feColorMatrix type="matrix" values="0 0 0 0 0 0 0 0 0 0 0 0 0 0 0 0 0 0 0.25 0"/>
<feBlend mode="normal" in2="shape" result="effect2_innerShadow_539_4249"/>
</filter>
<filter id="filter3_i_539_4249" x="69.6594" y="65.75" width="10.3526" height="15.0801" filterUnits="userSpaceOnUse" color-interpolation-filters="sRGB">
<feFlood flood-opacity="0" result="BackgroundImageFix"/>
<feBlend mode="normal" in="SourceGraphic" in2="BackgroundImageFix" result="shape"/>
<feColorMatrix in="SourceAlpha" type="matrix" values="0 0 0 0 0 0 0 0 0 0 0 0 0 0 0 0 0 0 127 0" result="hardAlpha"/>
<feMorphology radius="2.84604" operator="erode" in="SourceAlpha" result="effect1_innerShadow_539_4249"/>
<feOffset/>
<feGaussianBlur stdDeviation="1.42302"/>
<feComposite in2="hardAlpha" operator="arithmetic" k2="-1" k3="1"/>
<feColorMatrix type="matrix" values="0 0 0 0 0 0 0 0 0 0 0 0 0 0 0 0 0 0 0.25 0"/>
<feBlend mode="normal" in2="shape" result="effect1_innerShadow_539_4249"/>
</filter>
<filter id="filter4_di_539_4249" x="69.1953" y="67.4605" width="9.8363" height="7.34254" filterUnits="userSpaceOnUse" color-interpolation-filters="sRGB">
<feFlood flood-opacity="0" result="BackgroundImageFix"/>
<feColorMatrix in="SourceAlpha" type="matrix" values="0 0 0 0 0 0 0 0 0 0 0 0 0 0 0 0 0 0 127 0" result="hardAlpha"/>
<feOffset dy="0.970617"/>
<feGaussianBlur stdDeviation="0.606636"/>
<feColorMatrix type="matrix" values="0 0 0 0 1 0 0 0 0 1 0 0 0 0 1 0 0 0 0.59 0"/>
<feBlend mode="normal" in2="BackgroundImageFix" result="effect1_dropShadow_539_4249"/>
<feBlend mode="normal" in="SourceGraphic" in2="effect1_dropShadow_539_4249" result="shape"/>
<feColorMatrix in="SourceAlpha" type="matrix" values="0 0 0 0 0 0 0 0 0 0 0 0 0 0 0 0 0 0 127 0" result="hardAlpha"/>
<feOffset dx="-3.63981" dy="2.42654"/>
<feGaussianBlur stdDeviation="1.81991"/>
<feComposite in2="hardAlpha" operator="arithmetic" k2="-1" k3="1"/>
<feColorMatrix type="matrix" values="0 0 0 0 0 0 0 0 0 0 0 0 0 0 0 0 0 0 0.25 0"/>
<feBlend mode="normal" in2="shape" result="effect2_innerShadow_539_4249"/>
</filter>
<filter id="filter5_i_539_4249" x="27.2209" y="44.7559" width="8.40753" height="13.3555" filterUnits="userSpaceOnUse" color-interpolation-filters="sRGB">
<feFlood flood-opacity="0" result="BackgroundImageFix"/>
<feBlend mode="normal" in="SourceGraphic" in2="BackgroundImageFix" result="shape"/>
<feColorMatrix in="SourceAlpha" type="matrix" values="0 0 0 0 0 0 0 0 0 0 0 0 0 0 0 0 0 0 127 0" result="hardAlpha"/>
<feMorphology radius="0.947741" operator="erode" in="SourceAlpha" result="effect1_innerShadow_539_4249"/>
<feOffset/>
<feGaussianBlur stdDeviation="0.47387"/>
<feComposite in2="hardAlpha" operator="arithmetic" k2="-1" k3="1"/>
<feColorMatrix type="matrix" values="0 0 0 0 0 0 0 0 0 0 0 0 0 0 0 0 0 0 0.25 0"/>
<feBlend mode="normal" in2="shape" result="effect1_innerShadow_539_4249"/>
</filter>
<filter id="filter6_di_539_4249" x="25.1331" y="45.6942" width="10.3509" height="12.9219" filterUnits="userSpaceOnUse" color-interpolation-filters="sRGB">
<feFlood flood-opacity="0" result="BackgroundImageFix"/>
<feColorMatrix in="SourceAlpha" type="matrix" values="0 0 0 0 0 0 0 0 0 0 0 0 0 0 0 0 0 0 127 0" result="hardAlpha"/>
<feOffset dy="0.379096"/>
<feGaussianBlur stdDeviation="0.284322"/>
<feColorMatrix type="matrix" values="0 0 0 0 1 0 0 0 0 1 0 0 0 0 1 0 0 0 0.41 0"/>
<feBlend mode="normal" in2="BackgroundImageFix" result="effect1_dropShadow_539_4249"/>
<feBlend mode="normal" in="SourceGraphic" in2="effect1_dropShadow_539_4249" result="shape"/>
<feColorMatrix in="SourceAlpha" type="matrix" values="0 0 0 0 0 0 0 0 0 0 0 0 0 0 0 0 0 0 127 0" result="hardAlpha"/>
<feOffset dx="-2.84322" dy="1.89548"/>
<feGaussianBlur stdDeviation="1.42161"/>
<feComposite in2="hardAlpha" operator="arithmetic" k2="-1" k3="1"/>
<feColorMatrix type="matrix" values="0 0 0 0 0 0 0 0 0 0 0 0 0 0 0 0 0 0 0.25 0"/>
<feBlend mode="normal" in2="shape" result="effect2_innerShadow_539_4249"/>
</filter>
<filter id="filter7_i_539_4249" x="27.1328" y="45.7329" width="8.21365" height="12.7036" filterUnits="userSpaceOnUse" color-interpolation-filters="sRGB">
<feFlood flood-opacity="0" result="BackgroundImageFix"/>
<feBlend mode="normal" in="SourceGraphic" in2="BackgroundImageFix" result="shape"/>
<feColorMatrix in="SourceAlpha" type="matrix" values="0 0 0 0 0 0 0 0 0 0 0 0 0 0 0 0 0 0 127 0" result="hardAlpha"/>
<feMorphology radius="2.84604" operator="erode" in="SourceAlpha" result="effect1_innerShadow_539_4249"/>
<feOffset/>
<feGaussianBlur stdDeviation="1.42302"/>
<feComposite in2="hardAlpha" operator="arithmetic" k2="-1" k3="1"/>
<feColorMatrix type="matrix" values="0 0 0 0 0 0 0 0 0 0 0 0 0 0 0 0 0 0 0.25 0"/>
<feBlend mode="normal" in2="shape" result="effect1_innerShadow_539_4249"/>
</filter>
<filter id="filter8_i_539_4249" x="27.1328" y="45.7329" width="8.21365" height="12.7036" filterUnits="userSpaceOnUse" color-interpolation-filters="sRGB">
<feFlood flood-opacity="0" result="BackgroundImageFix"/>
<feBlend mode="normal" in="SourceGraphic" in2="BackgroundImageFix" result="shape"/>
<feColorMatrix in="SourceAlpha" type="matrix" values="0 0 0 0 0 0 0 0 0 0 0 0 0 0 0 0 0 0 127 0" result="hardAlpha"/>
<feMorphology radius="0.852955" operator="erode" in="SourceAlpha" result="effect1_innerShadow_539_4249"/>
<feOffset/>
<feGaussianBlur stdDeviation="0.426477"/>
<feComposite in2="hardAlpha" operator="arithmetic" k2="-1" k3="1"/>
<feColorMatrix type="matrix" values="0 0 0 0 0 0 0 0 0 0 0 0 0 0 0 0 0 0 0.25 0"/>
<feBlend mode="normal" in2="shape" result="effect1_innerShadow_539_4249"/>
</filter>
<filter id="filter9_di_539_4249" x="26.4893" y="47.0977" width="8.51083" height="6.88062" filterUnits="userSpaceOnUse" color-interpolation-filters="sRGB">
<feFlood flood-opacity="0" result="BackgroundImageFix"/>
<feColorMatrix in="SourceAlpha" type="matrix" values="0 0 0 0 0 0 0 0 0 0 0 0 0 0 0 0 0 0 127 0" result="hardAlpha"/>
<feOffset dy="0.970618"/>
<feGaussianBlur stdDeviation="0.606636"/>
<feColorMatrix type="matrix" values="0 0 0 0 1 0 0 0 0 1 0 0 0 0 1 0 0 0 0.59 0"/>
<feBlend mode="normal" in2="BackgroundImageFix" result="effect1_dropShadow_539_4249"/>
<feBlend mode="normal" in="SourceGraphic" in2="effect1_dropShadow_539_4249" result="shape"/>
<feColorMatrix in="SourceAlpha" type="matrix" values="0 0 0 0 0 0 0 0 0 0 0 0 0 0 0 0 0 0 127 0" result="hardAlpha"/>
<feOffset dx="-3.63982" dy="2.42654"/>
<feGaussianBlur stdDeviation="1.81991"/>
<feComposite in2="hardAlpha" operator="arithmetic" k2="-1" k3="1"/>
<feColorMatrix type="matrix" values="0 0 0 0 0 0 0 0 0 0 0 0 0 0 0 0 0 0 0.25 0"/>
<feBlend mode="normal" in2="shape" result="effect2_innerShadow_539_4249"/>
</filter>
<filter id="filter10_ii_539_4249" x="22.0233" y="-2.85423" width="122.962" height="89.0188" filterUnits="userSpaceOnUse" color-interpolation-filters="sRGB">
<feFlood flood-opacity="0" result="BackgroundImageFix"/>
<feBlend mode="normal" in="SourceGraphic" in2="BackgroundImageFix" result="shape"/>
<feColorMatrix in="SourceAlpha" type="matrix" values="0 0 0 0 0 0 0 0 0 0 0 0 0 0 0 0 0 0 127 0" result="hardAlpha"/>
<feOffset dx="17.0762" dy="-22.7683"/>
<feGaussianBlur stdDeviation="68.3049"/>
<feComposite in2="hardAlpha" operator="arithmetic" k2="-1" k3="1"/>
<feColorMatrix type="matrix" values="0 0 0 0 0 0 0 0 0 0 0 0 0 0 0 0 0 0 0.07 0"/>
<feBlend mode="normal" in2="shape" result="effect1_innerShadow_539_4249"/>
<feColorMatrix in="SourceAlpha" type="matrix" values="0 0 0 0 0 0 0 0 0 0 0 0 0 0 0 0 0 0 127 0" result="hardAlpha"/>
<feOffset dy="-2.84604"/>
<feGaussianBlur stdDeviation="5.69207"/>
<feComposite in2="hardAlpha" operator="arithmetic" k2="-1" k3="1"/>
<feColorMatrix type="matrix" values="0 0 0 0 0 0 0 0 0 0 0 0 0 0 0 0 0 0 0.09 0"/>
<feBlend mode="normal" in2="effect1_innerShadow_539_4249" result="effect2_innerShadow_539_4249"/>
</filter>
<filter id="filter11_ddi_539_4249" x="59.4786" y="25.8657" width="44.1933" height="29.5739" filterUnits="userSpaceOnUse" color-interpolation-filters="sRGB">
<feFlood flood-opacity="0" result="BackgroundImageFix"/>
<feColorMatrix in="SourceAlpha" type="matrix" values="0 0 0 0 0 0 0 0 0 0 0 0 0 0 0 0 0 0 127 0" result="hardAlpha"/>
<feOffset dx="-2.29529" dy="1.14765"/>
<feGaussianBlur stdDeviation="1.14765"/>
<feColorMatrix type="matrix" values="0 0 0 0 1 0 0 0 0 1 0 0 0 0 1 0 0 0 0.28 0"/>
<feBlend mode="normal" in2="BackgroundImageFix" result="effect1_dropShadow_539_4249"/>
<feColorMatrix in="SourceAlpha" type="matrix" values="0 0 0 0 0 0 0 0 0 0 0 0 0 0 0 0 0 0 127 0" result="hardAlpha"/>
<feOffset dy="-1.14765"/>
<feGaussianBlur stdDeviation="1.14765"/>
<feColorMatrix type="matrix" values="0 0 0 0 1 0 0 0 0 1 0 0 0 0 1 0 0 0 0.56 0"/>
<feBlend mode="normal" in2="effect1_dropShadow_539_4249" result="effect2_dropShadow_539_4249"/>
<feBlend mode="normal" in="SourceGraphic" in2="effect2_dropShadow_539_4249" result="shape"/>
<feColorMatrix in="SourceAlpha" type="matrix" values="0 0 0 0 0 0 0 0 0 0 0 0 0 0 0 0 0 0 127 0" result="hardAlpha"/>
<feOffset dx="-1.14765" dy="3.44294"/>
<feGaussianBlur stdDeviation="1.72147"/>
<feComposite in2="hardAlpha" operator="arithmetic" k2="-1" k3="1"/>
<feColorMatrix type="matrix" values="0 0 0 0 0 0 0 0 0 0 0 0 0 0 0 0 0 0 0.75 0"/>
<feBlend mode="normal" in2="shape" result="effect3_innerShadow_539_4249"/>
</filter>
<filter id="filter12_di_539_4249" x="27.1208" y="30.1353" width="43.0486" height="25.7874" filterUnits="userSpaceOnUse" color-interpolation-filters="sRGB">
<feFlood flood-opacity="0" result="BackgroundImageFix"/>
<feColorMatrix in="SourceAlpha" type="matrix" values="0 0 0 0 0 0 0 0 0 0 0 0 0 0 0 0 0 0 127 0" result="hardAlpha"/>
<feOffset dy="1.18682"/>
<feGaussianBlur stdDeviation="0.593408"/>
<feColorMatrix type="matrix" values="0 0 0 0 0.925374 0 0 0 0 0.925374 0 0 0 0 0.925374 0 0 0 0.37 0"/>
<feBlend mode="normal" in2="BackgroundImageFix" result="effect1_dropShadow_539_4249"/>
<feBlend mode="normal" in="SourceGraphic" in2="effect1_dropShadow_539_4249" result="shape"/>
<feColorMatrix in="SourceAlpha" type="matrix" values="0 0 0 0 0 0 0 0 0 0 0 0 0 0 0 0 0 0 127 0" result="hardAlpha"/>
<feOffset dx="-4.59058" dy="5.73823"/>
<feGaussianBlur stdDeviation="2.29529"/>
<feComposite in2="hardAlpha" operator="arithmetic" k2="-1" k3="1"/>
<feColorMatrix type="matrix" values="0 0 0 0 0 0 0 0 0 0 0 0 0 0 0 0 0 0 0.8 0"/>
<feBlend mode="normal" in2="shape" result="effect2_innerShadow_539_4249"/>
</filter>
<filter id="filter13_di_539_4249" x="27.2134" y="20.4028" width="31.2423" height="13.6502" filterUnits="userSpaceOnUse" color-interpolation-filters="sRGB">
<feFlood flood-opacity="0" result="BackgroundImageFix"/>
<feColorMatrix in="SourceAlpha" type="matrix" values="0 0 0 0 0 0 0 0 0 0 0 0 0 0 0 0 0 0 127 0" result="hardAlpha"/>
<feOffset dy="1.18682"/>
<feGaussianBlur stdDeviation="0.593408"/>
<feColorMatrix type="matrix" values="0 0 0 0 0.925374 0 0 0 0 0.925374 0 0 0 0 0.925374 0 0 0 0.37 0"/>
<feBlend mode="normal" in2="BackgroundImageFix" result="effect1_dropShadow_539_4249"/>
<feBlend mode="normal" in="SourceGraphic" in2="effect1_dropShadow_539_4249" result="shape"/>
<feColorMatrix in="SourceAlpha" type="matrix" values="0 0 0 0 0 0 0 0 0 0 0 0 0 0 0 0 0 0 127 0" result="hardAlpha"/>
<feOffset dx="-4.59058" dy="5.73823"/>
<feGaussianBlur stdDeviation="2.29529"/>
<feComposite in2="hardAlpha" operator="arithmetic" k2="-1" k3="1"/>
<feColorMatrix type="matrix" values="0 0 0 0 0 0 0 0 0 0 0 0 0 0 0 0 0 0 0.8 0"/>
<feBlend mode="normal" in2="shape" result="effect2_innerShadow_539_4249"/>
</filter>
<filter id="filter14_f_539_4249" x="34.3724" y="18.2936" width="107.806" height="80.4806" filterUnits="userSpaceOnUse" color-interpolation-filters="sRGB">
<feFlood flood-opacity="0" result="BackgroundImageFix"/>
<feBlend mode="normal" in="SourceGraphic" in2="BackgroundImageFix" result="shape"/>
<feGaussianBlur stdDeviation="16.067" result="effect1_foregroundBlur_539_4249"/>
</filter>
<filter id="filter15_f_539_4249" x="83.2787" y="15.5597" width="60.095" height="62.9412" filterUnits="userSpaceOnUse" color-interpolation-filters="sRGB">
<feFlood flood-opacity="0" result="BackgroundImageFix"/>
<feBlend mode="normal" in="SourceGraphic" in2="BackgroundImageFix" result="shape"/>
<feGaussianBlur stdDeviation="10.3288" result="effect1_foregroundBlur_539_4249"/>
</filter>
<filter id="filter16_di_539_4249" x="51.616" y="49.3025" width="4.40837" height="6.06697" filterUnits="userSpaceOnUse" color-interpolation-filters="sRGB">
<feFlood flood-opacity="0" result="BackgroundImageFix"/>
<feColorMatrix in="SourceAlpha" type="matrix" values="0 0 0 0 0 0 0 0 0 0 0 0 0 0 0 0 0 0 127 0" result="hardAlpha"/>
<feOffset dy="-0.569207"/>
<feGaussianBlur stdDeviation="0.284604"/>
<feColorMatrix type="matrix" values="0 0 0 0 0.78755 0 0 0 0 0.78755 0 0 0 0 0.78755 0 0 0 0.19 0"/>
<feBlend mode="normal" in2="BackgroundImageFix" result="effect1_dropShadow_539_4249"/>
<feBlend mode="normal" in="SourceGraphic" in2="effect1_dropShadow_539_4249" result="shape"/>
<feColorMatrix in="SourceAlpha" type="matrix" values="0 0 0 0 0 0 0 0 0 0 0 0 0 0 0 0 0 0 127 0" result="hardAlpha"/>
<feOffset dy="2.84604"/>
<feGaussianBlur stdDeviation="1.42302"/>
<feComposite in2="hardAlpha" operator="arithmetic" k2="-1" k3="1"/>
<feColorMatrix type="matrix" values="0 0 0 0 0 0 0 0 0 0 0 0 0 0 0 0 0 0 0.74 0"/>
<feBlend mode="normal" in2="shape" result="effect2_innerShadow_539_4249"/>
</filter>
<filter id="filter17_di_539_4249" x="36.4457" y="42.6057" width="4.40837" height="6.06697" filterUnits="userSpaceOnUse" color-interpolation-filters="sRGB">
<feFlood flood-opacity="0" result="BackgroundImageFix"/>
<feColorMatrix in="SourceAlpha" type="matrix" values="0 0 0 0 0 0 0 0 0 0 0 0 0 0 0 0 0 0 127 0" result="hardAlpha"/>
<feOffset dy="-0.569207"/>
<feGaussianBlur stdDeviation="0.284604"/>
<feColorMatrix type="matrix" values="0 0 0 0 0.78755 0 0 0 0 0.78755 0 0 0 0 0.78755 0 0 0 0.19 0"/>
<feBlend mode="normal" in2="BackgroundImageFix" result="effect1_dropShadow_539_4249"/>
<feBlend mode="normal" in="SourceGraphic" in2="effect1_dropShadow_539_4249" result="shape"/>
<feColorMatrix in="SourceAlpha" type="matrix" values="0 0 0 0 0 0 0 0 0 0 0 0 0 0 0 0 0 0 127 0" result="hardAlpha"/>
<feOffset dy="2.84604"/>
<feGaussianBlur stdDeviation="1.42302"/>
<feComposite in2="hardAlpha" operator="arithmetic" k2="-1" k3="1"/>
<feColorMatrix type="matrix" values="0 0 0 0 0 0 0 0 0 0 0 0 0 0 0 0 0 0 0.74 0"/>
<feBlend mode="normal" in2="shape" result="effect2_innerShadow_539_4249"/>
</filter>
<filter id="filter18_f_539_4249" x="29.9334" y="43.388" width="43.313" height="32.9348" filterUnits="userSpaceOnUse" color-interpolation-filters="sRGB">
<feFlood flood-opacity="0" result="BackgroundImageFix"/>
<feBlend mode="normal" in="SourceGraphic" in2="BackgroundImageFix" result="shape"/>
<feGaussianBlur stdDeviation="3.44294" result="effect1_foregroundBlur_539_4249"/>
</filter>
<filter id="filter19_f_539_4249" x="51.5472" y="9.24571" width="119.475" height="109.022" filterUnits="userSpaceOnUse" color-interpolation-filters="sRGB">
<feFlood flood-opacity="0" result="BackgroundImageFix"/>
<feBlend mode="normal" in="SourceGraphic" in2="BackgroundImageFix" result="shape"/>
<feGaussianBlur stdDeviation="5.73823" result="effect1_foregroundBlur_539_4249"/>
</filter>
<filter id="filter20_ddii_539_4249" x="90.3928" y="53.4975" width="38.5907" height="31.2334" filterUnits="userSpaceOnUse" color-interpolation-filters="sRGB">
<feFlood flood-opacity="0" result="BackgroundImageFix"/>
<feColorMatrix in="SourceAlpha" type="matrix" values="0 0 0 0 0 0 0 0 0 0 0 0 0 0 0 0 0 0 127 0" result="hardAlpha"/>
<feOffset dy="1.07131"/>
<feGaussianBlur stdDeviation="0.714204"/>
<feColorMatrix type="matrix" values="0 0 0 0 0 0 0 0 0 0 0 0 0 0 0 0 0 0 0.57 0"/>
<feBlend mode="normal" in2="BackgroundImageFix" result="effect1_dropShadow_539_4249"/>
<feColorMatrix in="SourceAlpha" type="matrix" values="0 0 0 0 0 0 0 0 0 0 0 0 0 0 0 0 0 0 127 0" result="hardAlpha"/>
<feOffset dy="-0.714204"/>
<feGaussianBlur stdDeviation="0.714204"/>
<feColorMatrix type="matrix" values="0 0 0 0 0 0 0 0 0 0 0 0 0 0 0 0 0 0 1 0"/>
<feBlend mode="normal" in2="effect1_dropShadow_539_4249" result="effect2_dropShadow_539_4249"/>
<feBlend mode="normal" in="SourceGraphic" in2="effect2_dropShadow_539_4249" result="shape"/>
<feColorMatrix in="SourceAlpha" type="matrix" values="0 0 0 0 0 0 0 0 0 0 0 0 0 0 0 0 0 0 127 0" result="hardAlpha"/>
<feOffset dy="9.84614"/>
<feGaussianBlur stdDeviation="10.0343"/>
<feComposite in2="hardAlpha" operator="arithmetic" k2="-1" k3="1"/>
<feColorMatrix type="matrix" values="0 0 0 0 0 0 0 0 0 0 0 0 0 0 0 0 0 0 1 0"/>
<feBlend mode="normal" in2="shape" result="effect3_innerShadow_539_4249"/>
<feColorMatrix in="SourceAlpha" type="matrix" values="0 0 0 0 0 0 0 0 0 0 0 0 0 0 0 0 0 0 127 0" result="hardAlpha"/>
<feOffset dy="-1.07294"/>
<feGaussianBlur stdDeviation="1.07294"/>
<feComposite in2="hardAlpha" operator="arithmetic" k2="-1" k3="1"/>
<feColorMatrix type="matrix" values="0 0 0 0 0 0 0 0 0 0 0 0 0 0 0 0 0 0 1 0"/>
<feBlend mode="normal" in2="effect3_innerShadow_539_4249" result="effect4_innerShadow_539_4249"/>
</filter>
<filter id="filter21_d_539_4249" x="94.0576" y="67.7041" width="14.3559" height="7.09339" filterUnits="userSpaceOnUse" color-interpolation-filters="sRGB">
<feFlood flood-opacity="0" result="BackgroundImageFix"/>
<feColorMatrix in="SourceAlpha" type="matrix" values="0 0 0 0 0 0 0 0 0 0 0 0 0 0 0 0 0 0 127 0" result="hardAlpha"/>
<feOffset dx="1.13841" dy="1.41412"/>
<feGaussianBlur stdDeviation="0.707062"/>
<feColorMatrix type="matrix" values="0 0 0 0 1 0 0 0 0 1 0 0 0 0 1 0 0 0 0.24 0"/>
<feBlend mode="normal" in2="BackgroundImageFix" result="effect1_dropShadow_539_4249"/>
<feBlend mode="normal" in="SourceGraphic" in2="effect1_dropShadow_539_4249" result="shape"/>
</filter>
<filter id="filter22_d_539_4249" x="123.112" y="56.2598" width="6.13825" height="7.01282" filterUnits="userSpaceOnUse" color-interpolation-filters="sRGB">
<feFlood flood-opacity="0" result="BackgroundImageFix"/>
<feColorMatrix in="SourceAlpha" type="matrix" values="0 0 0 0 0 0 0 0 0 0 0 0 0 0 0 0 0 0 127 0" result="hardAlpha"/>
<feOffset dx="1.13841" dy="1.41412"/>
<feGaussianBlur stdDeviation="0.707062"/>
<feColorMatrix type="matrix" values="0 0 0 0 1 0 0 0 0 1 0 0 0 0 1 0 0 0 0.24 0"/>
<feBlend mode="normal" in2="BackgroundImageFix" result="effect1_dropShadow_539_4249"/>
<feBlend mode="normal" in="SourceGraphic" in2="effect1_dropShadow_539_4249" result="shape"/>
</filter>
<linearGradient id="paint0_linear_539_4249" x1="11.4276" y1="12.5553" x2="11.9967" y2="4.09111" gradientUnits="userSpaceOnUse">
<stop stop-color="#3F3F3F"/>
<stop offset="1" stop-color="#5C5C5C"/>
</linearGradient>
<linearGradient id="paint1_linear_539_4249" x1="10.71" y1="12.1081" x2="11.2746" y2="3.94756" gradientUnits="userSpaceOnUse">
<stop stop-color="#AAAAAA"/>
<stop offset="1" stop-color="#C2C2C2"/>
</linearGradient>
<linearGradient id="paint2_linear_539_4249" x1="9.43798" y1="10.3674" x2="9.90782" y2="3.37819" gradientUnits="userSpaceOnUse">
<stop stop-color="#3F3F3F"/>
<stop offset="1" stop-color="#5C5C5C"/>
</linearGradient>
<linearGradient id="paint3_linear_539_4249" x1="8.85419" y1="10.0102" x2="9.32096" y2="3.2636" gradientUnits="userSpaceOnUse">
<stop stop-color="#AAAAAA"/>
<stop offset="1" stop-color="#C2C2C2"/>
</linearGradient>
<linearGradient id="paint4_linear_539_4249" x1="81.695" y1="83.0578" x2="130.225" y2="23.9225" gradientUnits="userSpaceOnUse">
<stop stop-color="#D33753"/>
<stop offset="1" stop-color="#C72D65"/>
</linearGradient>
<linearGradient id="paint5_linear_539_4249" x1="86.2438" y1="9.17143" x2="58.5938" y2="35.3296" gradientUnits="userSpaceOnUse">
<stop stop-color="#E8EAE9"/>
<stop offset="0.498386" stop-color="#707072"/>
<stop offset="1" stop-color="#2F3032"/>
</linearGradient>
<linearGradient id="paint6_linear_539_4249" x1="40.8498" y1="96.8059" x2="67.2665" y2="48.5318" gradientUnits="userSpaceOnUse">
<stop stop-color="#E8EAE9"/>
<stop offset="0.498386" stop-color="#707072"/>
<stop offset="1" stop-color="#2F3032"/>
</linearGradient>
<linearGradient id="paint7_linear_539_4249" x1="29.5833" y1="46.9143" x2="44.3129" y2="25.3599" gradientUnits="userSpaceOnUse">
<stop stop-color="#E8EAE9"/>
<stop offset="0.498386" stop-color="#707072"/>
<stop offset="1" stop-color="#2F3032"/>
</linearGradient>
<linearGradient id="paint8_linear_539_4249" x1="86.8368" y1="67.5793" x2="90.2688" y2="57.5482" gradientUnits="userSpaceOnUse">
<stop stop-color="#ECEAEA"/>
<stop offset="1" stop-color="white" stop-opacity="0"/>
</linearGradient>
<linearGradient id="paint9_linear_539_4249" x1="125.829" y1="49.7076" x2="112.882" y2="54.2256" gradientUnits="userSpaceOnUse">
<stop stop-color="#ECEAEA"/>
<stop offset="1" stop-color="white" stop-opacity="0"/>
</linearGradient>
<linearGradient id="paint10_linear_539_4249" x1="56.0478" y1="69.2978" x2="59.9435" y2="61.0106" gradientUnits="userSpaceOnUse">
<stop stop-color="#040404"/>
<stop offset="1" stop-color="#3C3C3C" stop-opacity="0"/>
</linearGradient>
<linearGradient id="paint11_linear_539_4249" x1="111.606" y1="68.8029" x2="109.292" y2="64.3037" gradientUnits="userSpaceOnUse">
<stop stop-color="#4B4B4B"/>
<stop offset="0.899322" stop-opacity="0"/>
</linearGradient>
</defs>
</svg>
