<svg width="1109" height="1003" viewBox="0 0 1109 1003" fill="none" xmlns="http://www.w3.org/2000/svg">
<g filter="url(#filter0_f_284_3945)">
<path d="M810.447 672.828C850.414 661.855 923.454 630.955 950.02 607.387C980.588 582.789 919.238 552.843 911.982 548.381C904.726 543.919 547.363 355.177 484.943 325.786C422.523 296.396 221.144 349.948 172.06 375.599C132.05 396.509 159.537 412.714 164.689 417.123C169.841 421.531 467.056 597.271 574.12 651.323C655.199 692.257 731.995 694.366 810.447 672.828Z" fill="black" fill-opacity="0.2"/>
</g>
<path fill-rule="evenodd" clip-rule="evenodd" d="M528.885 477.257L569.394 459.698L569.404 459.72C569.663 459.602 569.925 459.488 570.19 459.377C594.311 449.275 627.718 474.396 644.808 515.486C661.897 556.575 656.197 598.075 632.076 608.177C631.754 608.311 631.431 608.44 631.106 608.562L592.011 625.533L571.772 577.995C566.328 570.386 561.448 561.663 557.458 552.068C553.778 543.22 551.155 534.353 549.545 525.785L528.885 477.257Z" fill="black"/>
<ellipse cx="47.3722" cy="80.478" rx="47.3722" ry="80.478" transform="matrix(-0.921953 0.38611 0.384195 0.923749 573.728 458.609)" fill="black"/>
<g filter="url(#filter1_i_284_3945)">
<ellipse cx="35.5308" cy="60.3613" rx="35.5308" ry="60.3613" transform="matrix(-0.921953 0.38611 0.384195 0.923749 569.172 481.771)" fill="url(#paint0_linear_284_3945)"/>
</g>
<g filter="url(#filter2_di_284_3945)">
<path fill-rule="evenodd" clip-rule="evenodd" d="M562.348 508.426C567.316 511.575 572.175 516.14 576.527 521.823L565.713 539.56C564.44 537.988 563.068 536.659 561.658 535.619L562.348 508.426ZM560.802 569.347C562.858 570.172 564.895 570.328 566.728 569.677L581.219 596.404C580.475 596.854 579.697 597.25 578.887 597.59C573.176 599.982 566.632 599.208 560.128 595.927L560.802 569.347ZM557.865 594.684L558.537 568.173C556.841 567.097 555.178 565.595 553.652 563.747L543.051 581.134C547.602 586.978 552.688 591.606 557.865 594.684ZM559.399 534.218L560.087 507.095C553.261 503.383 546.341 502.403 540.342 504.915C538.667 505.617 537.135 506.561 535.748 507.72L550.352 534.656C550.887 534.21 551.479 533.846 552.125 533.576C554.34 532.648 556.877 532.947 559.399 534.218ZM532.392 562.653C534.94 568.781 538.072 574.338 541.567 579.16L552.168 561.774C550.985 560.05 549.923 558.104 549.04 555.982C548.961 555.792 548.884 555.602 548.809 555.413L531.214 559.667C531.585 560.662 531.978 561.658 532.392 562.653ZM567.184 541.553L578 523.816C581.359 528.528 584.371 533.923 586.837 539.852C587.344 541.071 587.819 542.291 588.262 543.51L570.445 547.818C570.355 547.59 570.263 547.362 570.168 547.133C569.322 545.098 568.309 543.224 567.184 541.553ZM530.436 557.493C527.541 549.04 526.182 540.705 526.261 533.206L546.678 545.735C546.773 548.102 547.219 550.648 548.037 553.237L530.436 557.493ZM571.209 549.996C572.18 553.112 572.613 556.164 572.541 558.912L592.907 571.409C593.281 563.576 592.026 554.71 589.021 545.689L571.209 549.996ZM592.721 573.989L572.315 561.467C571.835 564.545 570.621 567.055 568.733 568.56L583.113 595.084C588.554 590.762 591.828 583.208 592.721 573.989ZM526.35 530.566L546.727 543.071C546.933 540.484 547.614 538.217 548.738 536.494L534.023 509.353C529.476 514.2 526.859 521.701 526.35 530.566Z" fill="#4C4C4C"/>
</g>
<path fill-rule="evenodd" clip-rule="evenodd" d="M528.931 476.41L569.44 458.851L569.445 458.862C569.694 458.748 569.946 458.639 570.2 458.532C594.321 448.43 627.728 473.551 644.818 514.641C661.907 555.731 656.206 597.23 632.085 607.332C631.841 607.435 631.595 607.534 631.349 607.629L592.057 624.685L571.875 577.279C566.394 569.641 561.481 560.873 557.468 551.224C553.766 542.322 551.133 533.401 549.526 524.785L528.931 476.41Z" fill="black"/>
<path d="M516.833 569.521C533.91 610.579 567.307 635.673 591.428 625.572C615.549 615.47 621.26 573.997 604.183 532.939C587.107 491.882 552.742 464.575 528.621 474.677C504.5 484.779 499.757 528.463 516.833 569.521Z" fill="#2D2C2C"/>
<g filter="url(#filter3_i_284_3945)">
<ellipse cx="33.2996" cy="58.2115" rx="33.2996" ry="58.2115" transform="matrix(-0.918177 0.396377 0.370986 0.928609 569.011 484.002)" fill="url(#paint1_linear_284_3945)"/>
</g>
<g filter="url(#filter4_di_284_3945)">
<path fill-rule="evenodd" clip-rule="evenodd" d="M538.817 564.343C547.073 582.437 561 593.898 572.346 592.265L563.837 571.398C559.238 570.754 554.179 566.373 550.641 559.808L538.817 564.343ZM536.241 557.944C529.7 539.304 531.496 521.087 540.257 513.571L548.763 534.431C545.951 538.574 545.554 545.873 547.955 553.452L536.241 557.944ZM570.459 544.821C566.599 536.322 560.195 530.783 554.766 530.959L546.39 510.419C558.405 507.558 573.793 520.232 582.191 540.321L570.459 544.821ZM572.719 551.341L584.561 546.799C590.404 565.346 588.001 583.049 578.717 589.698L570.338 569.148C573.613 565.679 574.533 558.797 572.719 551.341Z" fill="#A9A8A8"/>
</g>
<path fill-rule="evenodd" clip-rule="evenodd" d="M231.882 318.254L267.395 310.023L267.4 310.047C267.625 309.99 267.852 309.937 268.08 309.887C289.173 305.273 312.579 330.655 320.359 366.579C328.139 402.503 317.346 435.365 296.253 439.979C295.943 440.047 295.632 440.109 295.321 440.164L261.141 448.105L251.771 406.523C248.47 399.521 245.794 391.693 243.974 383.288C242.295 375.536 241.481 367.926 241.449 360.712L231.882 318.254Z" fill="black"/>
<ellipse cx="39.1243" cy="66.4535" rx="39.1243" ry="66.4535" transform="matrix(-0.976187 0.213537 0.211819 0.978055 271.034 309.785)" fill="black"/>
<g filter="url(#filter5_i_284_3945)">
<ellipse cx="29.3447" cy="49.8428" rx="29.3447" ry="49.8428" transform="matrix(-0.976187 0.213537 0.211819 0.978055 263.913 327.922)" fill="url(#paint2_linear_284_3945)"/>
</g>
<g filter="url(#filter6_di_284_3945)">
<path fill-rule="evenodd" clip-rule="evenodd" d="M254.383 348.538C257.956 351.838 261.229 356.274 263.924 361.545L252.494 374.355C251.693 372.885 250.774 371.598 249.781 370.541L254.383 348.538ZM244.077 397.814C245.628 398.793 247.263 399.222 248.853 398.962L256.654 422.83C255.985 423.084 255.296 423.289 254.589 423.444C249.591 424.537 244.386 422.931 239.586 419.29L244.077 397.814ZM237.933 417.942L242.412 396.525C241.196 395.399 240.069 393.934 239.105 392.209L227.924 404.74C230.75 410.159 234.19 414.672 237.933 417.942ZM248.155 369.066L252.745 347.121C247.754 343.097 242.283 341.274 237.042 342.42C235.575 342.741 234.188 343.281 232.888 344.018L240.748 368.068C241.247 367.788 241.778 367.583 242.34 367.46C244.277 367.036 246.294 367.657 248.155 369.066ZM222.01 388.139C223.17 393.497 224.889 398.477 227.012 402.915L238.191 390.386C237.484 388.806 236.908 387.063 236.506 385.204C236.47 385.037 236.435 384.871 236.403 384.706L221.497 385.541C221.651 386.403 221.821 387.27 222.01 388.139ZM253.393 376.195L264.824 363.383C266.853 367.71 268.498 372.541 269.621 377.725C269.852 378.791 270.057 379.854 270.236 380.91L255.106 381.758C255.068 381.56 255.027 381.361 254.984 381.162C254.599 379.386 254.056 377.717 253.393 376.195ZM221.188 383.658C220.092 376.366 220.225 369.398 221.399 363.321L236.109 376.527C235.834 378.463 235.818 380.598 236.098 382.823L221.188 383.658ZM255.403 383.641C255.73 386.318 255.628 388.862 255.162 391.084L269.862 404.28C271.332 397.969 271.63 390.576 270.529 382.794L255.403 383.641ZM269.327 406.348L254.599 393.126C253.754 395.551 252.398 397.407 250.645 398.35L258.389 422.041C263.449 419.343 267.231 413.699 269.327 406.348ZM221.863 361.19L236.544 374.37C237.097 372.293 237.99 370.55 239.163 369.317L231.244 345.088C226.831 348.351 223.591 354.06 221.863 361.19Z" fill="#4C4C4C"/>
</g>
<path fill-rule="evenodd" clip-rule="evenodd" d="M231.742 319.181L267.255 310.95L267.257 310.957C267.48 310.902 267.705 310.849 267.931 310.8C289.024 306.185 312.43 331.567 320.21 367.491C327.99 403.415 317.198 436.278 296.104 440.892C295.906 440.935 295.708 440.976 295.51 441.014L261.001 449.032L251.633 407.458C248.327 400.451 245.647 392.615 243.825 384.2C242.144 376.439 241.33 368.82 241.3 361.598L231.742 319.181Z" fill="black"/>
<ellipse cx="39.559" cy="67.1919" rx="39.559" ry="67.1919" transform="matrix(-0.976187 0.213537 0.211819 0.978055 271.181 309.105)" fill="#2C2C2C"/>
<g filter="url(#filter7_i_284_3945)">
<g filter="url(#filter8_i_284_3945)">
<ellipse cx="27.5296" cy="48.1257" rx="27.5296" ry="48.1257" transform="matrix(-0.962889 0.267119 0.280029 0.960737 257.377 334.086)" fill="url(#paint3_linear_284_3945)"/>
</g>
<g filter="url(#filter9_di_284_3945)">
<path fill-rule="evenodd" clip-rule="evenodd" d="M224.611 395.326C229.33 411.006 239.418 422.189 248.922 422.572L244.32 404.461C240.667 403.237 237.081 399.056 234.938 393.377L224.611 395.326ZM223.179 389.614C219.959 373.657 223.538 359.247 231.604 354.416L236.208 372.536C233.46 375.496 232.312 381.28 233.399 387.685L223.179 389.614ZM252.99 383.987C250.784 376.548 246.122 371.139 241.608 370.519L237.086 352.725C247.343 352.152 258.579 364.62 263.176 382.064L252.99 383.987ZM254.115 389.757L264.408 387.814C267.016 403.574 262.963 417.436 254.545 421.434L250.025 403.647C253.129 401.356 254.703 395.992 254.115 389.757Z" fill="#A9A8A8"/>
</g>
</g>
<g filter="url(#filter10_ii_284_3945)">
<path fill-rule="evenodd" clip-rule="evenodd" d="M758.999 311.661C759.407 312.018 759.841 312.346 760.304 312.627C761.738 313.497 763.03 314.115 764.187 314.456C778.951 318.813 901.744 390.28 928.198 418.418C953.94 445.801 952.07 461.73 951.202 469.125C951.076 470.193 950.972 471.083 950.974 471.804C950.987 475.398 950.777 482.626 950.509 491.821C950.352 497.236 950.174 503.335 950.011 509.775L949.455 531.657C949.363 533.29 949.328 534.958 949.292 536.661C949.14 543.894 948.974 551.757 944.323 560.259C938.59 570.739 911.221 609.006 782.179 645.982C738.419 658.521 688.369 642.083 656.555 627.938C643.452 622.673 633.51 617.653 628.485 614.999C627.686 614.577 627.065 613.942 626.655 613.183C626.542 612.974 626.358 612.779 626.149 612.665C625.818 612.483 625.627 612.159 625.607 611.781C625.022 600.839 622.822 585.437 619.424 570.003C615.523 553.34 610.239 536.794 604.255 525.937C590.19 500.42 559.683 468.615 534.86 476.487C506.688 485.421 507.814 525.64 508.107 535.244C508.193 538.068 508.472 539.958 508.748 541.823C509.04 543.8 509.328 545.75 509.379 548.759C509.382 548.936 509.375 549.11 509.358 549.279C509.34 549.46 509.323 549.642 509.325 549.824C509.33 550.421 509.32 551.089 509.293 551.839C509.248 553.093 507.891 553.832 506.792 553.228C506.406 553.016 505.955 552.975 505.518 553.02C504.649 553.111 503.73 552.95 502.871 552.482L290.284 436.822C289.033 436.141 288.156 434.921 288.009 433.504C287.522 428.791 287.674 423.342 287.843 417.276L287.843 417.275C288.317 400.269 288.927 378.412 275.96 354.32C264.107 332.299 246.401 317.472 229.866 322.205C213.33 326.937 208.42 344.493 207.276 354.311C206.153 363.953 206.45 372.835 206.622 377.987L206.622 377.987L206.622 377.991C206.691 380.062 206.74 381.53 206.669 382.2C206.418 384.537 183.314 363.612 181.992 355.829C177.969 332.141 177.566 310.044 180.598 286.181C181.09 282.309 182.758 272.589 183.957 268.664C184.155 268.015 184.269 267.343 184.247 266.665C183.977 258.444 185.712 246.492 188.079 241.458C188.291 241.006 188.499 240.529 188.718 240.029C191.269 234.188 195.253 225.066 224.487 212.872C265.996 195.557 378.795 157.529 383.143 156.684C393.417 154.686 406.48 155.988 417.054 157.042C423.259 157.66 428.607 158.193 432.033 157.924C481.516 154.04 538.554 162.305 613.078 202.3C623.077 206.845 632.947 211.993 642.483 217.826C666.301 232.395 686.289 247.729 702.878 261.794C722.25 277.392 737.14 291.351 747.829 301.373L747.829 301.373C752.271 305.537 755.988 309.021 758.999 311.661Z" fill="url(#paint4_linear_284_3945)"/>
</g>
<g filter="url(#filter11_ddi_284_3945)">
<path d="M559.266 392.338C532.153 380.3 517.676 342.715 477.302 298.068C476.208 296.858 476.662 294.908 478.19 294.338L649.655 230.473C650.001 230.344 650.362 230.3 650.72 230.391C653.865 231.196 671.399 237.333 718.625 281.035C742.488 303.119 747.232 308.834 759.627 317.653C761.587 319.048 761.166 321.999 753.685 327.853C729.84 346.512 599.43 410.171 559.266 392.338Z" fill="url(#paint5_linear_284_3945)"/>
</g>
<g filter="url(#filter12_di_284_3945)">
<path d="M369.342 242.847C333.549 230.575 324.266 230.275 299.393 228.239C282.278 226.838 255.001 228.682 251.837 236.324C248.672 243.966 281.003 269.039 294.448 276.932C301.02 280.789 528.027 401.859 521.061 388.054C512.479 371.046 472.235 322.063 458.572 302.131C435.792 268.901 405.135 255.119 369.342 242.847Z" fill="url(#paint6_linear_284_3945)"/>
</g>
<g filter="url(#filter13_di_284_3945)">
<path d="M288.14 218.054L441.077 160.238C441.077 160.238 437.653 161.348 419.086 160.604C412.607 160.344 253.866 220.941 252.693 221.921L288.14 218.054Z" fill="url(#paint7_linear_284_3945)"/>
</g>
<g filter="url(#filter14_f_284_3945)">
<path d="M626.705 477.241C569.257 448.741 537.453 413.987 503.218 382.089C606.726 415.662 823.301 488.876 819.769 493.193C815.354 498.59 799.51 504.723 747.326 506.914C695.949 509.071 633.283 480.504 626.705 477.241Z" fill="url(#paint8_linear_284_3945)" fill-opacity="0.21"/>
</g>
<g filter="url(#filter15_f_284_3945)">
<path d="M854.464 353.94C851.229 351.14 810.815 307.07 780.282 284.866C804.697 335.649 860.498 446.102 865.958 445.695C872.784 445.186 904.083 440.142 913.797 419.179C923.36 398.54 858.507 357.44 854.464 353.94Z" fill="url(#paint9_linear_284_3945)" fill-opacity="0.13"/>
</g>
<g filter="url(#filter16_di_284_3945)">
<path d="M421.912 391.137C421.934 390.257 421.452 389.44 420.67 389.035L401.52 379.112C400.017 378.333 398.22 379.396 398.177 381.091L398.108 383.808C398.086 384.69 398.57 385.508 399.353 385.912L418.504 395.797C420.007 396.573 421.801 395.51 421.844 393.817L421.912 391.137Z" fill="#323232"/>
</g>
<g filter="url(#filter17_di_284_3945)">
<path d="M311.935 339.217C311.957 338.337 311.475 337.52 310.693 337.115L291.543 327.192C290.04 326.413 288.243 327.476 288.2 329.171L288.131 331.888C288.109 332.77 288.593 333.588 289.376 333.992L308.527 343.877C310.03 344.653 311.824 343.59 311.867 341.897L311.935 339.217Z" fill="#323232"/>
</g>
<g filter="url(#filter18_f_284_3945)">
<path d="M485.906 531.462L300.898 434.991C299.767 434.401 298.934 433.374 298.599 432.143C293.954 415.08 285.598 382.753 285.579 375.956C285.553 367.13 507.333 479.631 498.968 499.387C494.839 509.139 493.766 518.723 493.902 525.975C493.977 529.96 489.44 533.305 485.906 531.462Z" fill="url(#paint10_linear_284_3945)" fill-opacity="0.12"/>
</g>
<path d="M673.127 369.789L543.077 269.89C527.797 273.614 492.872 288.199 486.229 290.504C477.622 293.491 476.159 295.24 476.159 295.24C476.094 297.814 477.379 298.973 481.416 303.101C487.203 309.019 489.648 311.737 503.871 330.88C524.353 358.447 539.822 384.006 555.113 390.433C567.278 395.546 586.334 400.231 613.833 391.923C638.413 384.497 653.648 375.787 673.127 369.789Z" fill="#C4C4C4" fill-opacity="0.2"/>
<g opacity="0.17" filter="url(#filter19_f_284_3945)">
<path d="M906.146 452.238C869.32 479.89 787.971 518.691 751.954 524.009" stroke="url(#paint11_linear_284_3945)" stroke-width="75.7446" stroke-linecap="round" stroke-linejoin="round"/>
</g>
<g filter="url(#filter20_ddii_284_3945)">
<path d="M933.447 463.357C940.638 454.143 938.914 446.58 938.185 434.772C938.163 434.416 938.089 434.039 937.989 433.697C935.273 424.414 947.909 444.066 948.944 457.477C949.286 461.925 948.945 464.164 948.425 468.248C948.187 470.116 944.044 481.454 944.553 483.937C945.062 486.42 943.374 503.404 943.395 505.978C943.417 508.552 932.194 527.414 903.519 545.153C879.699 559.89 845.8 569.099 842.339 569.507C838.877 569.916 835.791 558.258 833.303 557.555C826.794 555.716 807.258 562.336 799.987 563.97C791.502 565.876 771.705 570.265 750.275 566.957C723.769 562.866 719.776 559.739 695.667 545.803C680.706 537.156 670.048 521.326 665.472 511.409C664.119 508.475 666.76 505.946 669.799 507.043C686.843 513.19 721.14 526.346 760.054 531.336C818.59 538.843 865.653 512.125 872.396 508.284C900.74 492.136 915.561 486.275 933.447 463.357Z" fill="#272727"/>
</g>
<mask id="mask0_284_3945" style="mask-type:alpha" maskUnits="userSpaceOnUse" x="665" y="436" width="287" height="134">
<path d="M933.448 463.241C938.668 456.543 939.559 448.708 938.775 441.554C938.267 436.918 942.833 434.529 945.013 438.652C949.432 447.006 951.281 453.997 951.786 457.955C952.131 462.402 951.952 465.216 951.434 469.301C951.197 471.169 944.056 481.33 944.567 483.813C945.078 486.296 943.401 503.281 943.424 505.855C943.447 508.429 932.236 527.298 903.573 545.056C879.762 559.808 845.869 569.039 842.408 569.449C838.947 569.86 835.853 558.204 833.364 557.503C826.854 555.668 807.323 562.301 800.052 563.939C791.569 565.85 771.775 570.252 750.343 566.958C723.833 562.884 719.839 559.759 695.721 545.839C680.754 537.201 670.087 521.378 665.504 511.464C664.149 508.531 666.788 506.001 669.828 507.095C686.876 513.231 721.181 526.365 760.099 531.331C818.64 538.801 865.685 512.052 872.426 508.206C900.759 492.04 915.576 486.17 933.448 463.241Z" fill="#999999"/>
</mask>
<g mask="url(#mask0_284_3945)">
<g filter="url(#filter21_d_284_3945)">
<path d="M707.098 515.763L785.621 518.94C785.819 519.571 786.062 520.468 786.256 521.551C786.658 523.801 786.829 526.777 785.989 529.825C785.158 532.838 783.323 535.992 779.582 538.648C775.812 541.325 770.018 543.557 761.192 544.514C755.955 545.082 748.729 544.873 741.34 543.276C733.946 541.677 726.511 538.714 720.742 533.87C717.628 531.255 713.842 526.138 710.759 521.513C709.298 519.321 708.026 517.286 707.098 515.763Z" stroke="white" stroke-opacity="0.9" stroke-width="3.41524"/>
</g>
<g filter="url(#filter22_d_284_3945)">
<path d="M938.204 439.062C938.876 440.346 939.682 442.137 940.307 444.29C941.62 448.813 942.116 454.855 938.977 461.187C938.09 462.978 936.873 464.133 935.673 464.583C934.573 464.996 933.252 464.909 931.759 463.719C930.666 462.847 929.149 462.481 927.788 462.31C926.365 462.131 924.81 462.132 923.404 462.203C922.927 462.227 922.461 462.26 922.016 462.297L938.204 439.062Z" stroke="white" stroke-opacity="0.9" stroke-width="3.41524"/>
</g>
</g>
<defs>
<filter id="filter0_f_284_3945" x="140.694" y="307.213" width="827.807" height="389.139" filterUnits="userSpaceOnUse" color-interpolation-filters="sRGB">
<feFlood flood-opacity="0" result="BackgroundImageFix"/>
<feBlend mode="normal" in="SourceGraphic" in2="BackgroundImageFix" result="shape"/>
<feGaussianBlur stdDeviation="5" result="effect1_foregroundBlur_284_3945"/>
</filter>
<filter id="filter1_i_284_3945" x="519.466" y="493.814" width="80.2778" height="114.869" filterUnits="userSpaceOnUse" color-interpolation-filters="sRGB">
<feFlood flood-opacity="0" result="BackgroundImageFix"/>
<feBlend mode="normal" in="SourceGraphic" in2="BackgroundImageFix" result="shape"/>
<feColorMatrix in="SourceAlpha" type="matrix" values="0 0 0 0 0 0 0 0 0 0 0 0 0 0 0 0 0 0 127 0" result="hardAlpha"/>
<feMorphology radius="1.14765" operator="erode" in="SourceAlpha" result="effect1_innerShadow_284_3945"/>
<feOffset/>
<feGaussianBlur stdDeviation="0.573823"/>
<feComposite in2="hardAlpha" operator="arithmetic" k2="-1" k3="1"/>
<feColorMatrix type="matrix" values="0 0 0 0 0 0 0 0 0 0 0 0 0 0 0 0 0 0 0.25 0"/>
<feBlend mode="normal" in2="shape" result="effect1_innerShadow_284_3945"/>
</filter>
<filter id="filter2_di_284_3945" x="522.814" y="503.292" width="70.8454" height="97.9858" filterUnits="userSpaceOnUse" color-interpolation-filters="sRGB">
<feFlood flood-opacity="0" result="BackgroundImageFix"/>
<feColorMatrix in="SourceAlpha" type="matrix" values="0 0 0 0 0 0 0 0 0 0 0 0 0 0 0 0 0 0 127 0" result="hardAlpha"/>
<feOffset dy="0.459058"/>
<feGaussianBlur stdDeviation="0.344294"/>
<feColorMatrix type="matrix" values="0 0 0 0 1 0 0 0 0 1 0 0 0 0 1 0 0 0 0.41 0"/>
<feBlend mode="normal" in2="BackgroundImageFix" result="effect1_dropShadow_284_3945"/>
<feBlend mode="normal" in="SourceGraphic" in2="effect1_dropShadow_284_3945" result="shape"/>
<feColorMatrix in="SourceAlpha" type="matrix" values="0 0 0 0 0 0 0 0 0 0 0 0 0 0 0 0 0 0 127 0" result="hardAlpha"/>
<feOffset dx="-3.44294" dy="2.29529"/>
<feGaussianBlur stdDeviation="1.72147"/>
<feComposite in2="hardAlpha" operator="arithmetic" k2="-1" k3="1"/>
<feColorMatrix type="matrix" values="0 0 0 0 0 0 0 0 0 0 0 0 0 0 0 0 0 0 0.25 0"/>
<feBlend mode="normal" in2="shape" result="effect2_innerShadow_284_3945"/>
</filter>
<filter id="filter3_i_284_3945" x="522.596" y="495.6" width="74.8716" height="111.314" filterUnits="userSpaceOnUse" color-interpolation-filters="sRGB">
<feFlood flood-opacity="0" result="BackgroundImageFix"/>
<feBlend mode="normal" in="SourceGraphic" in2="BackgroundImageFix" result="shape"/>
<feColorMatrix in="SourceAlpha" type="matrix" values="0 0 0 0 0 0 0 0 0 0 0 0 0 0 0 0 0 0 127 0" result="hardAlpha"/>
<feMorphology radius="2.84604" operator="erode" in="SourceAlpha" result="effect1_innerShadow_284_3945"/>
<feOffset/>
<feGaussianBlur stdDeviation="1.42302"/>
<feComposite in2="hardAlpha" operator="arithmetic" k2="-1" k3="1"/>
<feColorMatrix type="matrix" values="0 0 0 0 0 0 0 0 0 0 0 0 0 0 0 0 0 0 0.25 0"/>
<feBlend mode="normal" in2="shape" result="effect1_innerShadow_284_3945"/>
</filter>
<filter id="filter4_di_284_3945" x="528.665" y="509.775" width="60.2779" height="85.0715" filterUnits="userSpaceOnUse" color-interpolation-filters="sRGB">
<feFlood flood-opacity="0" result="BackgroundImageFix"/>
<feColorMatrix in="SourceAlpha" type="matrix" values="0 0 0 0 0 0 0 0 0 0 0 0 0 0 0 0 0 0 127 0" result="hardAlpha"/>
<feOffset dy="0.970617"/>
<feGaussianBlur stdDeviation="0.606636"/>
<feColorMatrix type="matrix" values="0 0 0 0 1 0 0 0 0 1 0 0 0 0 1 0 0 0 0.59 0"/>
<feBlend mode="normal" in2="BackgroundImageFix" result="effect1_dropShadow_284_3945"/>
<feBlend mode="normal" in="SourceGraphic" in2="effect1_dropShadow_284_3945" result="shape"/>
<feColorMatrix in="SourceAlpha" type="matrix" values="0 0 0 0 0 0 0 0 0 0 0 0 0 0 0 0 0 0 127 0" result="hardAlpha"/>
<feOffset dx="-3.63981" dy="2.42654"/>
<feGaussianBlur stdDeviation="1.81991"/>
<feComposite in2="hardAlpha" operator="arithmetic" k2="-1" k3="1"/>
<feColorMatrix type="matrix" values="0 0 0 0 0 0 0 0 0 0 0 0 0 0 0 0 0 0 0.25 0"/>
<feBlend mode="normal" in2="shape" result="effect2_innerShadow_284_3945"/>
</filter>
<filter id="filter5_i_284_3945" x="215.287" y="333.781" width="61.0757" height="98.3105" filterUnits="userSpaceOnUse" color-interpolation-filters="sRGB">
<feFlood flood-opacity="0" result="BackgroundImageFix"/>
<feBlend mode="normal" in="SourceGraphic" in2="BackgroundImageFix" result="shape"/>
<feColorMatrix in="SourceAlpha" type="matrix" values="0 0 0 0 0 0 0 0 0 0 0 0 0 0 0 0 0 0 127 0" result="hardAlpha"/>
<feMorphology radius="0.947741" operator="erode" in="SourceAlpha" result="effect1_innerShadow_284_3945"/>
<feOffset/>
<feGaussianBlur stdDeviation="0.47387"/>
<feComposite in2="hardAlpha" operator="arithmetic" k2="-1" k3="1"/>
<feColorMatrix type="matrix" values="0 0 0 0 0 0 0 0 0 0 0 0 0 0 0 0 0 0 0.25 0"/>
<feBlend mode="normal" in2="shape" result="effect1_innerShadow_284_3945"/>
</filter>
<filter id="filter6_di_284_3945" x="217.594" y="341.892" width="54.1677" height="83.7842" filterUnits="userSpaceOnUse" color-interpolation-filters="sRGB">
<feFlood flood-opacity="0" result="BackgroundImageFix"/>
<feColorMatrix in="SourceAlpha" type="matrix" values="0 0 0 0 0 0 0 0 0 0 0 0 0 0 0 0 0 0 127 0" result="hardAlpha"/>
<feOffset dy="0.379096"/>
<feGaussianBlur stdDeviation="0.284322"/>
<feColorMatrix type="matrix" values="0 0 0 0 1 0 0 0 0 1 0 0 0 0 1 0 0 0 0.41 0"/>
<feBlend mode="normal" in2="BackgroundImageFix" result="effect1_dropShadow_284_3945"/>
<feBlend mode="normal" in="SourceGraphic" in2="effect1_dropShadow_284_3945" result="shape"/>
<feColorMatrix in="SourceAlpha" type="matrix" values="0 0 0 0 0 0 0 0 0 0 0 0 0 0 0 0 0 0 127 0" result="hardAlpha"/>
<feOffset dx="-2.84322" dy="1.89548"/>
<feGaussianBlur stdDeviation="1.42161"/>
<feComposite in2="hardAlpha" operator="arithmetic" k2="-1" k3="1"/>
<feColorMatrix type="matrix" values="0 0 0 0 0 0 0 0 0 0 0 0 0 0 0 0 0 0 0.25 0"/>
<feBlend mode="normal" in2="shape" result="effect2_innerShadow_284_3945"/>
</filter>
<filter id="filter7_i_284_3945" x="214.603" y="340.852" width="59.4868" height="93.6484" filterUnits="userSpaceOnUse" color-interpolation-filters="sRGB">
<feFlood flood-opacity="0" result="BackgroundImageFix"/>
<feBlend mode="normal" in="SourceGraphic" in2="BackgroundImageFix" result="shape"/>
<feColorMatrix in="SourceAlpha" type="matrix" values="0 0 0 0 0 0 0 0 0 0 0 0 0 0 0 0 0 0 127 0" result="hardAlpha"/>
<feMorphology radius="2.84604" operator="erode" in="SourceAlpha" result="effect1_innerShadow_284_3945"/>
<feOffset/>
<feGaussianBlur stdDeviation="1.42302"/>
<feComposite in2="hardAlpha" operator="arithmetic" k2="-1" k3="1"/>
<feColorMatrix type="matrix" values="0 0 0 0 0 0 0 0 0 0 0 0 0 0 0 0 0 0 0.25 0"/>
<feBlend mode="normal" in2="shape" result="effect1_innerShadow_284_3945"/>
</filter>
<filter id="filter8_i_284_3945" x="214.603" y="340.852" width="59.4868" height="93.6484" filterUnits="userSpaceOnUse" color-interpolation-filters="sRGB">
<feFlood flood-opacity="0" result="BackgroundImageFix"/>
<feBlend mode="normal" in="SourceGraphic" in2="BackgroundImageFix" result="shape"/>
<feColorMatrix in="SourceAlpha" type="matrix" values="0 0 0 0 0 0 0 0 0 0 0 0 0 0 0 0 0 0 127 0" result="hardAlpha"/>
<feMorphology radius="0.852955" operator="erode" in="SourceAlpha" result="effect1_innerShadow_284_3945"/>
<feOffset/>
<feGaussianBlur stdDeviation="0.426477"/>
<feComposite in2="hardAlpha" operator="arithmetic" k2="-1" k3="1"/>
<feColorMatrix type="matrix" values="0 0 0 0 0 0 0 0 0 0 0 0 0 0 0 0 0 0 0.25 0"/>
<feBlend mode="normal" in2="shape" result="effect1_innerShadow_284_3945"/>
</filter>
<filter id="filter9_di_284_3945" x="218.363" y="352.464" width="48.0425" height="72.5344" filterUnits="userSpaceOnUse" color-interpolation-filters="sRGB">
<feFlood flood-opacity="0" result="BackgroundImageFix"/>
<feColorMatrix in="SourceAlpha" type="matrix" values="0 0 0 0 0 0 0 0 0 0 0 0 0 0 0 0 0 0 127 0" result="hardAlpha"/>
<feOffset dy="0.970618"/>
<feGaussianBlur stdDeviation="0.606636"/>
<feColorMatrix type="matrix" values="0 0 0 0 1 0 0 0 0 1 0 0 0 0 1 0 0 0 0.59 0"/>
<feBlend mode="normal" in2="BackgroundImageFix" result="effect1_dropShadow_284_3945"/>
<feBlend mode="normal" in="SourceGraphic" in2="effect1_dropShadow_284_3945" result="shape"/>
<feColorMatrix in="SourceAlpha" type="matrix" values="0 0 0 0 0 0 0 0 0 0 0 0 0 0 0 0 0 0 127 0" result="hardAlpha"/>
<feOffset dx="-3.63982" dy="2.42654"/>
<feGaussianBlur stdDeviation="1.81991"/>
<feComposite in2="hardAlpha" operator="arithmetic" k2="-1" k3="1"/>
<feColorMatrix type="matrix" values="0 0 0 0 0 0 0 0 0 0 0 0 0 0 0 0 0 0 0.25 0"/>
<feBlend mode="normal" in2="shape" result="effect2_innerShadow_284_3945"/>
</filter>
<filter id="filter10_ii_284_3945" x="178.606" y="132.872" width="790.086" height="517.569" filterUnits="userSpaceOnUse" color-interpolation-filters="sRGB">
<feFlood flood-opacity="0" result="BackgroundImageFix"/>
<feBlend mode="normal" in="SourceGraphic" in2="BackgroundImageFix" result="shape"/>
<feColorMatrix in="SourceAlpha" type="matrix" values="0 0 0 0 0 0 0 0 0 0 0 0 0 0 0 0 0 0 127 0" result="hardAlpha"/>
<feOffset dx="17.0762" dy="-22.7683"/>
<feGaussianBlur stdDeviation="68.3049"/>
<feComposite in2="hardAlpha" operator="arithmetic" k2="-1" k3="1"/>
<feColorMatrix type="matrix" values="0 0 0 0 0 0 0 0 0 0 0 0 0 0 0 0 0 0 0.07 0"/>
<feBlend mode="normal" in2="shape" result="effect1_innerShadow_284_3945"/>
<feColorMatrix in="SourceAlpha" type="matrix" values="0 0 0 0 0 0 0 0 0 0 0 0 0 0 0 0 0 0 127 0" result="hardAlpha"/>
<feOffset dy="-2.84604"/>
<feGaussianBlur stdDeviation="5.69207"/>
<feComposite in2="hardAlpha" operator="arithmetic" k2="-1" k3="1"/>
<feColorMatrix type="matrix" values="0 0 0 0 0 0 0 0 0 0 0 0 0 0 0 0 0 0 0.09 0"/>
<feBlend mode="normal" in2="effect1_innerShadow_284_3945" result="effect2_innerShadow_284_3945"/>
</filter>
<filter id="filter11_ddi_284_3945" x="472.109" y="226.899" width="290.81" height="172.001" filterUnits="userSpaceOnUse" color-interpolation-filters="sRGB">
<feFlood flood-opacity="0" result="BackgroundImageFix"/>
<feColorMatrix in="SourceAlpha" type="matrix" values="0 0 0 0 0 0 0 0 0 0 0 0 0 0 0 0 0 0 127 0" result="hardAlpha"/>
<feOffset dx="-2.29529" dy="1.14765"/>
<feGaussianBlur stdDeviation="1.14765"/>
<feColorMatrix type="matrix" values="0 0 0 0 1 0 0 0 0 1 0 0 0 0 1 0 0 0 0.28 0"/>
<feBlend mode="normal" in2="BackgroundImageFix" result="effect1_dropShadow_284_3945"/>
<feColorMatrix in="SourceAlpha" type="matrix" values="0 0 0 0 0 0 0 0 0 0 0 0 0 0 0 0 0 0 127 0" result="hardAlpha"/>
<feOffset dy="-1.14765"/>
<feGaussianBlur stdDeviation="1.14765"/>
<feColorMatrix type="matrix" values="0 0 0 0 1 0 0 0 0 1 0 0 0 0 1 0 0 0 0.56 0"/>
<feBlend mode="normal" in2="effect1_dropShadow_284_3945" result="effect2_dropShadow_284_3945"/>
<feBlend mode="normal" in="SourceGraphic" in2="effect2_dropShadow_284_3945" result="shape"/>
<feColorMatrix in="SourceAlpha" type="matrix" values="0 0 0 0 0 0 0 0 0 0 0 0 0 0 0 0 0 0 127 0" result="hardAlpha"/>
<feOffset dx="-1.14765" dy="3.44294"/>
<feGaussianBlur stdDeviation="1.72147"/>
<feComposite in2="hardAlpha" operator="arithmetic" k2="-1" k3="1"/>
<feColorMatrix type="matrix" values="0 0 0 0 0 0 0 0 0 0 0 0 0 0 0 0 0 0 0.75 0"/>
<feBlend mode="normal" in2="shape" result="effect3_innerShadow_284_3945"/>
</filter>
<filter id="filter12_di_284_3945" x="247.03" y="227.809" width="275.375" height="165.932" filterUnits="userSpaceOnUse" color-interpolation-filters="sRGB">
<feFlood flood-opacity="0" result="BackgroundImageFix"/>
<feColorMatrix in="SourceAlpha" type="matrix" values="0 0 0 0 0 0 0 0 0 0 0 0 0 0 0 0 0 0 127 0" result="hardAlpha"/>
<feOffset dy="1.18682"/>
<feGaussianBlur stdDeviation="0.593408"/>
<feColorMatrix type="matrix" values="0 0 0 0 0.925374 0 0 0 0 0.925374 0 0 0 0 0.925374 0 0 0 0.37 0"/>
<feBlend mode="normal" in2="BackgroundImageFix" result="effect1_dropShadow_284_3945"/>
<feBlend mode="normal" in="SourceGraphic" in2="effect1_dropShadow_284_3945" result="shape"/>
<feColorMatrix in="SourceAlpha" type="matrix" values="0 0 0 0 0 0 0 0 0 0 0 0 0 0 0 0 0 0 127 0" result="hardAlpha"/>
<feOffset dx="-4.59058" dy="5.73823"/>
<feGaussianBlur stdDeviation="2.29529"/>
<feComposite in2="hardAlpha" operator="arithmetic" k2="-1" k3="1"/>
<feColorMatrix type="matrix" values="0 0 0 0 0 0 0 0 0 0 0 0 0 0 0 0 0 0 0.8 0"/>
<feBlend mode="normal" in2="shape" result="effect2_innerShadow_284_3945"/>
</filter>
<filter id="filter13_di_284_3945" x="248.102" y="160.238" width="194.161" height="66.2742" filterUnits="userSpaceOnUse" color-interpolation-filters="sRGB">
<feFlood flood-opacity="0" result="BackgroundImageFix"/>
<feColorMatrix in="SourceAlpha" type="matrix" values="0 0 0 0 0 0 0 0 0 0 0 0 0 0 0 0 0 0 127 0" result="hardAlpha"/>
<feOffset dy="1.18682"/>
<feGaussianBlur stdDeviation="0.593408"/>
<feColorMatrix type="matrix" values="0 0 0 0 0.925374 0 0 0 0 0.925374 0 0 0 0 0.925374 0 0 0 0.37 0"/>
<feBlend mode="normal" in2="BackgroundImageFix" result="effect1_dropShadow_284_3945"/>
<feBlend mode="normal" in="SourceGraphic" in2="effect1_dropShadow_284_3945" result="shape"/>
<feColorMatrix in="SourceAlpha" type="matrix" values="0 0 0 0 0 0 0 0 0 0 0 0 0 0 0 0 0 0 127 0" result="hardAlpha"/>
<feOffset dx="-4.59058" dy="5.73823"/>
<feGaussianBlur stdDeviation="2.29529"/>
<feComposite in2="hardAlpha" operator="arithmetic" k2="-1" k3="1"/>
<feColorMatrix type="matrix" values="0 0 0 0 0 0 0 0 0 0 0 0 0 0 0 0 0 0 0.8 0"/>
<feBlend mode="normal" in2="shape" result="effect2_innerShadow_284_3945"/>
</filter>
<filter id="filter14_f_284_3945" x="471.084" y="349.956" width="380.862" height="189.208" filterUnits="userSpaceOnUse" color-interpolation-filters="sRGB">
<feFlood flood-opacity="0" result="BackgroundImageFix"/>
<feBlend mode="normal" in="SourceGraphic" in2="BackgroundImageFix" result="shape"/>
<feGaussianBlur stdDeviation="16.067" result="effect1_foregroundBlur_284_3945"/>
</filter>
<filter id="filter15_f_284_3945" x="759.624" y="264.208" width="175.792" height="202.145" filterUnits="userSpaceOnUse" color-interpolation-filters="sRGB">
<feFlood flood-opacity="0" result="BackgroundImageFix"/>
<feBlend mode="normal" in="SourceGraphic" in2="BackgroundImageFix" result="shape"/>
<feGaussianBlur stdDeviation="10.3288" result="effect1_foregroundBlur_284_3945"/>
</filter>
<filter id="filter16_di_284_3945" x="397.538" y="377.713" width="24.9436" height="21.1876" filterUnits="userSpaceOnUse" color-interpolation-filters="sRGB">
<feFlood flood-opacity="0" result="BackgroundImageFix"/>
<feColorMatrix in="SourceAlpha" type="matrix" values="0 0 0 0 0 0 0 0 0 0 0 0 0 0 0 0 0 0 127 0" result="hardAlpha"/>
<feOffset dy="-0.569207"/>
<feGaussianBlur stdDeviation="0.284604"/>
<feColorMatrix type="matrix" values="0 0 0 0 0.78755 0 0 0 0 0.78755 0 0 0 0 0.78755 0 0 0 0.19 0"/>
<feBlend mode="normal" in2="BackgroundImageFix" result="effect1_dropShadow_284_3945"/>
<feBlend mode="normal" in="SourceGraphic" in2="effect1_dropShadow_284_3945" result="shape"/>
<feColorMatrix in="SourceAlpha" type="matrix" values="0 0 0 0 0 0 0 0 0 0 0 0 0 0 0 0 0 0 127 0" result="hardAlpha"/>
<feOffset dy="2.84604"/>
<feGaussianBlur stdDeviation="1.42302"/>
<feComposite in2="hardAlpha" operator="arithmetic" k2="-1" k3="1"/>
<feColorMatrix type="matrix" values="0 0 0 0 0 0 0 0 0 0 0 0 0 0 0 0 0 0 0.74 0"/>
<feBlend mode="normal" in2="shape" result="effect2_innerShadow_284_3945"/>
</filter>
<filter id="filter17_di_284_3945" x="287.561" y="325.793" width="24.9436" height="21.1876" filterUnits="userSpaceOnUse" color-interpolation-filters="sRGB">
<feFlood flood-opacity="0" result="BackgroundImageFix"/>
<feColorMatrix in="SourceAlpha" type="matrix" values="0 0 0 0 0 0 0 0 0 0 0 0 0 0 0 0 0 0 127 0" result="hardAlpha"/>
<feOffset dy="-0.569207"/>
<feGaussianBlur stdDeviation="0.284604"/>
<feColorMatrix type="matrix" values="0 0 0 0 0.78755 0 0 0 0 0.78755 0 0 0 0 0.78755 0 0 0 0.19 0"/>
<feBlend mode="normal" in2="BackgroundImageFix" result="effect1_dropShadow_284_3945"/>
<feBlend mode="normal" in="SourceGraphic" in2="effect1_dropShadow_284_3945" result="shape"/>
<feColorMatrix in="SourceAlpha" type="matrix" values="0 0 0 0 0 0 0 0 0 0 0 0 0 0 0 0 0 0 127 0" result="hardAlpha"/>
<feOffset dy="2.84604"/>
<feGaussianBlur stdDeviation="1.42302"/>
<feComposite in2="hardAlpha" operator="arithmetic" k2="-1" k3="1"/>
<feColorMatrix type="matrix" values="0 0 0 0 0 0 0 0 0 0 0 0 0 0 0 0 0 0 0.74 0"/>
<feBlend mode="normal" in2="shape" result="effect2_innerShadow_284_3945"/>
</filter>
<filter id="filter18_f_284_3945" x="278.693" y="368.579" width="227.392" height="170.289" filterUnits="userSpaceOnUse" color-interpolation-filters="sRGB">
<feFlood flood-opacity="0" result="BackgroundImageFix"/>
<feBlend mode="normal" in="SourceGraphic" in2="BackgroundImageFix" result="shape"/>
<feGaussianBlur stdDeviation="3.44294" result="effect1_foregroundBlur_284_3945"/>
</filter>
<filter id="filter19_f_284_3945" x="702.601" y="402.887" width="252.897" height="170.476" filterUnits="userSpaceOnUse" color-interpolation-filters="sRGB">
<feFlood flood-opacity="0" result="BackgroundImageFix"/>
<feBlend mode="normal" in="SourceGraphic" in2="BackgroundImageFix" result="shape"/>
<feGaussianBlur stdDeviation="5.73823" result="effect1_foregroundBlur_284_3945"/>
</filter>
<filter id="filter20_ddii_284_3945" x="663.68" y="429.148" width="286.83" height="150.215" filterUnits="userSpaceOnUse" color-interpolation-filters="sRGB">
<feFlood flood-opacity="0" result="BackgroundImageFix"/>
<feColorMatrix in="SourceAlpha" type="matrix" values="0 0 0 0 0 0 0 0 0 0 0 0 0 0 0 0 0 0 127 0" result="hardAlpha"/>
<feOffset dy="1.07131"/>
<feGaussianBlur stdDeviation="0.714204"/>
<feColorMatrix type="matrix" values="0 0 0 0 0 0 0 0 0 0 0 0 0 0 0 0 0 0 0.57 0"/>
<feBlend mode="normal" in2="BackgroundImageFix" result="effect1_dropShadow_284_3945"/>
<feColorMatrix in="SourceAlpha" type="matrix" values="0 0 0 0 0 0 0 0 0 0 0 0 0 0 0 0 0 0 127 0" result="hardAlpha"/>
<feOffset dy="-0.714204"/>
<feGaussianBlur stdDeviation="0.714204"/>
<feColorMatrix type="matrix" values="0 0 0 0 0 0 0 0 0 0 0 0 0 0 0 0 0 0 1 0"/>
<feBlend mode="normal" in2="effect1_dropShadow_284_3945" result="effect2_dropShadow_284_3945"/>
<feBlend mode="normal" in="SourceGraphic" in2="effect2_dropShadow_284_3945" result="shape"/>
<feColorMatrix in="SourceAlpha" type="matrix" values="0 0 0 0 0 0 0 0 0 0 0 0 0 0 0 0 0 0 127 0" result="hardAlpha"/>
<feOffset dy="9.84614"/>
<feGaussianBlur stdDeviation="10.0343"/>
<feComposite in2="hardAlpha" operator="arithmetic" k2="-1" k3="1"/>
<feColorMatrix type="matrix" values="0 0 0 0 0 0 0 0 0 0 0 0 0 0 0 0 0 0 1 0"/>
<feBlend mode="normal" in2="shape" result="effect3_innerShadow_284_3945"/>
<feColorMatrix in="SourceAlpha" type="matrix" values="0 0 0 0 0 0 0 0 0 0 0 0 0 0 0 0 0 0 127 0" result="hardAlpha"/>
<feOffset dy="-1.07294"/>
<feGaussianBlur stdDeviation="1.07294"/>
<feComposite in2="hardAlpha" operator="arithmetic" k2="-1" k3="1"/>
<feColorMatrix type="matrix" values="0 0 0 0 0 0 0 0 0 0 0 0 0 0 0 0 0 0 1 0"/>
<feBlend mode="normal" in2="effect3_innerShadow_284_3945" result="effect4_innerShadow_284_3945"/>
</filter>
<filter id="filter21_d_284_3945" x="703.743" y="513.93" width="87.1056" height="35.4064" filterUnits="userSpaceOnUse" color-interpolation-filters="sRGB">
<feFlood flood-opacity="0" result="BackgroundImageFix"/>
<feColorMatrix in="SourceAlpha" type="matrix" values="0 0 0 0 0 0 0 0 0 0 0 0 0 0 0 0 0 0 127 0" result="hardAlpha"/>
<feOffset dx="1.13841" dy="1.41412"/>
<feGaussianBlur stdDeviation="0.707062"/>
<feColorMatrix type="matrix" values="0 0 0 0 1 0 0 0 0 1 0 0 0 0 1 0 0 0 0.24 0"/>
<feBlend mode="normal" in2="BackgroundImageFix" result="effect1_dropShadow_284_3945"/>
<feBlend mode="normal" in="SourceGraphic" in2="effect1_dropShadow_284_3945" result="shape"/>
</filter>
<filter id="filter22_d_284_3945" x="918.147" y="435.916" width="27.4391" height="33.4279" filterUnits="userSpaceOnUse" color-interpolation-filters="sRGB">
<feFlood flood-opacity="0" result="BackgroundImageFix"/>
<feColorMatrix in="SourceAlpha" type="matrix" values="0 0 0 0 0 0 0 0 0 0 0 0 0 0 0 0 0 0 127 0" result="hardAlpha"/>
<feOffset dx="1.13841" dy="1.41412"/>
<feGaussianBlur stdDeviation="0.707062"/>
<feColorMatrix type="matrix" values="0 0 0 0 1 0 0 0 0 1 0 0 0 0 1 0 0 0 0.24 0"/>
<feBlend mode="normal" in2="BackgroundImageFix" result="effect1_dropShadow_284_3945"/>
<feBlend mode="normal" in="SourceGraphic" in2="effect1_dropShadow_284_3945" result="shape"/>
</filter>
<linearGradient id="paint0_linear_284_3945" x1="83.8095" y1="92.0798" x2="87.9832" y2="30.004" gradientUnits="userSpaceOnUse">
<stop stop-color="#3F3F3F"/>
<stop offset="1" stop-color="#5C5C5C"/>
</linearGradient>
<linearGradient id="paint1_linear_284_3945" x1="78.5465" y1="88.8003" x2="82.6871" y2="28.9512" gradientUnits="userSpaceOnUse">
<stop stop-color="#AAAAAA"/>
<stop offset="1" stop-color="#C2C2C2"/>
</linearGradient>
<linearGradient id="paint2_linear_284_3945" x1="69.2178" y1="76.0341" x2="72.6635" y2="24.7755" gradientUnits="userSpaceOnUse">
<stop stop-color="#3F3F3F"/>
<stop offset="1" stop-color="#5C5C5C"/>
</linearGradient>
<linearGradient id="paint3_linear_284_3945" x1="64.9362" y1="73.4147" x2="68.3596" y2="23.9351" gradientUnits="userSpaceOnUse">
<stop stop-color="#AAAAAA"/>
<stop offset="1" stop-color="#C2C2C2"/>
</linearGradient>
<linearGradient id="paint4_linear_284_3945" x1="608.503" y1="624.143" x2="975.311" y2="199.616" gradientUnits="userSpaceOnUse">
<stop stop-color="#D8D8D8"/>
<stop offset="1" stop-color="white"/>
</linearGradient>
<linearGradient id="paint5_linear_284_3945" x1="655.599" y1="83.2866" x2="448.014" y2="269.924" gradientUnits="userSpaceOnUse">
<stop stop-color="#E8EAE9"/>
<stop offset="0.498386" stop-color="#707072"/>
<stop offset="1" stop-color="#2F3032"/>
</linearGradient>
<linearGradient id="paint6_linear_284_3945" x1="306.485" y1="717.34" x2="509.142" y2="368.328" gradientUnits="userSpaceOnUse">
<stop stop-color="#E8EAE9"/>
<stop offset="0.498386" stop-color="#707072"/>
<stop offset="1" stop-color="#2F3032"/>
</linearGradient>
<linearGradient id="paint7_linear_284_3945" x1="233.165" y1="349.459" x2="345.167" y2="194.171" gradientUnits="userSpaceOnUse">
<stop stop-color="#E8EAE9"/>
<stop offset="0.498386" stop-color="#707072"/>
<stop offset="1" stop-color="#2F3032"/>
</linearGradient>
<linearGradient id="paint8_linear_284_3945" x1="649.081" y1="511.618" x2="676.109" y2="438.713" gradientUnits="userSpaceOnUse">
<stop stop-color="#ECEAEA"/>
<stop offset="1" stop-color="white" stop-opacity="0"/>
</linearGradient>
<linearGradient id="paint9_linear_284_3945" x1="938.282" y1="387.845" x2="842.514" y2="418.561" gradientUnits="userSpaceOnUse">
<stop stop-color="#ECEAEA"/>
<stop offset="1" stop-color="white" stop-opacity="0"/>
</linearGradient>
<linearGradient id="paint10_linear_284_3945" x1="423.028" y1="518.491" x2="453.131" y2="458.457" gradientUnits="userSpaceOnUse">
<stop stop-color="#040404"/>
<stop offset="1" stop-color="#3C3C3C" stop-opacity="0"/>
</linearGradient>
<linearGradient id="paint11_linear_284_3945" x1="830.448" y1="525.197" x2="814.321" y2="491.78" gradientUnits="userSpaceOnUse">
<stop stop-color="#4B4B4B"/>
<stop offset="0.899322" stop-opacity="0"/>
</linearGradient>
</defs>
</svg>
