<svg width="78" height="78" viewBox="0 0 78 78" fill="none" xmlns="http://www.w3.org/2000/svg">
<path d="M39 0C17.453 0 0 17.4527 0 39C0 60.5473 17.4527 78 39 78C60.5474 78 78 60.5458 78 39C78 17.4542 60.5474 0 39 0ZM34.691 19.8232H43.309V43.9554H34.691V19.8232ZM39 58.1768C36.6298 58.1768 34.691 56.2379 34.691 53.8678C34.691 51.4975 36.6299 49.5588 39 49.5588C41.3701 49.5588 43.309 51.4977 43.309 53.8678C43.309 56.238 41.3701 58.1768 39 58.1768Z" fill="url(#paint0_linear_18_2771)"/>
<defs>
<linearGradient id="paint0_linear_18_2771" x1="39" y1="0" x2="39" y2="78" gradientUnits="userSpaceOnUse">
<stop stop-color="#D33753"/>
<stop offset="0.515" stop-color="#C72D65"/>
</linearGradient>
</defs>
</svg>
