<svg width="74" height="44" viewBox="0 0 74 44" fill="none" xmlns="http://www.w3.org/2000/svg">
<path fill-rule="evenodd" clip-rule="evenodd" d="M36.3861 11.2106C36.7472 10.9298 37.2528 10.9298 37.6139 11.2106L46.6139 18.2106C46.8575 18.4001 47 18.6914 47 19V30C47 30.7957 46.6839 31.5587 46.1213 32.1213C45.5587 32.6839 44.7957 33 44 33H30C29.2043 33 28.4413 32.6839 27.8787 32.1213C27.3161 31.5587 27 30.7957 27 30V19C27 18.6914 27.1425 18.4001 27.3861 18.2106L36.3861 11.2106ZM29 19.4891V30C29 30.2652 29.1054 30.5196 29.2929 30.7071C29.4804 30.8946 29.7348 31 30 31H44C44.2652 31 44.5196 30.8946 44.7071 30.7071C44.8946 30.5196 45 30.2652 45 30V19.4891L37 13.2669L29 19.4891Z" fill="#5E5E5E"/>
<path fill-rule="evenodd" clip-rule="evenodd" d="M33 22C33 21.4477 33.4477 21 34 21H40C40.5523 21 41 21.4477 41 22V32C41 32.5523 40.5523 33 40 33C39.4477 33 39 32.5523 39 32V23H35V32C35 32.5523 34.5523 33 34 33C33.4477 33 33 32.5523 33 32V22Z" fill="#5E5E5E"/>
</svg>
